# Blender v2.79 (sub 0) OBJ File: 'Test_of_Teamwork Export.blend'
# www.blender.org
mtllib ToT01 Chunk 0 3.mtl
o 01_Chunk_0_3
v -4.000000 0.000000 -0.000000
v -4.000000 4.000000 -0.000001
v -6.000000 0.000000 -0.000000
v -8.000000 6.000000 -0.000000
v 0.000000 6.000000 -0.000001
v -4.000000 6.000000 -0.000001
v -4.000000 2.000000 -0.000000
v -6.000000 4.000000 -0.000000
v -6.000000 2.000000 -0.000000
v -2.000000 6.000000 -0.000001
v -10.000000 6.000000 -0.000000
v -6.000000 6.000000 -0.000000
v -8.000000 7.000000 -0.000000
v -4.000000 7.000000 -0.000001
v -4.000000 3.000000 -0.000000
v -5.000000 4.000000 -0.000000
v -5.000000 0.000000 -0.000000
v -8.000000 5.000000 -0.000000
v 0.000000 7.000000 -0.000001
v -4.000000 5.000000 -0.000001
v -4.000000 1.000000 -0.000000
v -3.000000 4.000000 -0.000001
v -7.000000 4.000000 -0.000000
v -6.000000 3.000000 -0.000000
v -6.000000 1.000000 -0.000000
v -5.000000 2.000000 -0.000000
v -2.000000 7.000000 -0.000001
v -2.000000 5.000000 -0.000001
v -1.000000 6.000000 -0.000001
v -3.000000 6.000000 -0.000001
v -10.000000 7.000000 -0.000000
v -9.000000 6.000000 -0.000000
v -6.000000 7.000000 -0.000000
v -6.000000 5.000000 -0.000000
v -5.000000 6.000000 -0.000001
v -7.000000 6.000000 -0.000000
v -7.000000 5.000000 -0.000000
v -5.000000 5.000000 -0.000000
v -5.000000 7.000000 -0.000001
v -9.000000 7.000000 -0.000000
v -3.000000 5.000000 -0.000001
v -1.000000 7.000000 -0.000001
v -5.000000 1.000000 -0.000000
v -5.000000 3.000000 -0.000000
v -7.000000 3.000000 -0.000000
v -3.000000 3.000000 -0.000001
v -3.000000 7.000000 -0.000001
v -7.000000 7.000000 -0.000000
vn -0.0000 -0.0000 -1.0000
usemtl None
s off
f 46//1 15//1 2//1 22//1
f 44//1 24//1 8//1 16//1
f 43//1 25//1 9//1 26//1
f 41//1 20//1 6//1 30//1
f 38//1 34//1 12//1 35//1
f 37//1 18//1 4//1 36//1
f 34//1 37//1 36//1 12//1
f 8//1 23//1 37//1 34//1
f 20//1 38//1 35//1 6//1
f 2//1 16//1 38//1 20//1
f 16//1 8//1 34//1 38//1
f 6//1 35//1 39//1 14//1
f 35//1 12//1 33//1 39//1
f 4//1 32//1 40//1 13//1
f 32//1 11//1 31//1 40//1
f 28//1 41//1 30//1 10//1
f 22//1 2//1 20//1 41//1
f 5//1 29//1 42//1 19//1
f 29//1 10//1 27//1 42//1
f 21//1 43//1 26//1 7//1
f 1//1 17//1 43//1 21//1
f 17//1 3//1 25//1 43//1
f 15//1 44//1 16//1 2//1
f 7//1 26//1 44//1 15//1
f 26//1 9//1 24//1 44//1
f 24//1 45//1 23//1 8//1
f 10//1 30//1 47//1 27//1
f 30//1 6//1 14//1 47//1
f 12//1 36//1 48//1 33//1
f 36//1 4//1 13//1 48//1
