# Blender v2.79 (sub 0) OBJ File: 'White_Wastes.blend'
# www.blender.org
mtllib WW01 Chunk 0 2.mtl
o 01_Chunk_0_2
v 0.000000 0.000000 -0.000001
v 0.000000 32.000000 -0.000002
v 0.000000 16.000000 -0.000001
v 0.000000 8.000000 -0.000001
v 0.000000 24.000000 -0.000002
v 0.000000 4.000000 -0.000001
v -4.000000 32.000000 -0.000002
v -4.000000 16.000000 -0.000001
v 0.000000 12.000000 -0.000001
v 0.000000 28.000000 -0.000002
v -4.000000 0.000000 -0.000000
v -4.000000 8.000000 -0.000001
v -4.000000 24.000000 -0.000001
v -4.000000 28.000000 -0.000002
v -4.000000 4.000000 -0.000001
v -4.000000 12.000000 -0.000001
v 0.000000 2.000000 -0.000001
v -2.000000 32.000000 -0.000002
v -2.000000 16.000000 -0.000001
v 0.000000 10.000000 -0.000001
v 0.000000 26.000000 -0.000002
v -2.000000 8.000000 -0.000001
v -2.000000 24.000000 -0.000002
v 0.000000 6.000000 -0.000001
v 0.000000 22.000000 -0.000002
v 0.000000 14.000000 -0.000001
v 0.000000 30.000000 -0.000002
v -2.000000 0.000000 -0.000001
v -4.000000 22.000000 -0.000001
v -4.000000 30.000000 -0.000002
v -4.000000 26.000000 -0.000001
v -2.000000 28.000000 -0.000002
v -4.000000 6.000000 -0.000001
v -4.000000 2.000000 -0.000000
v -2.000000 4.000000 -0.000001
v -4.000000 14.000000 -0.000001
v -4.000000 10.000000 -0.000001
v -2.000000 12.000000 -0.000001
v -2.000000 10.000000 -0.000001
v -2.000000 14.000000 -0.000001
v -2.000000 2.000000 -0.000001
v -2.000000 6.000000 -0.000001
v -2.000000 26.000000 -0.000002
v -2.000000 30.000000 -0.000002
v -2.000000 22.000000 -0.000001
v 0.000000 1.000000 -0.000001
v -1.000000 32.000000 -0.000002
v 0.000000 17.000000 -0.000001
v -1.000000 16.000000 -0.000001
v 0.000000 9.000000 -0.000001
v 0.000000 25.000000 -0.000002
v -1.000000 8.000000 -0.000001
v -1.000000 24.000000 -0.000002
v 0.000000 5.000000 -0.000001
v 0.000000 21.000000 -0.000002
v 0.000000 13.000000 -0.000001
v 0.000000 29.000000 -0.000002
v -3.000000 0.000000 -0.000000
v -4.000000 23.000000 -0.000001
v -4.000000 31.000000 -0.000002
v -4.000000 27.000000 -0.000002
v -1.000000 28.000000 -0.000002
v -4.000000 7.000000 -0.000001
v -4.000000 3.000000 -0.000000
v -1.000000 4.000000 -0.000001
v -4.000000 15.000000 -0.000001
v -4.000000 11.000000 -0.000001
v -1.000000 12.000000 -0.000001
v 0.000000 3.000000 -0.000001
v -3.000000 32.000000 -0.000002
v -3.000000 16.000000 -0.000001
v 0.000000 11.000000 -0.000001
v 0.000000 27.000000 -0.000002
v -3.000000 8.000000 -0.000001
v -3.000000 24.000000 -0.000001
v 0.000000 7.000000 -0.000001
v 0.000000 23.000000 -0.000002
v 0.000000 15.000000 -0.000001
v 0.000000 31.000000 -0.000002
v -1.000000 0.000000 -0.000001
v -4.000000 21.000000 -0.000001
v -4.000000 17.000000 -0.000001
v -4.000000 29.000000 -0.000002
v -4.000000 25.000000 -0.000001
v -3.000000 28.000000 -0.000002
v -4.000000 5.000000 -0.000001
v -4.000000 1.000000 -0.000000
v -3.000000 4.000000 -0.000001
v -4.000000 13.000000 -0.000001
v -4.000000 9.000000 -0.000001
v -3.000000 12.000000 -0.000001
v -2.000000 11.000000 -0.000001
v -2.000000 9.000000 -0.000001
v -1.000000 10.000000 -0.000001
v -3.000000 10.000000 -0.000001
v -2.000000 15.000000 -0.000001
v -2.000000 13.000000 -0.000001
v -1.000000 14.000000 -0.000001
v -3.000000 14.000000 -0.000001
v -2.000000 3.000000 -0.000001
v -2.000000 1.000000 -0.000001
v -1.000000 2.000000 -0.000001
v -3.000000 2.000000 -0.000001
v -2.000000 7.000000 -0.000001
v -2.000000 5.000000 -0.000001
v -1.000000 6.000000 -0.000001
v -3.000000 6.000000 -0.000001
v -2.000000 27.000000 -0.000002
v -2.000000 25.000000 -0.000002
v -1.000000 26.000000 -0.000002
v -3.000000 26.000000 -0.000002
v -2.000000 31.000000 -0.000002
v -2.000000 29.000000 -0.000002
v -1.000000 30.000000 -0.000002
v -3.000000 30.000000 -0.000002
v -2.000000 17.000000 -0.000001
v -2.000000 23.000000 -0.000002
v -2.000000 21.000000 -0.000001
v -1.000000 22.000000 -0.000002
v -3.000000 22.000000 -0.000001
v -3.000000 21.000000 -0.000001
v -1.000000 21.000000 -0.000002
v -1.000000 23.000000 -0.000002
v -3.000000 17.000000 -0.000001
v -1.000000 17.000000 -0.000001
v -3.000000 29.000000 -0.000002
v -1.000000 29.000000 -0.000002
v -1.000000 31.000000 -0.000002
v -3.000000 25.000000 -0.000002
v -1.000000 25.000000 -0.000002
v -1.000000 27.000000 -0.000002
v -3.000000 5.000000 -0.000001
v -1.000000 5.000000 -0.000001
v -1.000000 7.000000 -0.000001
v -3.000000 1.000000 -0.000000
v -1.000000 1.000000 -0.000001
v -1.000000 3.000000 -0.000001
v -3.000000 13.000000 -0.000001
v -1.000000 13.000000 -0.000001
v -1.000000 15.000000 -0.000001
v -3.000000 9.000000 -0.000001
v -1.000000 9.000000 -0.000001
v -1.000000 11.000000 -0.000001
v -3.000000 11.000000 -0.000001
v -3.000000 15.000000 -0.000001
v -3.000000 3.000000 -0.000001
v -3.000000 7.000000 -0.000001
v -3.000000 27.000000 -0.000002
v -3.000000 31.000000 -0.000002
v -3.000000 23.000000 -0.000001
vn -0.0000 -0.0000 -1.0000
usemtl None
s off
f 150//1 59//1 13//1 75//1
f 149//1 60//1 7//1 70//1
f 148//1 61//1 14//1 85//1
f 147//1 63//1 12//1 74//1
f 146//1 64//1 15//1 88//1
f 145//1 66//1 8//1 71//1
f 144//1 67//1 16//1 91//1
f 143//1 92//1 38//1 68//1
f 142//1 93//1 39//1 94//1
f 141//1 90//1 37//1 95//1
f 140//1 96//1 19//1 49//1
f 139//1 97//1 40//1 98//1
f 138//1 89//1 36//1 99//1
f 137//1 100//1 35//1 65//1
f 136//1 101//1 41//1 102//1
f 135//1 87//1 34//1 103//1
f 134//1 104//1 22//1 52//1
f 133//1 105//1 42//1 106//1
f 132//1 86//1 33//1 107//1
f 131//1 108//1 32//1 62//1
f 130//1 109//1 43//1 110//1
f 129//1 84//1 31//1 111//1
f 128//1 112//1 18//1 47//1
f 127//1 113//1 44//1 114//1
f 126//1 83//1 30//1 115//1
f 123//1 117//1 23//1 53//1
f 122//1 118//1 45//1 119//1
f 121//1 81//1 29//1 120//1
f 118//1 121//1 120//1 45//1
f 55//1 122//1 119//1 25//1
f 77//1 123//1 53//1 5//1
f 25//1 119//1 123//1 77//1
f 119//1 45//1 117//1 123//1
f 19//1 71//1 124//1 116//1
f 71//1 8//1 82//1 124//1
f 3//1 49//1 125//1 48//1
f 49//1 19//1 116//1 125//1
f 113//1 126//1 115//1 44//1
f 32//1 85//1 126//1 113//1
f 85//1 14//1 83//1 126//1
f 57//1 127//1 114//1 27//1
f 10//1 62//1 127//1 57//1
f 62//1 32//1 113//1 127//1
f 79//1 128//1 47//1 2//1
f 27//1 114//1 128//1 79//1
f 114//1 44//1 112//1 128//1
f 109//1 129//1 111//1 43//1
f 23//1 75//1 129//1 109//1
f 75//1 13//1 84//1 129//1
f 51//1 130//1 110//1 21//1
f 5//1 53//1 130//1 51//1
f 53//1 23//1 109//1 130//1
f 73//1 131//1 62//1 10//1
f 21//1 110//1 131//1 73//1
f 110//1 43//1 108//1 131//1
f 105//1 132//1 107//1 42//1
f 35//1 88//1 132//1 105//1
f 88//1 15//1 86//1 132//1
f 54//1 133//1 106//1 24//1
f 6//1 65//1 133//1 54//1
f 65//1 35//1 105//1 133//1
f 76//1 134//1 52//1 4//1
f 24//1 106//1 134//1 76//1
f 106//1 42//1 104//1 134//1
f 101//1 135//1 103//1 41//1
f 28//1 58//1 135//1 101//1
f 58//1 11//1 87//1 135//1
f 46//1 136//1 102//1 17//1
f 1//1 80//1 136//1 46//1
f 80//1 28//1 101//1 136//1
f 69//1 137//1 65//1 6//1
f 17//1 102//1 137//1 69//1
f 102//1 41//1 100//1 137//1
f 97//1 138//1 99//1 40//1
f 38//1 91//1 138//1 97//1
f 91//1 16//1 89//1 138//1
f 56//1 139//1 98//1 26//1
f 9//1 68//1 139//1 56//1
f 68//1 38//1 97//1 139//1
f 78//1 140//1 49//1 3//1
f 26//1 98//1 140//1 78//1
f 98//1 40//1 96//1 140//1
f 93//1 141//1 95//1 39//1
f 22//1 74//1 141//1 93//1
f 74//1 12//1 90//1 141//1
f 50//1 142//1 94//1 20//1
f 4//1 52//1 142//1 50//1
f 52//1 22//1 93//1 142//1
f 72//1 143//1 68//1 9//1
f 20//1 94//1 143//1 72//1
f 94//1 39//1 92//1 143//1
f 92//1 144//1 91//1 38//1
f 39//1 95//1 144//1 92//1
f 95//1 37//1 67//1 144//1
f 96//1 145//1 71//1 19//1
f 40//1 99//1 145//1 96//1
f 99//1 36//1 66//1 145//1
f 100//1 146//1 88//1 35//1
f 41//1 103//1 146//1 100//1
f 103//1 34//1 64//1 146//1
f 104//1 147//1 74//1 22//1
f 42//1 107//1 147//1 104//1
f 107//1 33//1 63//1 147//1
f 108//1 148//1 85//1 32//1
f 43//1 111//1 148//1 108//1
f 111//1 31//1 61//1 148//1
f 112//1 149//1 70//1 18//1
f 44//1 115//1 149//1 112//1
f 115//1 30//1 60//1 149//1
f 117//1 150//1 75//1 23//1
f 45//1 120//1 150//1 117//1
f 120//1 29//1 59//1 150//1
