# Blender v2.79 (sub 0) OBJ File: 'White_Wastes.blend'
# www.blender.org
mtllib WW02 Chunk 1 3.mtl
o 02_Chunk_1_3
v -32.000000 0.000000 0.000002
v -32.000000 32.000000 0.000001
v -32.000000 16.000000 0.000001
v -32.000000 24.000000 0.000001
v -32.000000 8.000000 0.000002
v -24.000000 32.000000 0.000000
v -28.000000 0.000000 0.000002
v -32.000000 28.000000 0.000001
v -32.000000 12.000000 0.000002
v -32.000000 20.000000 0.000001
v -32.000000 4.000000 0.000002
v -28.000000 32.000000 0.000000
v -28.000000 16.000000 0.000001
v -28.000000 8.000000 0.000001
v -28.000000 24.000000 0.000001
v -28.000000 20.000000 0.000001
v -28.000000 4.000000 0.000002
v -28.000000 12.000000 0.000001
v -28.000000 28.000000 0.000001
v -30.000000 0.000000 0.000002
v -32.000000 30.000000 0.000001
v -32.000000 14.000000 0.000001
v -32.000000 22.000000 0.000001
v -32.000000 6.000000 0.000002
v -26.000000 32.000000 0.000000
v -24.000000 30.000000 0.000000
v -26.000000 24.000000 0.000001
v -32.000000 26.000000 0.000001
v -32.000000 10.000000 0.000002
v -32.000000 18.000000 0.000001
v -32.000000 2.000000 0.000002
v -30.000000 32.000000 0.000001
v -30.000000 16.000000 0.000001
v -30.000000 8.000000 0.000002
v -30.000000 24.000000 0.000001
v -28.000000 22.000000 0.000001
v -28.000000 18.000000 0.000001
v -26.000000 20.000000 0.000001
v -30.000000 20.000000 0.000001
v -28.000000 6.000000 0.000001
v -28.000000 2.000000 0.000002
v -30.000000 4.000000 0.000002
v -28.000000 14.000000 0.000001
v -30.000000 12.000000 0.000001
v -28.000000 30.000000 0.000000
v -28.000000 26.000000 0.000001
v -26.000000 28.000000 0.000000
v -30.000000 28.000000 0.000001
v -30.000000 26.000000 0.000001
v -26.000000 26.000000 0.000000
v -26.000000 30.000000 0.000000
v -30.000000 10.000000 0.000001
v -30.000000 2.000000 0.000002
v -30.000000 18.000000 0.000001
v -26.000000 22.000000 0.000001
v -30.000000 22.000000 0.000001
v -30.000000 6.000000 0.000002
v -30.000000 14.000000 0.000001
v -30.000000 30.000000 0.000001
v -31.000000 0.000000 0.000002
v -32.000000 31.000000 0.000001
v -32.000000 15.000000 0.000001
v -32.000000 23.000000 0.000001
v -32.000000 7.000000 0.000002
v -25.000000 32.000000 0.000000
v -24.000000 31.000000 0.000000
v -25.000000 24.000000 0.000000
v -32.000000 27.000000 0.000001
v -32.000000 11.000000 0.000002
v -32.000000 19.000000 0.000001
v -32.000000 3.000000 0.000002
v -29.000000 32.000000 0.000000
v -29.000000 16.000000 0.000001
v -29.000000 8.000000 0.000001
v -29.000000 24.000000 0.000001
v -28.000000 23.000000 0.000001
v -28.000000 19.000000 0.000001
v -29.000000 20.000000 0.000001
v -28.000000 7.000000 0.000001
v -28.000000 3.000000 0.000002
v -29.000000 4.000000 0.000002
v -28.000000 15.000000 0.000001
v -29.000000 12.000000 0.000001
v -28.000000 31.000000 0.000000
v -28.000000 27.000000 0.000001
v -25.000000 28.000000 0.000000
v -29.000000 28.000000 0.000001
v -29.000000 0.000000 0.000002
v -32.000000 29.000000 0.000001
v -32.000000 13.000000 0.000002
v -32.000000 21.000000 0.000001
v -32.000000 5.000000 0.000002
v -27.000000 32.000000 0.000000
v -27.000000 16.000000 0.000001
v -24.000000 29.000000 0.000000
v -27.000000 24.000000 0.000001
v -32.000000 25.000000 0.000001
v -32.000000 9.000000 0.000002
v -32.000000 17.000000 0.000001
v -32.000000 1.000000 0.000002
v -31.000000 32.000000 0.000001
v -31.000000 16.000000 0.000001
v -31.000000 8.000000 0.000002
v -31.000000 24.000000 0.000001
v -28.000000 21.000000 0.000001
v -28.000000 17.000000 0.000001
v -27.000000 20.000000 0.000001
v -31.000000 20.000000 0.000001
v -28.000000 5.000000 0.000002
v -28.000000 1.000000 0.000002
v -27.000000 4.000000 0.000001
v -31.000000 4.000000 0.000002
v -28.000000 13.000000 0.000001
v -31.000000 12.000000 0.000001
v -28.000000 29.000000 0.000000
v -28.000000 25.000000 0.000001
v -27.000000 28.000000 0.000000
v -31.000000 28.000000 0.000001
v -30.000000 27.000000 0.000001
v -30.000000 25.000000 0.000001
v -29.000000 26.000000 0.000001
v -31.000000 26.000000 0.000001
v -26.000000 27.000000 0.000000
v -26.000000 25.000000 0.000000
v -25.000000 26.000000 0.000000
v -27.000000 26.000000 0.000001
v -26.000000 31.000000 0.000000
v -26.000000 29.000000 0.000000
v -25.000000 30.000000 0.000000
v -27.000000 30.000000 0.000000
v -30.000000 11.000000 0.000001
v -30.000000 9.000000 0.000002
v -29.000000 10.000000 0.000001
v -31.000000 10.000000 0.000002
v -30.000000 3.000000 0.000002
v -30.000000 1.000000 0.000002
v -29.000000 2.000000 0.000002
v -31.000000 2.000000 0.000002
v -27.000000 2.000000 0.000002
v -30.000000 19.000000 0.000001
v -30.000000 17.000000 0.000001
v -29.000000 18.000000 0.000001
v -31.000000 18.000000 0.000001
v -26.000000 19.000000 0.000001
v -27.000000 18.000000 0.000001
v -26.000000 23.000000 0.000001
v -26.000000 21.000000 0.000001
v -27.000000 22.000000 0.000001
v -30.000000 23.000000 0.000001
v -30.000000 21.000000 0.000001
v -29.000000 22.000000 0.000001
v -31.000000 22.000000 0.000001
v -30.000000 7.000000 0.000002
v -30.000000 5.000000 0.000002
v -29.000000 6.000000 0.000002
v -31.000000 6.000000 0.000002
v -30.000000 15.000000 0.000001
v -30.000000 13.000000 0.000001
v -29.000000 14.000000 0.000001
v -31.000000 14.000000 0.000001
v -30.000000 31.000000 0.000001
v -30.000000 29.000000 0.000001
v -29.000000 30.000000 0.000001
v -31.000000 30.000000 0.000001
v -31.000000 29.000000 0.000001
v -29.000000 29.000000 0.000001
v -29.000000 31.000000 0.000000
v -31.000000 13.000000 0.000001
v -29.000000 13.000000 0.000001
v -29.000000 15.000000 0.000001
v -31.000000 5.000000 0.000002
v -29.000000 5.000000 0.000002
v -29.000000 7.000000 0.000002
v -31.000000 21.000000 0.000001
v -29.000000 21.000000 0.000001
v -29.000000 23.000000 0.000001
v -27.000000 21.000000 0.000001
v -27.000000 17.000000 0.000001
v -31.000000 17.000000 0.000001
v -29.000000 17.000000 0.000001
v -29.000000 19.000000 0.000001
v -27.000000 5.000000 0.000001
v -31.000000 1.000000 0.000002
v -29.000000 1.000000 0.000002
v -29.000000 3.000000 0.000002
v -31.000000 9.000000 0.000002
v -29.000000 9.000000 0.000001
v -29.000000 11.000000 0.000001
v -27.000000 29.000000 0.000000
v -25.000000 29.000000 0.000000
v -25.000000 31.000000 0.000000
v -27.000000 25.000000 0.000001
v -25.000000 25.000000 0.000000
v -25.000000 27.000000 0.000000
v -31.000000 25.000000 0.000001
v -29.000000 25.000000 0.000001
v -29.000000 27.000000 0.000001
v -31.000000 27.000000 0.000001
v -27.000000 27.000000 0.000000
v -27.000000 31.000000 0.000000
v -31.000000 11.000000 0.000002
v -31.000000 3.000000 0.000002
v -27.000000 3.000000 0.000002
v -31.000000 19.000000 0.000001
v -27.000000 19.000000 0.000001
v -27.000000 23.000000 0.000001
v -31.000000 23.000000 0.000001
v -31.000000 7.000000 0.000002
v -31.000000 15.000000 0.000001
v -31.000000 31.000000 0.000001
vn -0.0000 -0.0000 -1.0000
usemtl None
s off
f 210//1 61//1 2//1 101//1
f 209//1 62//1 3//1 102//1
f 208//1 64//1 5//1 103//1
f 207//1 63//1 4//1 104//1
f 206//1 76//1 15//1 96//1
f 205//1 77//1 16//1 107//1
f 204//1 70//1 10//1 108//1
f 203//1 80//1 17//1 111//1
f 202//1 71//1 11//1 112//1
f 201//1 69//1 9//1 114//1
f 200//1 84//1 12//1 93//1
f 199//1 85//1 19//1 117//1
f 198//1 68//1 8//1 118//1
f 197//1 119//1 48//1 87//1
f 196//1 120//1 49//1 121//1
f 195//1 97//1 28//1 122//1
f 194//1 123//1 47//1 86//1
f 193//1 124//1 50//1 125//1
f 192//1 116//1 46//1 126//1
f 191//1 127//1 25//1 65//1
f 190//1 128//1 51//1 129//1
f 189//1 115//1 45//1 130//1
f 188//1 131//1 44//1 83//1
f 187//1 132//1 52//1 133//1
f 186//1 98//1 29//1 134//1
f 185//1 135//1 42//1 81//1
f 184//1 136//1 53//1 137//1
f 183//1 100//1 31//1 138//1
f 181//1 140//1 39//1 78//1
f 180//1 141//1 54//1 142//1
f 179//1 99//1 30//1 143//1
f 178//1 106//1 37//1 145//1
f 177//1 105//1 36//1 148//1
f 176//1 149//1 35//1 75//1
f 175//1 150//1 56//1 151//1
f 174//1 91//1 23//1 152//1
f 173//1 153//1 34//1 74//1
f 172//1 154//1 57//1 155//1
f 171//1 92//1 24//1 156//1
f 170//1 157//1 33//1 73//1
f 169//1 158//1 58//1 159//1
f 168//1 90//1 22//1 160//1
f 167//1 161//1 32//1 72//1
f 166//1 162//1 59//1 163//1
f 165//1 89//1 21//1 164//1
f 162//1 165//1 164//1 59//1
f 48//1 118//1 165//1 162//1
f 118//1 8//1 89//1 165//1
f 115//1 166//1 163//1 45//1
f 19//1 87//1 166//1 115//1
f 87//1 48//1 162//1 166//1
f 84//1 167//1 72//1 12//1
f 45//1 163//1 167//1 84//1
f 163//1 59//1 161//1 167//1
f 158//1 168//1 160//1 58//1
f 44//1 114//1 168//1 158//1
f 114//1 9//1 90//1 168//1
f 113//1 169//1 159//1 43//1
f 18//1 83//1 169//1 113//1
f 83//1 44//1 158//1 169//1
f 82//1 170//1 73//1 13//1
f 43//1 159//1 170//1 82//1
f 159//1 58//1 157//1 170//1
f 154//1 171//1 156//1 57//1
f 42//1 112//1 171//1 154//1
f 112//1 11//1 92//1 171//1
f 109//1 172//1 155//1 40//1
f 17//1 81//1 172//1 109//1
f 81//1 42//1 154//1 172//1
f 79//1 173//1 74//1 14//1
f 40//1 155//1 173//1 79//1
f 155//1 57//1 153//1 173//1
f 150//1 174//1 152//1 56//1
f 39//1 108//1 174//1 150//1
f 108//1 10//1 91//1 174//1
f 105//1 175//1 151//1 36//1
f 16//1 78//1 175//1 105//1
f 78//1 39//1 150//1 175//1
f 76//1 176//1 75//1 15//1
f 36//1 151//1 176//1 76//1
f 151//1 56//1 149//1 176//1
f 147//1 177//1 148//1 55//1
f 38//1 107//1 177//1 147//1
f 107//1 16//1 105//1 177//1
f 94//1 13//1 106//1 178//1
f 141//1 179//1 143//1 54//1
f 33//1 102//1 179//1 141//1
f 102//1 3//1 99//1 179//1
f 106//1 180//1 142//1 37//1
f 13//1 73//1 180//1 106//1
f 73//1 33//1 141//1 180//1
f 77//1 181//1 78//1 16//1
f 37//1 142//1 181//1 77//1
f 142//1 54//1 140//1 181//1
f 111//1 17//1 109//1 182//1
f 136//1 183//1 138//1 53//1
f 20//1 60//1 183//1 136//1
f 60//1 1//1 100//1 183//1
f 110//1 184//1 137//1 41//1
f 7//1 88//1 184//1 110//1
f 88//1 20//1 136//1 184//1
f 80//1 185//1 81//1 17//1
f 41//1 137//1 185//1 80//1
f 137//1 53//1 135//1 185//1
f 132//1 186//1 134//1 52//1
f 34//1 103//1 186//1 132//1
f 103//1 5//1 98//1 186//1
f 74//1 34//1 132//1 187//1
f 133//1 52//1 131//1 188//1
f 128//1 189//1 130//1 51//1
f 47//1 117//1 189//1 128//1
f 117//1 19//1 115//1 189//1
f 95//1 190//1 129//1 26//1
f 86//1 47//1 128//1 190//1
f 66//1 191//1 65//1 6//1
f 26//1 129//1 191//1 66//1
f 129//1 51//1 127//1 191//1
f 124//1 192//1 126//1 50//1
f 27//1 96//1 192//1 124//1
f 96//1 15//1 116//1 192//1
f 67//1 27//1 124//1 193//1
f 125//1 50//1 123//1 194//1
f 120//1 195//1 122//1 49//1
f 35//1 104//1 195//1 120//1
f 104//1 4//1 97//1 195//1
f 116//1 196//1 121//1 46//1
f 15//1 75//1 196//1 116//1
f 75//1 35//1 120//1 196//1
f 85//1 197//1 87//1 19//1
f 46//1 121//1 197//1 85//1
f 121//1 49//1 119//1 197//1
f 119//1 198//1 118//1 48//1
f 49//1 122//1 198//1 119//1
f 122//1 28//1 68//1 198//1
f 123//1 199//1 117//1 47//1
f 50//1 126//1 199//1 123//1
f 126//1 46//1 85//1 199//1
f 127//1 200//1 93//1 25//1
f 51//1 130//1 200//1 127//1
f 130//1 45//1 84//1 200//1
f 131//1 201//1 114//1 44//1
f 52//1 134//1 201//1 131//1
f 134//1 29//1 69//1 201//1
f 135//1 202//1 112//1 42//1
f 53//1 138//1 202//1 135//1
f 138//1 31//1 71//1 202//1
f 139//1 41//1 80//1 203//1
f 140//1 204//1 108//1 39//1
f 54//1 143//1 204//1 140//1
f 143//1 30//1 70//1 204//1
f 144//1 205//1 107//1 38//1
f 145//1 37//1 77//1 205//1
f 146//1 206//1 96//1 27//1
f 55//1 148//1 206//1 146//1
f 148//1 36//1 76//1 206//1
f 149//1 207//1 104//1 35//1
f 56//1 152//1 207//1 149//1
f 152//1 23//1 63//1 207//1
f 153//1 208//1 103//1 34//1
f 57//1 156//1 208//1 153//1
f 156//1 24//1 64//1 208//1
f 157//1 209//1 102//1 33//1
f 58//1 160//1 209//1 157//1
f 160//1 22//1 62//1 209//1
f 161//1 210//1 101//1 32//1
f 59//1 164//1 210//1 161//1
f 164//1 21//1 61//1 210//1
