# Blender v2.79 (sub 0) OBJ File: 'White_Wastes.blend'
# www.blender.org
mtllib WW02 Chunk 0 1.mtl
o 02_Chunk_0_1
v 0.000000 0.000000 -0.000001
v -32.000000 0.000000 0.000002
v -16.000000 0.000000 0.000001
v 0.000000 8.000000 -0.000001
v -24.000000 0.000000 0.000001
v -8.000000 0.000000 0.000000
v -32.000000 8.000000 0.000002
v -16.000000 8.000000 0.000000
v -24.000000 8.000000 0.000001
v -8.000000 8.000000 -0.000000
v 0.000000 4.000000 -0.000001
v -28.000000 0.000000 0.000002
v -12.000000 0.000000 0.000000
v -16.000000 12.000000 0.000000
v -20.000000 0.000000 0.000001
v -4.000000 0.000000 -0.000000
v -32.000000 4.000000 0.000002
v -16.000000 4.000000 0.000001
v -24.000000 4.000000 0.000001
v -20.000000 8.000000 0.000001
v -28.000000 8.000000 0.000001
v -8.000000 4.000000 -0.000000
v -4.000000 8.000000 -0.000001
v -12.000000 8.000000 0.000000
v -12.000000 4.000000 0.000000
v -4.000000 4.000000 -0.000001
v -28.000000 4.000000 0.000002
v -20.000000 4.000000 0.000001
v -20.000000 12.000000 0.000001
v -12.000000 12.000000 -0.000000
v 0.000000 2.000000 -0.000001
v -30.000000 0.000000 0.000002
v -14.000000 0.000000 0.000001
v 0.000000 10.000000 -0.000001
v -22.000000 0.000000 0.000001
v -6.000000 0.000000 -0.000000
v -32.000000 6.000000 0.000002
v -16.000000 6.000000 0.000000
v -24.000000 6.000000 0.000001
v -18.000000 8.000000 0.000001
v -26.000000 8.000000 0.000001
v -8.000000 6.000000 -0.000000
v -2.000000 8.000000 -0.000001
v -10.000000 8.000000 -0.000000
v 0.000000 6.000000 -0.000001
v -26.000000 0.000000 0.000002
v -10.000000 0.000000 0.000000
v -16.000000 10.000000 0.000000
v -18.000000 0.000000 0.000001
v -2.000000 0.000000 -0.000001
v -32.000000 2.000000 0.000002
v -16.000000 2.000000 0.000001
v -24.000000 10.000000 0.000001
v -24.000000 2.000000 0.000001
v -22.000000 8.000000 0.000001
v -30.000000 8.000000 0.000002
v -8.000000 2.000000 -0.000000
v -6.000000 8.000000 -0.000001
v -14.000000 8.000000 0.000000
v -12.000000 6.000000 0.000000
v -12.000000 2.000000 0.000000
v -10.000000 4.000000 0.000000
v -14.000000 4.000000 0.000000
v -4.000000 6.000000 -0.000001
v -4.000000 2.000000 -0.000000
v -2.000000 4.000000 -0.000001
v -6.000000 4.000000 -0.000000
v -28.000000 6.000000 0.000001
v -28.000000 2.000000 0.000002
v -26.000000 4.000000 0.000001
v -30.000000 4.000000 0.000002
v -20.000000 6.000000 0.000001
v -20.000000 2.000000 0.000001
v -18.000000 4.000000 0.000001
v -22.000000 4.000000 0.000001
v -20.000000 10.000000 0.000001
v -18.000000 12.000000 0.000000
v -12.000000 10.000000 -0.000000
v -14.000000 12.000000 0.000000
v -14.000000 10.000000 0.000000
v -10.000000 10.000000 -0.000000
v -22.000000 10.000000 0.000001
v -18.000000 10.000000 0.000000
v -22.000000 2.000000 0.000001
v -18.000000 2.000000 0.000001
v -18.000000 6.000000 0.000001
v -30.000000 2.000000 0.000002
v -26.000000 2.000000 0.000001
v -26.000000 6.000000 0.000001
v -6.000000 2.000000 -0.000000
v -2.000000 2.000000 -0.000001
v -2.000000 6.000000 -0.000001
v -14.000000 2.000000 0.000000
v -10.000000 2.000000 0.000000
v -10.000000 6.000000 -0.000000
v -14.000000 6.000000 0.000000
v -6.000000 6.000000 -0.000000
v -30.000000 6.000000 0.000002
v -22.000000 6.000000 0.000001
v 0.000000 1.000000 -0.000001
v -31.000000 0.000000 0.000002
v -15.000000 0.000000 0.000001
v 0.000000 9.000000 -0.000001
v -23.000000 0.000000 0.000001
v -7.000000 0.000000 -0.000000
v -32.000000 7.000000 0.000002
v -16.000000 7.000000 0.000000
v -24.000000 7.000000 0.000001
v -17.000000 8.000000 0.000000
v -25.000000 8.000000 0.000001
v -8.000000 7.000000 -0.000000
v -1.000000 8.000000 -0.000001
v -9.000000 8.000000 -0.000000
v 0.000000 5.000000 -0.000001
v -27.000000 0.000000 0.000002
v -11.000000 0.000000 0.000000
v -16.000000 11.000000 0.000000
v -19.000000 0.000000 0.000001
v -3.000000 0.000000 -0.000000
v -32.000000 3.000000 0.000002
v -16.000000 3.000000 0.000001
v -24.000000 11.000000 0.000001
v -24.000000 3.000000 0.000001
v -21.000000 8.000000 0.000001
v -29.000000 8.000000 0.000001
v -8.000000 3.000000 -0.000000
v -5.000000 8.000000 -0.000001
v -13.000000 8.000000 0.000000
v -12.000000 7.000000 0.000000
v -12.000000 3.000000 0.000000
v -9.000000 4.000000 -0.000000
v -13.000000 4.000000 0.000000
v -4.000000 7.000000 -0.000001
v -4.000000 3.000000 -0.000000
v -1.000000 4.000000 -0.000001
v -5.000000 4.000000 -0.000000
v -28.000000 7.000000 0.000001
v -28.000000 3.000000 0.000002
v -25.000000 4.000000 0.000001
v -29.000000 4.000000 0.000002
v -20.000000 7.000000 0.000001
v -20.000000 3.000000 0.000001
v -17.000000 4.000000 0.000001
v -21.000000 4.000000 0.000001
v -20.000000 11.000000 0.000001
v -17.000000 12.000000 0.000000
v -21.000000 12.000000 0.000001
v -12.000000 11.000000 -0.000000
v -13.000000 12.000000 -0.000000
v 0.000000 3.000000 -0.000001
v -29.000000 0.000000 0.000002
v -13.000000 0.000000 0.000000
v -16.000000 13.000000 0.000000
v -21.000000 0.000000 0.000001
v -5.000000 0.000000 -0.000000
v -32.000000 5.000000 0.000002
v -16.000000 5.000000 0.000000
v -24.000000 5.000000 0.000001
v -19.000000 8.000000 0.000001
v -27.000000 8.000000 0.000001
v -8.000000 5.000000 -0.000000
v -3.000000 8.000000 -0.000001
v -11.000000 8.000000 -0.000000
v 0.000000 7.000000 -0.000001
v -25.000000 0.000000 0.000001
v -9.000000 0.000000 0.000000
v -16.000000 9.000000 0.000000
v -17.000000 0.000000 0.000001
v -1.000000 0.000000 -0.000001
v -32.000000 1.000000 0.000002
v -16.000000 1.000000 0.000001
v -24.000000 9.000000 0.000001
v -24.000000 1.000000 0.000001
v -23.000000 8.000000 0.000001
v -31.000000 8.000000 0.000002
v -8.000000 9.000000 -0.000000
v -8.000000 1.000000 -0.000000
v -7.000000 8.000000 -0.000000
v -15.000000 8.000000 0.000000
v -12.000000 5.000000 0.000000
v -12.000000 1.000000 0.000000
v -11.000000 4.000000 0.000000
v -15.000000 4.000000 0.000000
v -4.000000 5.000000 -0.000001
v -4.000000 1.000000 -0.000000
v -3.000000 4.000000 -0.000001
v -7.000000 4.000000 -0.000000
v -28.000000 5.000000 0.000002
v -28.000000 1.000000 0.000002
v -27.000000 4.000000 0.000001
v -31.000000 4.000000 0.000002
v -20.000000 5.000000 0.000001
v -20.000000 1.000000 0.000001
v -19.000000 4.000000 0.000001
v -23.000000 4.000000 0.000001
v -20.000000 9.000000 0.000001
v -19.000000 12.000000 0.000000
v -28.000000 9.000000 0.000001
v -12.000000 9.000000 -0.000000
v -15.000000 12.000000 0.000000
v -14.000000 11.000000 0.000000
v -14.000000 9.000000 0.000000
v -13.000000 10.000000 0.000000
v -15.000000 10.000000 0.000000
v -10.000000 9.000000 -0.000000
v -9.000000 10.000000 -0.000000
v -11.000000 10.000000 -0.000000
v -26.000000 9.000000 0.000001
v -25.000000 10.000000 0.000001
v -22.000000 11.000000 0.000001
v -22.000000 9.000000 0.000001
v -21.000000 10.000000 0.000001
v -23.000000 10.000000 0.000001
v -18.000000 11.000000 0.000000
v -18.000000 9.000000 0.000000
v -17.000000 10.000000 0.000000
v -19.000000 10.000000 0.000001
v -18.000000 13.000000 0.000000
v -22.000000 3.000000 0.000001
v -22.000000 1.000000 0.000001
v -21.000000 2.000000 0.000001
v -23.000000 2.000000 0.000001
v -18.000000 3.000000 0.000001
v -18.000000 1.000000 0.000001
v -17.000000 2.000000 0.000001
v -19.000000 2.000000 0.000001
v -18.000000 7.000000 0.000001
v -18.000000 5.000000 0.000001
v -17.000000 6.000000 0.000001
v -19.000000 6.000000 0.000001
v -30.000000 3.000000 0.000002
v -30.000000 1.000000 0.000002
v -29.000000 2.000000 0.000002
v -31.000000 2.000000 0.000002
v -26.000000 3.000000 0.000001
v -26.000000 1.000000 0.000002
v -25.000000 2.000000 0.000001
v -27.000000 2.000000 0.000002
v -26.000000 7.000000 0.000001
v -26.000000 5.000000 0.000001
v -25.000000 6.000000 0.000001
v -27.000000 6.000000 0.000001
v -2.000000 9.000000 -0.000001
v -1.000000 10.000000 -0.000001
v -6.000000 3.000000 -0.000000
v -6.000000 1.000000 -0.000000
v -5.000000 2.000000 -0.000000
v -7.000000 2.000000 -0.000000
v -2.000000 3.000000 -0.000001
v -2.000000 1.000000 -0.000001
v -1.000000 2.000000 -0.000001
v -3.000000 2.000000 -0.000001
v -2.000000 7.000000 -0.000001
v -2.000000 5.000000 -0.000001
v -1.000000 6.000000 -0.000001
v -3.000000 6.000000 -0.000001
v -14.000000 3.000000 0.000000
v -14.000000 1.000000 0.000000
v -13.000000 2.000000 0.000000
v -15.000000 2.000000 0.000001
v -10.000000 3.000000 0.000000
v -10.000000 1.000000 0.000000
v -9.000000 2.000000 0.000000
v -11.000000 2.000000 0.000000
v -10.000000 7.000000 -0.000000
v -10.000000 5.000000 -0.000000
v -9.000000 6.000000 -0.000000
v -11.000000 6.000000 0.000000
v -14.000000 7.000000 0.000000
v -14.000000 5.000000 0.000000
v -13.000000 6.000000 0.000000
v -15.000000 6.000000 0.000000
v -6.000000 7.000000 -0.000000
v -6.000000 5.000000 -0.000000
v -5.000000 6.000000 -0.000001
v -7.000000 6.000000 -0.000000
v -30.000000 7.000000 0.000002
v -30.000000 5.000000 0.000002
v -29.000000 6.000000 0.000002
v -31.000000 6.000000 0.000002
v -22.000000 7.000000 0.000001
v -22.000000 5.000000 0.000001
v -21.000000 6.000000 0.000001
v -23.000000 6.000000 0.000001
v -23.000000 5.000000 0.000001
v -21.000000 5.000000 0.000001
v -21.000000 7.000000 0.000001
v -31.000000 5.000000 0.000002
v -29.000000 5.000000 0.000002
v -29.000000 7.000000 0.000002
v -7.000000 5.000000 -0.000000
v -5.000000 5.000000 -0.000000
v -5.000000 7.000000 -0.000001
v -15.000000 5.000000 0.000000
v -13.000000 5.000000 0.000000
v -13.000000 7.000000 0.000000
v -11.000000 5.000000 0.000000
v -9.000000 5.000000 -0.000000
v -9.000000 7.000000 -0.000000
v -11.000000 1.000000 0.000000
v -9.000000 1.000000 0.000000
v -9.000000 3.000000 -0.000000
v -15.000000 1.000000 0.000001
v -13.000000 1.000000 0.000000
v -13.000000 3.000000 0.000000
v -3.000000 5.000000 -0.000001
v -1.000000 5.000000 -0.000001
v -1.000000 7.000000 -0.000001
v -3.000000 1.000000 -0.000000
v -1.000000 1.000000 -0.000001
v -1.000000 3.000000 -0.000001
v -7.000000 1.000000 -0.000000
v -5.000000 1.000000 -0.000000
v -5.000000 3.000000 -0.000000
v -3.000000 9.000000 -0.000001
v -1.000000 9.000000 -0.000001
v -7.000000 9.000000 -0.000000
v -27.000000 5.000000 0.000001
v -25.000000 5.000000 0.000001
v -25.000000 7.000000 0.000001
v -27.000000 1.000000 0.000002
v -25.000000 1.000000 0.000001
v -25.000000 3.000000 0.000001
v -31.000000 1.000000 0.000002
v -29.000000 1.000000 0.000002
v -29.000000 3.000000 0.000002
v -19.000000 5.000000 0.000001
v -17.000000 5.000000 0.000001
v -17.000000 7.000000 0.000000
v -19.000000 1.000000 0.000001
v -17.000000 1.000000 0.000001
v -17.000000 3.000000 0.000001
v -23.000000 1.000000 0.000001
v -21.000000 1.000000 0.000001
v -21.000000 3.000000 0.000001
v -19.000000 13.000000 0.000000
v -17.000000 13.000000 0.000000
v -19.000000 9.000000 0.000001
v -17.000000 9.000000 0.000000
v -17.000000 11.000000 0.000000
v -23.000000 9.000000 0.000001
v -21.000000 9.000000 0.000001
v -21.000000 11.000000 0.000001
v -27.000000 9.000000 0.000001
v -25.000000 9.000000 0.000001
v -11.000000 9.000000 -0.000000
v -9.000000 9.000000 -0.000000
v -15.000000 9.000000 0.000000
v -13.000000 9.000000 0.000000
v -13.000000 11.000000 -0.000000
v -15.000000 11.000000 0.000000
v -23.000000 11.000000 0.000001
v -19.000000 11.000000 0.000000
v -23.000000 3.000000 0.000001
v -19.000000 3.000000 0.000001
v -19.000000 7.000000 0.000001
v -31.000000 3.000000 0.000002
v -27.000000 3.000000 0.000002
v -27.000000 7.000000 0.000001
v -7.000000 3.000000 -0.000000
v -3.000000 3.000000 -0.000001
v -3.000000 7.000000 -0.000001
v -15.000000 3.000000 0.000000
v -11.000000 3.000000 0.000000
v -11.000000 7.000000 -0.000000
v -15.000000 7.000000 0.000000
v -7.000000 7.000000 -0.000000
v -31.000000 7.000000 0.000002
v -23.000000 7.000000 0.000001
vn -0.0000 -0.0000 -1.0000
usemtl None
s off
f 369//1 108//1 9//1 174//1
f 368//1 106//1 7//1 175//1
f 367//1 111//1 10//1 178//1
f 366//1 107//1 8//1 179//1
f 365//1 129//1 24//1 163//1
f 364//1 130//1 25//1 182//1
f 363//1 121//1 18//1 183//1
f 362//1 133//1 23//1 162//1
f 361//1 134//1 26//1 186//1
f 360//1 126//1 22//1 187//1
f 359//1 137//1 21//1 160//1
f 358//1 138//1 27//1 190//1
f 357//1 120//1 17//1 191//1
f 356//1 141//1 20//1 159//1
f 355//1 142//1 28//1 194//1
f 354//1 123//1 19//1 195//1
f 353//1 145//1 29//1 197//1
f 351//1 117//1 14//1 200//1
f 350//1 201//1 79//1 149//1
f 349//1 202//1 80//1 203//1
f 348//1 167//1 48//1 204//1
f 347//1 205//1 81//1 206//1
f 346//1 199//1 78//1 207//1
f 342//1 211//1 82//1 212//1
f 341//1 172//1 53//1 213//1
f 340//1 214//1 77//1 146//1
f 339//1 215//1 83//1 216//1
f 338//1 196//1 76//1 217//1
f 335//1 219//1 75//1 144//1
f 334//1 220//1 84//1 221//1
f 333//1 173//1 54//1 222//1
f 332//1 223//1 74//1 143//1
f 331//1 224//1 85//1 225//1
f 330//1 193//1 73//1 226//1
f 329//1 227//1 40//1 109//1
f 328//1 228//1 86//1 229//1
f 327//1 192//1 72//1 230//1
f 326//1 231//1 71//1 140//1
f 325//1 232//1 87//1 233//1
f 324//1 170//1 51//1 234//1
f 323//1 235//1 70//1 139//1
f 322//1 236//1 88//1 237//1
f 321//1 189//1 69//1 238//1
f 320//1 239//1 41//1 110//1
f 319//1 240//1 89//1 241//1
f 318//1 188//1 68//1 242//1
f 314//1 245//1 67//1 136//1
f 313//1 246//1 90//1 247//1
f 312//1 177//1 57//1 248//1
f 311//1 249//1 66//1 135//1
f 310//1 250//1 91//1 251//1
f 309//1 185//1 65//1 252//1
f 308//1 253//1 43//1 112//1
f 307//1 254//1 92//1 255//1
f 306//1 184//1 64//1 256//1
f 305//1 257//1 63//1 132//1
f 304//1 258//1 93//1 259//1
f 303//1 171//1 52//1 260//1
f 302//1 261//1 62//1 131//1
f 301//1 262//1 94//1 263//1
f 300//1 181//1 61//1 264//1
f 299//1 265//1 44//1 113//1
f 298//1 266//1 95//1 267//1
f 297//1 180//1 60//1 268//1
f 296//1 269//1 59//1 128//1
f 295//1 270//1 96//1 271//1
f 294//1 157//1 38//1 272//1
f 293//1 273//1 58//1 127//1
f 292//1 274//1 97//1 275//1
f 291//1 161//1 42//1 276//1
f 290//1 277//1 56//1 125//1
f 289//1 278//1 98//1 279//1
f 288//1 156//1 37//1 280//1
f 287//1 281//1 55//1 124//1
f 286//1 282//1 99//1 283//1
f 285//1 158//1 39//1 284//1
f 282//1 285//1 284//1 99//1
f 75//1 195//1 285//1 282//1
f 195//1 19//1 158//1 285//1
f 192//1 286//1 283//1 72//1
f 28//1 144//1 286//1 192//1
f 144//1 75//1 282//1 286//1
f 141//1 287//1 124//1 20//1
f 72//1 283//1 287//1 141//1
f 283//1 99//1 281//1 287//1
f 278//1 288//1 280//1 98//1
f 71//1 191//1 288//1 278//1
f 191//1 17//1 156//1 288//1
f 188//1 289//1 279//1 68//1
f 27//1 140//1 289//1 188//1
f 140//1 71//1 278//1 289//1
f 137//1 290//1 125//1 21//1
f 68//1 279//1 290//1 137//1
f 279//1 98//1 277//1 290//1
f 274//1 291//1 276//1 97//1
f 67//1 187//1 291//1 274//1
f 187//1 22//1 161//1 291//1
f 184//1 292//1 275//1 64//1
f 26//1 136//1 292//1 184//1
f 136//1 67//1 274//1 292//1
f 133//1 293//1 127//1 23//1
f 64//1 275//1 293//1 133//1
f 275//1 97//1 273//1 293//1
f 270//1 294//1 272//1 96//1
f 63//1 183//1 294//1 270//1
f 183//1 18//1 157//1 294//1
f 180//1 295//1 271//1 60//1
f 25//1 132//1 295//1 180//1
f 132//1 63//1 270//1 295//1
f 129//1 296//1 128//1 24//1
f 60//1 271//1 296//1 129//1
f 271//1 96//1 269//1 296//1
f 266//1 297//1 268//1 95//1
f 62//1 182//1 297//1 266//1
f 182//1 25//1 180//1 297//1
f 161//1 298//1 267//1 42//1
f 22//1 131//1 298//1 161//1
f 131//1 62//1 266//1 298//1
f 111//1 299//1 113//1 10//1
f 42//1 267//1 299//1 111//1
f 267//1 95//1 265//1 299//1
f 262//1 300//1 264//1 94//1
f 47//1 116//1 300//1 262//1
f 116//1 13//1 181//1 300//1
f 177//1 301//1 263//1 57//1
f 6//1 166//1 301//1 177//1
f 166//1 47//1 262//1 301//1
f 126//1 302//1 131//1 22//1
f 57//1 263//1 302//1 126//1
f 263//1 94//1 261//1 302//1
f 258//1 303//1 260//1 93//1
f 33//1 102//1 303//1 258//1
f 102//1 3//1 171//1 303//1
f 181//1 304//1 259//1 61//1
f 13//1 152//1 304//1 181//1
f 152//1 33//1 258//1 304//1
f 130//1 305//1 132//1 25//1
f 61//1 259//1 305//1 130//1
f 259//1 93//1 257//1 305//1
f 254//1 306//1 256//1 92//1
f 66//1 186//1 306//1 254//1
f 186//1 26//1 184//1 306//1
f 114//1 307//1 255//1 45//1
f 11//1 135//1 307//1 114//1
f 135//1 66//1 254//1 307//1
f 164//1 308//1 112//1 4//1
f 45//1 255//1 308//1 164//1
f 255//1 92//1 253//1 308//1
f 250//1 309//1 252//1 91//1
f 50//1 119//1 309//1 250//1
f 119//1 16//1 185//1 309//1
f 100//1 310//1 251//1 31//1
f 1//1 169//1 310//1 100//1
f 169//1 50//1 250//1 310//1
f 150//1 311//1 135//1 11//1
f 31//1 251//1 311//1 150//1
f 251//1 91//1 249//1 311//1
f 246//1 312//1 248//1 90//1
f 36//1 105//1 312//1 246//1
f 105//1 6//1 177//1 312//1
f 185//1 313//1 247//1 65//1
f 16//1 155//1 313//1 185//1
f 155//1 36//1 246//1 313//1
f 134//1 314//1 136//1 26//1
f 65//1 247//1 314//1 134//1
f 247//1 90//1 245//1 314//1
f 43//1 162//1 315//1 243//1
f 103//1 316//1 244//1 34//1
f 4//1 112//1 316//1 103//1
f 112//1 43//1 243//1 316//1
f 178//1 10//1 176//1 317//1
f 240//1 318//1 242//1 89//1
f 70//1 190//1 318//1 240//1
f 190//1 27//1 188//1 318//1
f 158//1 319//1 241//1 39//1
f 19//1 139//1 319//1 158//1
f 139//1 70//1 240//1 319//1
f 108//1 320//1 110//1 9//1
f 39//1 241//1 320//1 108//1
f 241//1 89//1 239//1 320//1
f 236//1 321//1 238//1 88//1
f 46//1 115//1 321//1 236//1
f 115//1 12//1 189//1 321//1
f 173//1 322//1 237//1 54//1
f 5//1 165//1 322//1 173//1
f 165//1 46//1 236//1 322//1
f 123//1 323//1 139//1 19//1
f 54//1 237//1 323//1 123//1
f 237//1 88//1 235//1 323//1
f 232//1 324//1 234//1 87//1
f 32//1 101//1 324//1 232//1
f 101//1 2//1 170//1 324//1
f 189//1 325//1 233//1 69//1
f 12//1 151//1 325//1 189//1
f 151//1 32//1 232//1 325//1
f 138//1 326//1 140//1 27//1
f 69//1 233//1 326//1 138//1
f 233//1 87//1 231//1 326//1
f 228//1 327//1 230//1 86//1
f 74//1 194//1 327//1 228//1
f 194//1 28//1 192//1 327//1
f 157//1 328//1 229//1 38//1
f 18//1 143//1 328//1 157//1
f 143//1 74//1 228//1 328//1
f 107//1 329//1 109//1 8//1
f 38//1 229//1 329//1 107//1
f 229//1 86//1 227//1 329//1
f 224//1 330//1 226//1 85//1
f 49//1 118//1 330//1 224//1
f 118//1 15//1 193//1 330//1
f 171//1 331//1 225//1 52//1
f 3//1 168//1 331//1 171//1
f 168//1 49//1 224//1 331//1
f 121//1 332//1 143//1 18//1
f 52//1 225//1 332//1 121//1
f 225//1 85//1 223//1 332//1
f 220//1 333//1 222//1 84//1
f 35//1 104//1 333//1 220//1
f 104//1 5//1 173//1 333//1
f 193//1 334//1 221//1 73//1
f 15//1 154//1 334//1 193//1
f 154//1 35//1 220//1 334//1
f 142//1 335//1 144//1 28//1
f 73//1 221//1 335//1 142//1
f 221//1 84//1 219//1 335//1
f 77//1 197//1 336//1 218//1
f 14//1 146//1 337//1 153//1
f 146//1 77//1 218//1 337//1
f 215//1 338//1 217//1 83//1
f 40//1 159//1 338//1 215//1
f 159//1 20//1 196//1 338//1
f 167//1 339//1 216//1 48//1
f 8//1 109//1 339//1 167//1
f 109//1 40//1 215//1 339//1
f 117//1 340//1 146//1 14//1
f 48//1 216//1 340//1 117//1
f 216//1 83//1 214//1 340//1
f 211//1 341//1 213//1 82//1
f 55//1 174//1 341//1 211//1
f 174//1 9//1 172//1 341//1
f 196//1 342//1 212//1 76//1
f 20//1 124//1 342//1 196//1
f 124//1 55//1 211//1 342//1
f 145//1 343//1 147//1 29//1
f 76//1 212//1 343//1 145//1
f 212//1 82//1 210//1 343//1
f 41//1 160//1 344//1 208//1
f 160//1 21//1 198//1 344//1
f 172//1 345//1 209//1 53//1
f 9//1 110//1 345//1 172//1
f 110//1 41//1 208//1 345//1
f 205//1 346//1 207//1 81//1
f 44//1 163//1 346//1 205//1
f 163//1 24//1 199//1 346//1
f 10//1 113//1 347//1 176//1
f 113//1 44//1 205//1 347//1
f 202//1 348//1 204//1 80//1
f 59//1 179//1 348//1 202//1
f 179//1 8//1 167//1 348//1
f 199//1 349//1 203//1 78//1
f 24//1 128//1 349//1 199//1
f 128//1 59//1 202//1 349//1
f 148//1 350//1 149//1 30//1
f 78//1 203//1 350//1 148//1
f 203//1 80//1 201//1 350//1
f 201//1 351//1 200//1 79//1
f 80//1 204//1 351//1 201//1
f 204//1 48//1 117//1 351//1
f 82//1 213//1 352//1 210//1
f 213//1 53//1 122//1 352//1
f 214//1 353//1 197//1 77//1
f 83//1 217//1 353//1 214//1
f 217//1 76//1 145//1 353//1
f 219//1 354//1 195//1 75//1
f 84//1 222//1 354//1 219//1
f 222//1 54//1 123//1 354//1
f 223//1 355//1 194//1 74//1
f 85//1 226//1 355//1 223//1
f 226//1 73//1 142//1 355//1
f 227//1 356//1 159//1 40//1
f 86//1 230//1 356//1 227//1
f 230//1 72//1 141//1 356//1
f 231//1 357//1 191//1 71//1
f 87//1 234//1 357//1 231//1
f 234//1 51//1 120//1 357//1
f 235//1 358//1 190//1 70//1
f 88//1 238//1 358//1 235//1
f 238//1 69//1 138//1 358//1
f 239//1 359//1 160//1 41//1
f 89//1 242//1 359//1 239//1
f 242//1 68//1 137//1 359//1
f 245//1 360//1 187//1 67//1
f 90//1 248//1 360//1 245//1
f 248//1 57//1 126//1 360//1
f 249//1 361//1 186//1 66//1
f 91//1 252//1 361//1 249//1
f 252//1 65//1 134//1 361//1
f 253//1 362//1 162//1 43//1
f 92//1 256//1 362//1 253//1
f 256//1 64//1 133//1 362//1
f 257//1 363//1 183//1 63//1
f 93//1 260//1 363//1 257//1
f 260//1 52//1 121//1 363//1
f 261//1 364//1 182//1 62//1
f 94//1 264//1 364//1 261//1
f 264//1 61//1 130//1 364//1
f 265//1 365//1 163//1 44//1
f 95//1 268//1 365//1 265//1
f 268//1 60//1 129//1 365//1
f 269//1 366//1 179//1 59//1
f 96//1 272//1 366//1 269//1
f 272//1 38//1 107//1 366//1
f 273//1 367//1 178//1 58//1
f 97//1 276//1 367//1 273//1
f 276//1 42//1 111//1 367//1
f 277//1 368//1 175//1 56//1
f 98//1 280//1 368//1 277//1
f 280//1 37//1 106//1 368//1
f 281//1 369//1 174//1 55//1
f 99//1 284//1 369//1 281//1
f 284//1 39//1 108//1 369//1
