# Blender v2.79 (sub 0) OBJ File: 'White_Wastes.blend'
# www.blender.org
mtllib WW02 Chunk 0 2.mtl
o 02_Chunk_0_2
v 0.000000 0.000000 -0.000001
v -32.000000 0.000000 0.000002
v -16.000000 0.000000 0.000001
v -24.000000 0.000000 0.000001
v -8.000000 0.000000 0.000000
v -32.000000 8.000000 0.000002
v -16.000000 8.000000 0.000000
v -24.000000 8.000000 0.000001
v -8.000000 8.000000 -0.000000
v 0.000000 4.000000 -0.000001
v -28.000000 0.000000 0.000002
v -12.000000 0.000000 0.000000
v -32.000000 12.000000 0.000002
v -16.000000 12.000000 0.000000
v -20.000000 0.000000 0.000001
v -4.000000 0.000000 -0.000000
v -32.000000 4.000000 0.000002
v -16.000000 4.000000 0.000001
v -24.000000 4.000000 0.000001
v -20.000000 8.000000 0.000001
v -28.000000 8.000000 0.000001
v -8.000000 4.000000 -0.000000
v -12.000000 8.000000 0.000000
v -12.000000 4.000000 0.000000
v -4.000000 4.000000 -0.000001
v -28.000000 4.000000 0.000002
v -20.000000 4.000000 0.000001
v 0.000000 2.000000 -0.000001
v -30.000000 0.000000 0.000002
v -14.000000 0.000000 0.000001
v -22.000000 0.000000 0.000001
v -6.000000 0.000000 -0.000000
v -32.000000 6.000000 0.000002
v -16.000000 6.000000 0.000000
v -24.000000 6.000000 0.000001
v -18.000000 8.000000 0.000001
v -26.000000 8.000000 0.000001
v -8.000000 6.000000 -0.000000
v -10.000000 8.000000 -0.000000
v -26.000000 0.000000 0.000002
v -10.000000 0.000000 0.000000
v -32.000000 10.000000 0.000002
v -16.000000 10.000000 0.000000
v -18.000000 0.000000 0.000001
v -2.000000 0.000000 -0.000001
v -32.000000 2.000000 0.000002
v -16.000000 2.000000 0.000001
v -24.000000 2.000000 0.000001
v -22.000000 8.000000 0.000001
v -30.000000 8.000000 0.000002
v -8.000000 2.000000 -0.000000
v -14.000000 8.000000 0.000000
v -12.000000 6.000000 0.000000
v -12.000000 2.000000 0.000000
v -10.000000 4.000000 0.000000
v -14.000000 4.000000 0.000000
v -4.000000 2.000000 -0.000000
v -2.000000 4.000000 -0.000001
v -6.000000 4.000000 -0.000000
v -28.000000 6.000000 0.000001
v -28.000000 2.000000 0.000002
v -26.000000 4.000000 0.000001
v -30.000000 4.000000 0.000002
v -20.000000 6.000000 0.000001
v -20.000000 2.000000 0.000001
v -18.000000 4.000000 0.000001
v -22.000000 4.000000 0.000001
v -20.000000 10.000000 0.000001
v -18.000000 12.000000 0.000000
v -28.000000 10.000000 0.000001
v -30.000000 12.000000 0.000001
v -14.000000 10.000000 0.000000
v -30.000000 10.000000 0.000001
v -26.000000 10.000000 0.000001
v -22.000000 10.000000 0.000001
v -18.000000 10.000000 0.000000
v -22.000000 2.000000 0.000001
v -18.000000 2.000000 0.000001
v -18.000000 6.000000 0.000001
v -30.000000 2.000000 0.000002
v -26.000000 2.000000 0.000001
v -26.000000 6.000000 0.000001
v -6.000000 2.000000 -0.000000
v -2.000000 2.000000 -0.000001
v -14.000000 2.000000 0.000000
v -10.000000 2.000000 0.000000
v -10.000000 6.000000 -0.000000
v -14.000000 6.000000 0.000000
v -30.000000 6.000000 0.000002
v -22.000000 6.000000 0.000001
v 0.000000 1.000000 -0.000001
v -31.000000 0.000000 0.000002
v -15.000000 0.000000 0.000001
v -23.000000 0.000000 0.000001
v -7.000000 0.000000 -0.000000
v -32.000000 7.000000 0.000002
v -16.000000 7.000000 0.000000
v -24.000000 7.000000 0.000001
v -17.000000 8.000000 0.000000
v -25.000000 8.000000 0.000001
v -8.000000 7.000000 -0.000000
v -9.000000 8.000000 -0.000000
v 0.000000 5.000000 -0.000001
v -27.000000 0.000000 0.000002
v -11.000000 0.000000 0.000000
v -32.000000 11.000000 0.000002
v -16.000000 11.000000 0.000000
v -19.000000 0.000000 0.000001
v -3.000000 0.000000 -0.000000
v -32.000000 3.000000 0.000002
v -16.000000 3.000000 0.000001
v -24.000000 3.000000 0.000001
v -21.000000 8.000000 0.000001
v -29.000000 8.000000 0.000001
v -8.000000 3.000000 -0.000000
v -13.000000 8.000000 0.000000
v -12.000000 7.000000 0.000000
v -12.000000 3.000000 0.000000
v -9.000000 4.000000 -0.000000
v -13.000000 4.000000 0.000000
v -4.000000 3.000000 -0.000000
v -1.000000 4.000000 -0.000001
v -5.000000 4.000000 -0.000000
v -28.000000 7.000000 0.000001
v -28.000000 3.000000 0.000002
v -25.000000 4.000000 0.000001
v -29.000000 4.000000 0.000002
v -20.000000 7.000000 0.000001
v -20.000000 3.000000 0.000001
v -17.000000 4.000000 0.000001
v -21.000000 4.000000 0.000001
v -17.000000 12.000000 0.000000
v -28.000000 11.000000 0.000001
v 0.000000 3.000000 -0.000001
v -29.000000 0.000000 0.000002
v -13.000000 0.000000 0.000000
v -21.000000 0.000000 0.000001
v -5.000000 0.000000 -0.000000
v -32.000000 5.000000 0.000002
v -16.000000 5.000000 0.000000
v -24.000000 5.000000 0.000001
v -19.000000 8.000000 0.000001
v -27.000000 8.000000 0.000001
v -8.000000 5.000000 -0.000000
v -11.000000 8.000000 -0.000000
v -25.000000 0.000000 0.000001
v -9.000000 0.000000 0.000000
v -32.000000 9.000000 0.000002
v -16.000000 9.000000 0.000000
v -17.000000 0.000000 0.000001
v -1.000000 0.000000 -0.000001
v -32.000000 1.000000 0.000002
v -16.000000 1.000000 0.000001
v -24.000000 9.000000 0.000001
v -24.000000 1.000000 0.000001
v -23.000000 8.000000 0.000001
v -31.000000 8.000000 0.000002
v -8.000000 1.000000 -0.000000
v -15.000000 8.000000 0.000000
v -12.000000 5.000000 0.000000
v -12.000000 1.000000 0.000000
v -11.000000 4.000000 0.000000
v -15.000000 4.000000 0.000000
v -4.000000 5.000000 -0.000001
v -4.000000 1.000000 -0.000000
v -3.000000 4.000000 -0.000001
v -7.000000 4.000000 -0.000000
v -28.000000 5.000000 0.000002
v -28.000000 1.000000 0.000002
v -27.000000 4.000000 0.000001
v -31.000000 4.000000 0.000002
v -20.000000 5.000000 0.000001
v -20.000000 1.000000 0.000001
v -19.000000 4.000000 0.000001
v -23.000000 4.000000 0.000001
v -20.000000 9.000000 0.000001
v -28.000000 9.000000 0.000001
v -31.000000 12.000000 0.000001
v -12.000000 9.000000 -0.000000
v -15.000000 12.000000 0.000000
v -14.000000 11.000000 0.000000
v -14.000000 9.000000 0.000000
v -13.000000 10.000000 0.000000
v -15.000000 10.000000 0.000000
v -30.000000 11.000000 0.000001
v -30.000000 9.000000 0.000002
v -29.000000 10.000000 0.000001
v -31.000000 10.000000 0.000002
v -26.000000 9.000000 0.000001
v -25.000000 10.000000 0.000001
v -27.000000 10.000000 0.000001
v -22.000000 9.000000 0.000001
v -21.000000 10.000000 0.000001
v -18.000000 11.000000 0.000000
v -18.000000 9.000000 0.000000
v -17.000000 10.000000 0.000000
v -19.000000 10.000000 0.000001
v -22.000000 3.000000 0.000001
v -22.000000 1.000000 0.000001
v -21.000000 2.000000 0.000001
v -23.000000 2.000000 0.000001
v -18.000000 3.000000 0.000001
v -18.000000 1.000000 0.000001
v -17.000000 2.000000 0.000001
v -19.000000 2.000000 0.000001
v -18.000000 7.000000 0.000001
v -18.000000 5.000000 0.000001
v -17.000000 6.000000 0.000001
v -19.000000 6.000000 0.000001
v -30.000000 3.000000 0.000002
v -30.000000 1.000000 0.000002
v -29.000000 2.000000 0.000002
v -31.000000 2.000000 0.000002
v -26.000000 3.000000 0.000001
v -26.000000 1.000000 0.000002
v -25.000000 2.000000 0.000001
v -27.000000 2.000000 0.000002
v -26.000000 7.000000 0.000001
v -26.000000 5.000000 0.000001
v -25.000000 6.000000 0.000001
v -27.000000 6.000000 0.000001
v -6.000000 3.000000 -0.000000
v -6.000000 1.000000 -0.000000
v -5.000000 2.000000 -0.000000
v -7.000000 2.000000 -0.000000
v -2.000000 3.000000 -0.000001
v -2.000000 1.000000 -0.000001
v -1.000000 2.000000 -0.000001
v -3.000000 2.000000 -0.000001
v -2.000000 5.000000 -0.000001
v -14.000000 3.000000 0.000000
v -14.000000 1.000000 0.000000
v -13.000000 2.000000 0.000000
v -15.000000 2.000000 0.000001
v -10.000000 3.000000 0.000000
v -10.000000 1.000000 0.000000
v -9.000000 2.000000 0.000000
v -11.000000 2.000000 0.000000
v -10.000000 7.000000 -0.000000
v -10.000000 5.000000 -0.000000
v -9.000000 6.000000 -0.000000
v -11.000000 6.000000 0.000000
v -14.000000 7.000000 0.000000
v -14.000000 5.000000 0.000000
v -13.000000 6.000000 0.000000
v -15.000000 6.000000 0.000000
v -6.000000 5.000000 -0.000000
v -30.000000 7.000000 0.000002
v -30.000000 5.000000 0.000002
v -29.000000 6.000000 0.000002
v -31.000000 6.000000 0.000002
v -22.000000 7.000000 0.000001
v -22.000000 5.000000 0.000001
v -21.000000 6.000000 0.000001
v -23.000000 6.000000 0.000001
v -23.000000 5.000000 0.000001
v -21.000000 5.000000 0.000001
v -21.000000 7.000000 0.000001
v -31.000000 5.000000 0.000002
v -29.000000 5.000000 0.000002
v -29.000000 7.000000 0.000002
v -7.000000 5.000000 -0.000000
v -5.000000 5.000000 -0.000000
v -15.000000 5.000000 0.000000
v -13.000000 5.000000 0.000000
v -13.000000 7.000000 0.000000
v -11.000000 5.000000 0.000000
v -9.000000 5.000000 -0.000000
v -9.000000 7.000000 -0.000000
v -11.000000 1.000000 0.000000
v -9.000000 1.000000 0.000000
v -9.000000 3.000000 -0.000000
v -15.000000 1.000000 0.000001
v -13.000000 1.000000 0.000000
v -13.000000 3.000000 0.000000
v -3.000000 5.000000 -0.000001
v -1.000000 5.000000 -0.000001
v -3.000000 1.000000 -0.000000
v -1.000000 1.000000 -0.000001
v -1.000000 3.000000 -0.000001
v -7.000000 1.000000 -0.000000
v -5.000000 1.000000 -0.000000
v -5.000000 3.000000 -0.000000
v -27.000000 5.000000 0.000001
v -25.000000 5.000000 0.000001
v -25.000000 7.000000 0.000001
v -27.000000 1.000000 0.000002
v -25.000000 1.000000 0.000001
v -25.000000 3.000000 0.000001
v -31.000000 1.000000 0.000002
v -29.000000 1.000000 0.000002
v -29.000000 3.000000 0.000002
v -19.000000 5.000000 0.000001
v -17.000000 5.000000 0.000001
v -17.000000 7.000000 0.000000
v -19.000000 1.000000 0.000001
v -17.000000 1.000000 0.000001
v -17.000000 3.000000 0.000001
v -23.000000 1.000000 0.000001
v -21.000000 1.000000 0.000001
v -21.000000 3.000000 0.000001
v -19.000000 9.000000 0.000001
v -17.000000 9.000000 0.000000
v -17.000000 11.000000 0.000000
v -23.000000 9.000000 0.000001
v -21.000000 9.000000 0.000001
v -27.000000 9.000000 0.000001
v -25.000000 9.000000 0.000001
v -31.000000 9.000000 0.000002
v -29.000000 9.000000 0.000001
v -29.000000 11.000000 0.000001
v -11.000000 9.000000 -0.000000
v -15.000000 9.000000 0.000000
v -13.000000 9.000000 0.000000
v -15.000000 11.000000 0.000000
v -31.000000 11.000000 0.000002
v -27.000000 11.000000 0.000001
v -19.000000 11.000000 0.000000
v -23.000000 3.000000 0.000001
v -19.000000 3.000000 0.000001
v -19.000000 7.000000 0.000001
v -31.000000 3.000000 0.000002
v -27.000000 3.000000 0.000002
v -27.000000 7.000000 0.000001
v -7.000000 3.000000 -0.000000
v -3.000000 3.000000 -0.000001
v -15.000000 3.000000 0.000000
v -11.000000 3.000000 0.000000
v -11.000000 7.000000 -0.000000
v -15.000000 7.000000 0.000000
v -31.000000 7.000000 0.000002
v -23.000000 7.000000 0.000001
vn -0.0000 -0.0000 -1.0000
usemtl None
s off
f 332//1 98//1 8//1 156//1
f 331//1 96//1 6//1 157//1
f 330//1 97//1 7//1 159//1
f 329//1 117//1 23//1 145//1
f 328//1 118//1 24//1 162//1
f 327//1 111//1 18//1 163//1
f 326//1 121//1 25//1 166//1
f 325//1 115//1 22//1 167//1
f 324//1 124//1 21//1 143//1
f 323//1 125//1 26//1 170//1
f 322//1 110//1 17//1 171//1
f 321//1 128//1 20//1 142//1
f 320//1 129//1 27//1 174//1
f 319//1 112//1 19//1 175//1
f 316//1 106//1 13//1 178//1
f 315//1 107//1 14//1 180//1
f 314//1 182//1 72//1 183//1
f 313//1 149//1 43//1 184//1
f 310//1 186//1 73//1 187//1
f 309//1 148//1 42//1 188//1
f 308//1 189//1 74//1 190//1
f 307//1 177//1 70//1 191//1
f 306//1 192//1 75//1 193//1
f 304//1 194//1 69//1 132//1
f 303//1 195//1 76//1 196//1
f 302//1 176//1 68//1 197//1
f 301//1 198//1 67//1 131//1
f 300//1 199//1 77//1 200//1
f 299//1 155//1 48//1 201//1
f 298//1 202//1 66//1 130//1
f 297//1 203//1 78//1 204//1
f 296//1 173//1 65//1 205//1
f 295//1 206//1 36//1 99//1
f 294//1 207//1 79//1 208//1
f 293//1 172//1 64//1 209//1
f 292//1 210//1 63//1 127//1
f 291//1 211//1 80//1 212//1
f 290//1 152//1 46//1 213//1
f 289//1 214//1 62//1 126//1
f 288//1 215//1 81//1 216//1
f 287//1 169//1 61//1 217//1
f 286//1 218//1 37//1 100//1
f 285//1 219//1 82//1 220//1
f 284//1 168//1 60//1 221//1
f 283//1 222//1 59//1 123//1
f 282//1 223//1 83//1 224//1
f 281//1 158//1 51//1 225//1
f 280//1 226//1 58//1 122//1
f 279//1 227//1 84//1 228//1
f 278//1 165//1 57//1 229//1
f 275//1 231//1 56//1 120//1
f 274//1 232//1 85//1 233//1
f 273//1 153//1 47//1 234//1
f 272//1 235//1 55//1 119//1
f 271//1 236//1 86//1 237//1
f 270//1 161//1 54//1 238//1
f 269//1 239//1 39//1 102//1
f 268//1 240//1 87//1 241//1
f 267//1 160//1 53//1 242//1
f 266//1 243//1 52//1 116//1
f 265//1 244//1 88//1 245//1
f 264//1 140//1 34//1 246//1
f 261//1 248//1 50//1 114//1
f 260//1 249//1 89//1 250//1
f 259//1 139//1 33//1 251//1
f 258//1 252//1 49//1 113//1
f 257//1 253//1 90//1 254//1
f 256//1 141//1 35//1 255//1
f 253//1 256//1 255//1 90//1
f 67//1 175//1 256//1 253//1
f 175//1 19//1 141//1 256//1
f 172//1 257//1 254//1 64//1
f 27//1 131//1 257//1 172//1
f 131//1 67//1 253//1 257//1
f 128//1 258//1 113//1 20//1
f 64//1 254//1 258//1 128//1
f 254//1 90//1 252//1 258//1
f 249//1 259//1 251//1 89//1
f 63//1 171//1 259//1 249//1
f 171//1 17//1 139//1 259//1
f 168//1 260//1 250//1 60//1
f 26//1 127//1 260//1 168//1
f 127//1 63//1 249//1 260//1
f 124//1 261//1 114//1 21//1
f 60//1 250//1 261//1 124//1
f 250//1 89//1 248//1 261//1
f 59//1 167//1 262//1 247//1
f 167//1 22//1 144//1 262//1
f 25//1 123//1 263//1 164//1
f 123//1 59//1 247//1 263//1
f 244//1 264//1 246//1 88//1
f 56//1 163//1 264//1 244//1
f 163//1 18//1 140//1 264//1
f 160//1 265//1 245//1 53//1
f 24//1 120//1 265//1 160//1
f 120//1 56//1 244//1 265//1
f 117//1 266//1 116//1 23//1
f 53//1 245//1 266//1 117//1
f 245//1 88//1 243//1 266//1
f 240//1 267//1 242//1 87//1
f 55//1 162//1 267//1 240//1
f 162//1 24//1 160//1 267//1
f 144//1 268//1 241//1 38//1
f 22//1 119//1 268//1 144//1
f 119//1 55//1 240//1 268//1
f 101//1 269//1 102//1 9//1
f 38//1 241//1 269//1 101//1
f 241//1 87//1 239//1 269//1
f 236//1 270//1 238//1 86//1
f 41//1 105//1 270//1 236//1
f 105//1 12//1 161//1 270//1
f 158//1 271//1 237//1 51//1
f 5//1 147//1 271//1 158//1
f 147//1 41//1 236//1 271//1
f 115//1 272//1 119//1 22//1
f 51//1 237//1 272//1 115//1
f 237//1 86//1 235//1 272//1
f 232//1 273//1 234//1 85//1
f 30//1 93//1 273//1 232//1
f 93//1 3//1 153//1 273//1
f 161//1 274//1 233//1 54//1
f 12//1 136//1 274//1 161//1
f 136//1 30//1 232//1 274//1
f 118//1 275//1 120//1 24//1
f 54//1 233//1 275//1 118//1
f 233//1 85//1 231//1 275//1
f 58//1 166//1 276//1 230//1
f 166//1 25//1 164//1 276//1
f 10//1 122//1 277//1 103//1
f 122//1 58//1 230//1 277//1
f 227//1 278//1 229//1 84//1
f 45//1 109//1 278//1 227//1
f 109//1 16//1 165//1 278//1
f 91//1 279//1 228//1 28//1
f 1//1 151//1 279//1 91//1
f 151//1 45//1 227//1 279//1
f 134//1 280//1 122//1 10//1
f 28//1 228//1 280//1 134//1
f 228//1 84//1 226//1 280//1
f 223//1 281//1 225//1 83//1
f 32//1 95//1 281//1 223//1
f 95//1 5//1 158//1 281//1
f 165//1 282//1 224//1 57//1
f 16//1 138//1 282//1 165//1
f 138//1 32//1 223//1 282//1
f 121//1 283//1 123//1 25//1
f 57//1 224//1 283//1 121//1
f 224//1 83//1 222//1 283//1
f 219//1 284//1 221//1 82//1
f 62//1 170//1 284//1 219//1
f 170//1 26//1 168//1 284//1
f 141//1 285//1 220//1 35//1
f 19//1 126//1 285//1 141//1
f 126//1 62//1 219//1 285//1
f 98//1 286//1 100//1 8//1
f 35//1 220//1 286//1 98//1
f 220//1 82//1 218//1 286//1
f 215//1 287//1 217//1 81//1
f 40//1 104//1 287//1 215//1
f 104//1 11//1 169//1 287//1
f 155//1 288//1 216//1 48//1
f 4//1 146//1 288//1 155//1
f 146//1 40//1 215//1 288//1
f 112//1 289//1 126//1 19//1
f 48//1 216//1 289//1 112//1
f 216//1 81//1 214//1 289//1
f 211//1 290//1 213//1 80//1
f 29//1 92//1 290//1 211//1
f 92//1 2//1 152//1 290//1
f 169//1 291//1 212//1 61//1
f 11//1 135//1 291//1 169//1
f 135//1 29//1 211//1 291//1
f 125//1 292//1 127//1 26//1
f 61//1 212//1 292//1 125//1
f 212//1 80//1 210//1 292//1
f 207//1 293//1 209//1 79//1
f 66//1 174//1 293//1 207//1
f 174//1 27//1 172//1 293//1
f 140//1 294//1 208//1 34//1
f 18//1 130//1 294//1 140//1
f 130//1 66//1 207//1 294//1
f 97//1 295//1 99//1 7//1
f 34//1 208//1 295//1 97//1
f 208//1 79//1 206//1 295//1
f 203//1 296//1 205//1 78//1
f 44//1 108//1 296//1 203//1
f 108//1 15//1 173//1 296//1
f 153//1 297//1 204//1 47//1
f 3//1 150//1 297//1 153//1
f 150//1 44//1 203//1 297//1
f 111//1 298//1 130//1 18//1
f 47//1 204//1 298//1 111//1
f 204//1 78//1 202//1 298//1
f 199//1 299//1 201//1 77//1
f 31//1 94//1 299//1 199//1
f 94//1 4//1 155//1 299//1
f 173//1 300//1 200//1 65//1
f 15//1 137//1 300//1 173//1
f 137//1 31//1 199//1 300//1
f 129//1 301//1 131//1 27//1
f 65//1 200//1 301//1 129//1
f 200//1 77//1 198//1 301//1
f 195//1 302//1 197//1 76//1
f 36//1 142//1 302//1 195//1
f 142//1 20//1 176//1 302//1
f 149//1 303//1 196//1 43//1
f 7//1 99//1 303//1 149//1
f 99//1 36//1 195//1 303//1
f 107//1 304//1 132//1 14//1
f 43//1 196//1 304//1 107//1
f 196//1 76//1 194//1 304//1
f 49//1 156//1 305//1 192//1
f 156//1 8//1 154//1 305//1
f 176//1 306//1 193//1 68//1
f 20//1 113//1 306//1 176//1
f 113//1 49//1 192//1 306//1
f 189//1 307//1 191//1 74//1
f 37//1 143//1 307//1 189//1
f 143//1 21//1 177//1 307//1
f 8//1 100//1 308//1 154//1
f 100//1 37//1 189//1 308//1
f 186//1 309//1 188//1 73//1
f 50//1 157//1 309//1 186//1
f 157//1 6//1 148//1 309//1
f 177//1 310//1 187//1 70//1
f 21//1 114//1 310//1 177//1
f 114//1 50//1 186//1 310//1
f 70//1 187//1 311//1 133//1
f 187//1 73//1 185//1 311//1
f 145//1 23//1 179//1 312//1
f 182//1 313//1 184//1 72//1
f 52//1 159//1 313//1 182//1
f 159//1 7//1 149//1 313//1
f 23//1 116//1 314//1 179//1
f 116//1 52//1 182//1 314//1
f 72//1 184//1 315//1 181//1
f 184//1 43//1 107//1 315//1
f 185//1 316//1 178//1 71//1
f 73//1 188//1 316//1 185//1
f 188//1 42//1 106//1 316//1
f 191//1 70//1 133//1 317//1
f 76//1 197//1 318//1 194//1
f 198//1 319//1 175//1 67//1
f 77//1 201//1 319//1 198//1
f 201//1 48//1 112//1 319//1
f 202//1 320//1 174//1 66//1
f 78//1 205//1 320//1 202//1
f 205//1 65//1 129//1 320//1
f 206//1 321//1 142//1 36//1
f 79//1 209//1 321//1 206//1
f 209//1 64//1 128//1 321//1
f 210//1 322//1 171//1 63//1
f 80//1 213//1 322//1 210//1
f 213//1 46//1 110//1 322//1
f 214//1 323//1 170//1 62//1
f 81//1 217//1 323//1 214//1
f 217//1 61//1 125//1 323//1
f 218//1 324//1 143//1 37//1
f 82//1 221//1 324//1 218//1
f 221//1 60//1 124//1 324//1
f 222//1 325//1 167//1 59//1
f 83//1 225//1 325//1 222//1
f 225//1 51//1 115//1 325//1
f 226//1 326//1 166//1 58//1
f 84//1 229//1 326//1 226//1
f 229//1 57//1 121//1 326//1
f 231//1 327//1 163//1 56//1
f 85//1 234//1 327//1 231//1
f 234//1 47//1 111//1 327//1
f 235//1 328//1 162//1 55//1
f 86//1 238//1 328//1 235//1
f 238//1 54//1 118//1 328//1
f 239//1 329//1 145//1 39//1
f 87//1 242//1 329//1 239//1
f 242//1 53//1 117//1 329//1
f 243//1 330//1 159//1 52//1
f 88//1 246//1 330//1 243//1
f 246//1 34//1 97//1 330//1
f 248//1 331//1 157//1 50//1
f 89//1 251//1 331//1 248//1
f 251//1 33//1 96//1 331//1
f 252//1 332//1 156//1 49//1
f 90//1 255//1 332//1 252//1
f 255//1 35//1 98//1 332//1
