# Blender v2.79 (sub 0) OBJ File: 'White_Wastes.blend'
# www.blender.org
mtllib WW02 Chunk 1 0.mtl
o 02_Chunk_1_0
v 0.000000 0.000000 -0.000001
v 0.000000 32.000000 -0.000002
v 0.000000 16.000000 -0.000001
v 0.000000 8.000000 -0.000001
v -8.000000 32.000000 -0.000001
v 0.000000 24.000000 -0.000002
v -8.000000 16.000000 -0.000001
v -8.000000 24.000000 -0.000001
v 0.000000 4.000000 -0.000001
v -4.000000 32.000000 -0.000002
v 0.000000 20.000000 -0.000002
v -4.000000 16.000000 -0.000001
v 0.000000 12.000000 -0.000001
v 0.000000 28.000000 -0.000002
v -4.000000 0.000000 -0.000000
v -8.000000 12.000000 -0.000001
v -4.000000 8.000000 -0.000001
v -8.000000 28.000000 -0.000001
v -8.000000 20.000000 -0.000001
v -4.000000 24.000000 -0.000001
v -4.000000 20.000000 -0.000001
v -4.000000 28.000000 -0.000002
v -4.000000 4.000000 -0.000001
v -4.000000 12.000000 -0.000001
v 0.000000 2.000000 -0.000001
v -2.000000 32.000000 -0.000002
v 0.000000 18.000000 -0.000001
v -2.000000 16.000000 -0.000001
v 0.000000 10.000000 -0.000001
v -10.000000 32.000000 -0.000001
v 0.000000 26.000000 -0.000002
v -6.000000 0.000000 -0.000000
v -8.000000 14.000000 -0.000001
v -2.000000 8.000000 -0.000001
v -8.000000 30.000000 -0.000001
v -8.000000 22.000000 -0.000001
v -2.000000 24.000000 -0.000002
v -10.000000 24.000000 -0.000001
v 0.000000 6.000000 -0.000001
v -6.000000 32.000000 -0.000002
v 0.000000 22.000000 -0.000002
v -6.000000 16.000000 -0.000001
v 0.000000 14.000000 -0.000001
v 0.000000 30.000000 -0.000002
v -2.000000 0.000000 -0.000001
v -6.000000 8.000000 -0.000001
v -8.000000 26.000000 -0.000001
v -8.000000 18.000000 -0.000001
v -6.000000 24.000000 -0.000001
v -4.000000 22.000000 -0.000001
v -4.000000 18.000000 -0.000001
v -2.000000 20.000000 -0.000001
v -6.000000 20.000000 -0.000001
v -4.000000 30.000000 -0.000002
v -4.000000 26.000000 -0.000001
v -2.000000 28.000000 -0.000002
v -6.000000 28.000000 -0.000001
v -4.000000 6.000000 -0.000001
v -4.000000 2.000000 -0.000000
v -2.000000 4.000000 -0.000001
v -4.000000 14.000000 -0.000001
v -4.000000 10.000000 -0.000001
v -2.000000 12.000000 -0.000001
v -6.000000 12.000000 -0.000001
v -10.000000 28.000000 -0.000001
v -10.000000 26.000000 -0.000001
v -10.000000 30.000000 -0.000001
v -6.000000 10.000000 -0.000001
v -2.000000 10.000000 -0.000001
v -2.000000 14.000000 -0.000001
v -6.000000 2.000000 -0.000000
v -2.000000 2.000000 -0.000001
v -2.000000 6.000000 -0.000001
v -6.000000 26.000000 -0.000001
v -2.000000 26.000000 -0.000002
v -2.000000 30.000000 -0.000002
v -6.000000 18.000000 -0.000001
v -2.000000 18.000000 -0.000001
v -2.000000 22.000000 -0.000001
v -10.000000 22.000000 -0.000001
v -6.000000 22.000000 -0.000001
v -6.000000 30.000000 -0.000001
v -6.000000 14.000000 -0.000001
v 0.000000 1.000000 -0.000001
v -1.000000 32.000000 -0.000002
v 0.000000 17.000000 -0.000001
v -1.000000 16.000000 -0.000001
v 0.000000 9.000000 -0.000001
v -9.000000 32.000000 -0.000001
v 0.000000 25.000000 -0.000002
v -7.000000 0.000000 -0.000000
v -8.000000 15.000000 -0.000001
v -1.000000 8.000000 -0.000001
v -8.000000 31.000000 -0.000001
v -8.000000 23.000000 -0.000001
v -1.000000 24.000000 -0.000002
v -9.000000 24.000000 -0.000001
v 0.000000 5.000000 -0.000001
v -5.000000 32.000000 -0.000002
v 0.000000 21.000000 -0.000002
v -5.000000 16.000000 -0.000001
v 0.000000 13.000000 -0.000001
v 0.000000 29.000000 -0.000002
v -3.000000 0.000000 -0.000000
v -5.000000 8.000000 -0.000001
v -8.000000 27.000000 -0.000001
v -8.000000 19.000000 -0.000001
v -5.000000 24.000000 -0.000001
v -9.000000 20.000000 -0.000001
v -4.000000 23.000000 -0.000001
v -4.000000 19.000000 -0.000001
v -1.000000 20.000000 -0.000001
v -5.000000 20.000000 -0.000001
v -4.000000 31.000000 -0.000002
v -4.000000 27.000000 -0.000002
v -1.000000 28.000000 -0.000002
v -5.000000 28.000000 -0.000001
v -4.000000 7.000000 -0.000001
v -4.000000 3.000000 -0.000000
v -1.000000 4.000000 -0.000001
v -5.000000 4.000000 -0.000000
v -4.000000 15.000000 -0.000001
v -4.000000 11.000000 -0.000001
v -1.000000 12.000000 -0.000001
v -5.000000 12.000000 -0.000001
v -9.000000 28.000000 -0.000001
v 0.000000 3.000000 -0.000001
v -3.000000 32.000000 -0.000002
v 0.000000 19.000000 -0.000002
v -3.000000 16.000000 -0.000001
v 0.000000 11.000000 -0.000001
v -11.000000 32.000000 -0.000001
v 0.000000 27.000000 -0.000002
v -5.000000 0.000000 -0.000000
v -8.000000 13.000000 -0.000001
v -3.000000 8.000000 -0.000001
v -8.000000 29.000000 -0.000001
v -8.000000 21.000000 -0.000001
v -3.000000 24.000000 -0.000001
v 0.000000 7.000000 -0.000001
v -7.000000 32.000000 -0.000001
v 0.000000 23.000000 -0.000002
v -7.000000 16.000000 -0.000001
v 0.000000 15.000000 -0.000001
v 0.000000 31.000000 -0.000002
v -1.000000 0.000000 -0.000001
v -8.000000 25.000000 -0.000001
v -8.000000 17.000000 -0.000001
v -7.000000 24.000000 -0.000001
v -4.000000 21.000000 -0.000001
v -4.000000 17.000000 -0.000001
v -3.000000 20.000000 -0.000001
v -7.000000 20.000000 -0.000001
v -4.000000 29.000000 -0.000002
v -4.000000 25.000000 -0.000001
v -3.000000 28.000000 -0.000002
v -7.000000 28.000000 -0.000001
v -4.000000 5.000000 -0.000001
v -4.000000 1.000000 -0.000000
v -3.000000 4.000000 -0.000001
v -4.000000 13.000000 -0.000001
v -4.000000 9.000000 -0.000001
v -3.000000 12.000000 -0.000001
v -7.000000 12.000000 -0.000001
v -11.000000 28.000000 -0.000001
v -10.000000 27.000000 -0.000001
v -10.000000 25.000000 -0.000001
v -9.000000 26.000000 -0.000001
v -10.000000 31.000000 -0.000001
v -10.000000 29.000000 -0.000001
v -9.000000 30.000000 -0.000001
v -11.000000 30.000000 -0.000001
v -6.000000 11.000000 -0.000001
v -6.000000 9.000000 -0.000001
v -5.000000 10.000000 -0.000001
v -7.000000 10.000000 -0.000001
v -2.000000 11.000000 -0.000001
v -2.000000 9.000000 -0.000001
v -1.000000 10.000000 -0.000001
v -3.000000 10.000000 -0.000001
v -2.000000 15.000000 -0.000001
v -2.000000 13.000000 -0.000001
v -1.000000 14.000000 -0.000001
v -3.000000 14.000000 -0.000001
v -6.000000 3.000000 -0.000000
v -6.000000 1.000000 -0.000000
v -5.000000 2.000000 -0.000000
v -2.000000 3.000000 -0.000001
v -2.000000 1.000000 -0.000001
v -1.000000 2.000000 -0.000001
v -3.000000 2.000000 -0.000001
v -2.000000 7.000000 -0.000001
v -2.000000 5.000000 -0.000001
v -1.000000 6.000000 -0.000001
v -3.000000 6.000000 -0.000001
v -6.000000 27.000000 -0.000001
v -6.000000 25.000000 -0.000001
v -5.000000 26.000000 -0.000001
v -7.000000 26.000000 -0.000001
v -2.000000 27.000000 -0.000002
v -2.000000 25.000000 -0.000002
v -1.000000 26.000000 -0.000002
v -3.000000 26.000000 -0.000002
v -2.000000 31.000000 -0.000002
v -2.000000 29.000000 -0.000002
v -1.000000 30.000000 -0.000002
v -3.000000 30.000000 -0.000002
v -6.000000 19.000000 -0.000001
v -6.000000 17.000000 -0.000001
v -5.000000 18.000000 -0.000001
v -7.000000 18.000000 -0.000001
v -2.000000 19.000000 -0.000001
v -2.000000 17.000000 -0.000001
v -1.000000 18.000000 -0.000001
v -3.000000 18.000000 -0.000001
v -2.000000 23.000000 -0.000002
v -2.000000 21.000000 -0.000001
v -1.000000 22.000000 -0.000002
v -3.000000 22.000000 -0.000001
v -9.000000 18.000000 -0.000001
v -10.000000 23.000000 -0.000001
v -10.000000 21.000000 -0.000001
v -9.000000 22.000000 -0.000001
v -6.000000 23.000000 -0.000001
v -6.000000 21.000000 -0.000001
v -5.000000 22.000000 -0.000001
v -7.000000 22.000000 -0.000001
v -6.000000 31.000000 -0.000002
v -6.000000 29.000000 -0.000001
v -5.000000 30.000000 -0.000002
v -7.000000 30.000000 -0.000001
v -5.000000 6.000000 -0.000001
v -6.000000 15.000000 -0.000001
v -6.000000 13.000000 -0.000001
v -5.000000 14.000000 -0.000001
v -7.000000 14.000000 -0.000001
v -7.000000 13.000000 -0.000001
v -5.000000 13.000000 -0.000001
v -5.000000 15.000000 -0.000001
v -5.000000 5.000000 -0.000000
v -5.000000 7.000000 -0.000001
v -7.000000 29.000000 -0.000001
v -5.000000 29.000000 -0.000002
v -5.000000 31.000000 -0.000002
v -7.000000 21.000000 -0.000001
v -5.000000 21.000000 -0.000001
v -5.000000 23.000000 -0.000001
v -9.000000 21.000000 -0.000001
v -9.000000 23.000000 -0.000001
v -9.000000 17.000000 -0.000001
v -9.000000 19.000000 -0.000001
v -3.000000 21.000000 -0.000001
v -1.000000 21.000000 -0.000002
v -1.000000 23.000000 -0.000002
v -3.000000 17.000000 -0.000001
v -1.000000 17.000000 -0.000001
v -1.000000 19.000000 -0.000001
v -7.000000 17.000000 -0.000001
v -5.000000 17.000000 -0.000001
v -5.000000 19.000000 -0.000001
v -3.000000 29.000000 -0.000002
v -1.000000 29.000000 -0.000002
v -1.000000 31.000000 -0.000002
v -3.000000 25.000000 -0.000002
v -1.000000 25.000000 -0.000002
v -1.000000 27.000000 -0.000002
v -7.000000 25.000000 -0.000001
v -5.000000 25.000000 -0.000001
v -5.000000 27.000000 -0.000001
v -3.000000 5.000000 -0.000001
v -1.000000 5.000000 -0.000001
v -1.000000 7.000000 -0.000001
v -3.000000 1.000000 -0.000000
v -1.000000 1.000000 -0.000001
v -1.000000 3.000000 -0.000001
v -7.000000 1.000000 -0.000000
v -5.000000 1.000000 -0.000000
v -5.000000 3.000000 -0.000000
v -3.000000 13.000000 -0.000001
v -1.000000 13.000000 -0.000001
v -1.000000 15.000000 -0.000001
v -3.000000 9.000000 -0.000001
v -1.000000 9.000000 -0.000001
v -1.000000 11.000000 -0.000001
v -7.000000 9.000000 -0.000000
v -5.000000 9.000000 -0.000001
v -5.000000 11.000000 -0.000001
v -11.000000 29.000000 -0.000001
v -9.000000 29.000000 -0.000001
v -9.000000 31.000000 -0.000001
v -9.000000 25.000000 -0.000001
v -9.000000 27.000000 -0.000001
v -11.000000 27.000000 -0.000001
v -11.000000 31.000000 -0.000001
v -7.000000 11.000000 -0.000001
v -3.000000 11.000000 -0.000001
v -3.000000 15.000000 -0.000001
v -3.000000 3.000000 -0.000001
v -3.000000 7.000000 -0.000001
v -7.000000 27.000000 -0.000001
v -3.000000 27.000000 -0.000002
v -3.000000 31.000000 -0.000002
v -7.000000 19.000000 -0.000001
v -3.000000 19.000000 -0.000001
v -3.000000 23.000000 -0.000001
v -7.000000 23.000000 -0.000001
v -7.000000 31.000000 -0.000001
v -7.000000 15.000000 -0.000001
vn -0.0000 -0.0000 -1.0000
usemtl None
s off
f 308//1 92//1 7//1 143//1
f 307//1 94//1 5//1 141//1
f 306//1 95//1 8//1 149//1
f 305//1 110//1 20//1 139//1
f 304//1 111//1 21//1 152//1
f 303//1 107//1 19//1 153//1
f 302//1 114//1 10//1 128//1
f 301//1 115//1 22//1 156//1
f 300//1 106//1 18//1 157//1
f 299//1 118//1 17//1 136//1
f 298//1 119//1 23//1 160//1
f 297//1 122//1 12//1 130//1
f 296//1 123//1 24//1 163//1
f 292//1 166//1 65//1 126//1
f 291//1 167//1 66//1 168//1
f 290//1 169//1 30//1 89//1
f 289//1 170//1 67//1 171//1
f 287//1 173//1 64//1 125//1
f 286//1 174//1 68//1 175//1
f 284//1 177//1 63//1 124//1
f 283//1 178//1 69//1 179//1
f 282//1 162//1 62//1 180//1
f 281//1 181//1 28//1 87//1
f 280//1 182//1 70//1 183//1
f 279//1 161//1 61//1 184//1
f 277//1 186//1 71//1 187//1
f 275//1 188//1 60//1 120//1
f 274//1 189//1 72//1 190//1
f 273//1 159//1 59//1 191//1
f 272//1 192//1 34//1 93//1
f 271//1 193//1 73//1 194//1
f 270//1 158//1 58//1 195//1
f 269//1 196//1 57//1 117//1
f 268//1 197//1 74//1 198//1
f 267//1 147//1 47//1 199//1
f 266//1 200//1 56//1 116//1
f 265//1 201//1 75//1 202//1
f 264//1 155//1 55//1 203//1
f 263//1 204//1 26//1 85//1
f 262//1 205//1 76//1 206//1
f 261//1 154//1 54//1 207//1
f 260//1 208//1 53//1 113//1
f 259//1 209//1 77//1 210//1
f 258//1 148//1 48//1 211//1
f 257//1 212//1 52//1 112//1
f 256//1 213//1 78//1 214//1
f 255//1 151//1 51//1 215//1
f 254//1 216//1 37//1 96//1
f 253//1 217//1 79//1 218//1
f 252//1 150//1 50//1 219//1
f 249//1 221//1 38//1 97//1
f 248//1 222//1 80//1 223//1
f 247//1 224//1 49//1 108//1
f 246//1 225//1 81//1 226//1
f 245//1 138//1 36//1 227//1
f 244//1 228//1 40//1 99//1
f 243//1 229//1 82//1 230//1
f 242//1 137//1 35//1 231//1
f 239//1 233//1 42//1 101//1
f 238//1 234//1 83//1 235//1
f 237//1 135//1 33//1 236//1
f 234//1 237//1 236//1 83//1
f 64//1 164//1 237//1 234//1
f 164//1 16//1 135//1 237//1
f 161//1 238//1 235//1 61//1
f 24//1 125//1 238//1 161//1
f 125//1 64//1 234//1 238//1
f 122//1 239//1 101//1 12//1
f 61//1 235//1 239//1 122//1
f 235//1 83//1 233//1 239//1
f 158//1 240//1 232//1 58//1
f 23//1 121//1 240//1 158//1
f 118//1 241//1 105//1 17//1
f 58//1 232//1 241//1 118//1
f 229//1 242//1 231//1 82//1
f 57//1 157//1 242//1 229//1
f 157//1 18//1 137//1 242//1
f 154//1 243//1 230//1 54//1
f 22//1 117//1 243//1 154//1
f 117//1 57//1 229//1 243//1
f 114//1 244//1 99//1 10//1
f 54//1 230//1 244//1 114//1
f 230//1 82//1 228//1 244//1
f 225//1 245//1 227//1 81//1
f 53//1 153//1 245//1 225//1
f 153//1 19//1 138//1 245//1
f 150//1 246//1 226//1 50//1
f 21//1 113//1 246//1 150//1
f 113//1 53//1 225//1 246//1
f 110//1 247//1 108//1 20//1
f 50//1 226//1 247//1 110//1
f 226//1 81//1 224//1 247//1
f 138//1 248//1 223//1 36//1
f 19//1 109//1 248//1 138//1
f 95//1 249//1 97//1 8//1
f 36//1 223//1 249//1 95//1
f 223//1 80//1 221//1 249//1
f 148//1 250//1 220//1 48//1
f 107//1 251//1 109//1 19//1
f 48//1 220//1 251//1 107//1
f 217//1 252//1 219//1 79//1
f 52//1 152//1 252//1 217//1
f 152//1 21//1 150//1 252//1
f 100//1 253//1 218//1 41//1
f 11//1 112//1 253//1 100//1
f 112//1 52//1 217//1 253//1
f 142//1 254//1 96//1 6//1
f 41//1 218//1 254//1 142//1
f 218//1 79//1 216//1 254//1
f 213//1 255//1 215//1 78//1
f 28//1 130//1 255//1 213//1
f 130//1 12//1 151//1 255//1
f 86//1 256//1 214//1 27//1
f 3//1 87//1 256//1 86//1
f 87//1 28//1 213//1 256//1
f 129//1 257//1 112//1 11//1
f 27//1 214//1 257//1 129//1
f 214//1 78//1 212//1 257//1
f 209//1 258//1 211//1 77//1
f 42//1 143//1 258//1 209//1
f 143//1 7//1 148//1 258//1
f 151//1 259//1 210//1 51//1
f 12//1 101//1 259//1 151//1
f 101//1 42//1 209//1 259//1
f 111//1 260//1 113//1 21//1
f 51//1 210//1 260//1 111//1
f 210//1 77//1 208//1 260//1
f 205//1 261//1 207//1 76//1
f 56//1 156//1 261//1 205//1
f 156//1 22//1 154//1 261//1
f 103//1 262//1 206//1 44//1
f 14//1 116//1 262//1 103//1
f 116//1 56//1 205//1 262//1
f 145//1 263//1 85//1 2//1
f 44//1 206//1 263//1 145//1
f 206//1 76//1 204//1 263//1
f 201//1 264//1 203//1 75//1
f 37//1 139//1 264//1 201//1
f 139//1 20//1 155//1 264//1
f 90//1 265//1 202//1 31//1
f 6//1 96//1 265//1 90//1
f 96//1 37//1 201//1 265//1
f 133//1 266//1 116//1 14//1
f 31//1 202//1 266//1 133//1
f 202//1 75//1 200//1 266//1
f 197//1 267//1 199//1 74//1
f 49//1 149//1 267//1 197//1
f 149//1 8//1 147//1 267//1
f 155//1 268//1 198//1 55//1
f 20//1 108//1 268//1 155//1
f 108//1 49//1 197//1 268//1
f 115//1 269//1 117//1 22//1
f 55//1 198//1 269//1 115//1
f 198//1 74//1 196//1 269//1
f 193//1 270//1 195//1 73//1
f 60//1 160//1 270//1 193//1
f 160//1 23//1 158//1 270//1
f 98//1 271//1 194//1 39//1
f 9//1 120//1 271//1 98//1
f 120//1 60//1 193//1 271//1
f 140//1 272//1 93//1 4//1
f 39//1 194//1 272//1 140//1
f 194//1 73//1 192//1 272//1
f 189//1 273//1 191//1 72//1
f 45//1 104//1 273//1 189//1
f 104//1 15//1 159//1 273//1
f 84//1 274//1 190//1 25//1
f 1//1 146//1 274//1 84//1
f 146//1 45//1 189//1 274//1
f 127//1 275//1 120//1 9//1
f 25//1 190//1 275//1 127//1
f 190//1 72//1 188//1 275//1
f 32//1 91//1 276//1 186//1
f 159//1 277//1 187//1 59//1
f 15//1 134//1 277//1 159//1
f 134//1 32//1 186//1 277//1
f 119//1 278//1 121//1 23//1
f 59//1 187//1 278//1 119//1
f 187//1 71//1 185//1 278//1
f 182//1 279//1 184//1 70//1
f 63//1 163//1 279//1 182//1
f 163//1 24//1 161//1 279//1
f 102//1 280//1 183//1 43//1
f 13//1 124//1 280//1 102//1
f 124//1 63//1 182//1 280//1
f 144//1 281//1 87//1 3//1
f 43//1 183//1 281//1 144//1
f 183//1 70//1 181//1 281//1
f 178//1 282//1 180//1 69//1
f 34//1 136//1 282//1 178//1
f 136//1 17//1 162//1 282//1
f 88//1 283//1 179//1 29//1
f 4//1 93//1 283//1 88//1
f 93//1 34//1 178//1 283//1
f 131//1 284//1 124//1 13//1
f 29//1 179//1 284//1 131//1
f 179//1 69//1 177//1 284//1
f 174//1 285//1 176//1 68//1
f 162//1 286//1 175//1 62//1
f 17//1 105//1 286//1 162//1
f 105//1 46//1 174//1 286//1
f 123//1 287//1 125//1 24//1
f 62//1 175//1 287//1 123//1
f 175//1 68//1 173//1 287//1
f 170//1 288//1 172//1 67//1
f 65//1 165//1 288//1 170//1
f 137//1 289//1 171//1 35//1
f 18//1 126//1 289//1 137//1
f 126//1 65//1 170//1 289//1
f 94//1 290//1 89//1 5//1
f 35//1 171//1 290//1 94//1
f 171//1 67//1 169//1 290//1
f 147//1 291//1 168//1 47//1
f 8//1 97//1 291//1 147//1
f 97//1 38//1 167//1 291//1
f 106//1 292//1 126//1 18//1
f 47//1 168//1 292//1 106//1
f 168//1 66//1 166//1 292//1
f 166//1 293//1 165//1 65//1
f 169//1 294//1 132//1 30//1
f 67//1 172//1 294//1 169//1
f 173//1 295//1 164//1 64//1
f 68//1 176//1 295//1 173//1
f 177//1 296//1 163//1 63//1
f 69//1 180//1 296//1 177//1
f 180//1 62//1 123//1 296//1
f 181//1 297//1 130//1 28//1
f 70//1 184//1 297//1 181//1
f 184//1 61//1 122//1 297//1
f 188//1 298//1 160//1 60//1
f 72//1 191//1 298//1 188//1
f 191//1 59//1 119//1 298//1
f 192//1 299//1 136//1 34//1
f 73//1 195//1 299//1 192//1
f 195//1 58//1 118//1 299//1
f 196//1 300//1 157//1 57//1
f 74//1 199//1 300//1 196//1
f 199//1 47//1 106//1 300//1
f 200//1 301//1 156//1 56//1
f 75//1 203//1 301//1 200//1
f 203//1 55//1 115//1 301//1
f 204//1 302//1 128//1 26//1
f 76//1 207//1 302//1 204//1
f 207//1 54//1 114//1 302//1
f 208//1 303//1 153//1 53//1
f 77//1 211//1 303//1 208//1
f 211//1 48//1 107//1 303//1
f 212//1 304//1 152//1 52//1
f 78//1 215//1 304//1 212//1
f 215//1 51//1 111//1 304//1
f 216//1 305//1 139//1 37//1
f 79//1 219//1 305//1 216//1
f 219//1 50//1 110//1 305//1
f 224//1 306//1 149//1 49//1
f 81//1 227//1 306//1 224//1
f 227//1 36//1 95//1 306//1
f 228//1 307//1 141//1 40//1
f 82//1 231//1 307//1 228//1
f 231//1 35//1 94//1 307//1
f 233//1 308//1 143//1 42//1
f 83//1 236//1 308//1 233//1
f 236//1 33//1 92//1 308//1
