# Blender v2.79 (sub 0) OBJ File: 'Test_of_Teamwork.blend'
# www.blender.org
o O_Chunk_0_1_02_Chunk_0_1.001
g O_Chunk_0_1_02_Chunk_0_1.001
v 0.000000 16.000000 -0.000001
v -16.000000 32.000000 -0.000001
v -16.000000 16.000000 0.000000
v -8.000000 32.000000 -0.000001
v 0.000000 24.000000 -0.000002
v -16.000000 24.000000 -0.000000
v -8.000000 16.000000 -0.000001
v -8.000000 24.000000 -0.000001
v 0.000000 20.000000 -0.000002
v -16.000000 28.000000 -0.000001
v -4.000000 16.000000 -0.000001
v -12.000000 32.000000 -0.000001
v -16.000000 20.000000 -0.000000
v -12.000000 16.000000 -0.000000
v -8.000000 28.000000 -0.000001
v -8.000000 20.000000 -0.000001
v -4.000000 24.000000 -0.000001
v -12.000000 24.000000 -0.000001
v -12.000000 20.000000 -0.000001
v -4.000000 20.000000 -0.000001
v -12.000000 28.000000 -0.000001
v 0.000000 18.000000 -0.000001
v -16.000000 30.000000 -0.000001
v -2.000000 16.000000 -0.000001
v -10.000000 32.000000 -0.000001
v -16.000000 22.000000 -0.000000
v -10.000000 16.000000 -0.000001
v -8.000000 30.000000 -0.000001
v -8.000000 22.000000 -0.000001
v -2.000000 24.000000 -0.000002
v -10.000000 24.000000 -0.000001
v 0.000000 22.000000 -0.000002
v -16.000000 26.000000 -0.000000
v -6.000000 16.000000 -0.000001
v -14.000000 32.000000 -0.000001
v -16.000000 18.000000 -0.000000
v -14.000000 16.000000 -0.000000
v -8.000000 26.000000 -0.000001
v -8.000000 18.000000 -0.000001
v -6.000000 24.000000 -0.000001
v -14.000000 24.000000 -0.000001
v -12.000000 22.000000 -0.000001
v -12.000000 18.000000 -0.000000
v -10.000000 20.000000 -0.000001
v -14.000000 20.000000 -0.000000
v -4.000000 22.000000 -0.000001
v -4.000000 18.000000 -0.000001
v -2.000000 20.000000 -0.000001
v -6.000000 20.000000 -0.000001
v -12.000000 30.000000 -0.000001
v -12.000000 26.000000 -0.000001
v -10.000000 28.000000 -0.000001
v -14.000000 28.000000 -0.000001
v -14.000000 26.000000 -0.000001
v -10.000000 26.000000 -0.000001
v -10.000000 30.000000 -0.000001
v -6.000000 18.000000 -0.000001
v -2.000000 18.000000 -0.000001
v -2.000000 22.000000 -0.000001
v -14.000000 18.000000 -0.000000
v -10.000000 18.000000 -0.000001
v -10.000000 22.000000 -0.000001
v -14.000000 22.000000 -0.000000
v -6.000000 22.000000 -0.000001
v -14.000000 30.000000 -0.000001
v 0.000000 17.000000 -0.000001
v -16.000000 31.000000 -0.000001
v -1.000000 16.000000 -0.000001
v -9.000000 32.000000 -0.000001
v -16.000000 23.000000 -0.000000
v -9.000000 16.000000 -0.000001
v -8.000000 31.000000 -0.000001
v -8.000000 23.000000 -0.000001
v -1.000000 24.000000 -0.000002
v -9.000000 24.000000 -0.000001
v 0.000000 21.000000 -0.000002
v -16.000000 27.000000 -0.000000
v -5.000000 16.000000 -0.000001
v -13.000000 32.000000 -0.000001
v -16.000000 19.000000 -0.000000
v -13.000000 16.000000 -0.000000
v -8.000000 27.000000 -0.000001
v -8.000000 19.000000 -0.000001
v -5.000000 24.000000 -0.000001
v -13.000000 24.000000 -0.000001
v -12.000000 23.000000 -0.000001
v -12.000000 19.000000 -0.000000
v -9.000000 20.000000 -0.000001
v -13.000000 20.000000 -0.000000
v -4.000000 23.000000 -0.000001
v -4.000000 19.000000 -0.000001
v -1.000000 20.000000 -0.000001
v -5.000000 20.000000 -0.000001
v -12.000000 31.000000 -0.000001
v -12.000000 27.000000 -0.000001
v -9.000000 28.000000 -0.000001
v -13.000000 28.000000 -0.000001
v 0.000000 19.000000 -0.000002
v -16.000000 29.000000 -0.000001
v -3.000000 16.000000 -0.000001
v -11.000000 32.000000 -0.000001
v -16.000000 21.000000 -0.000000
v -11.000000 16.000000 -0.000000
v -8.000000 29.000000 -0.000001
v -8.000000 21.000000 -0.000001
v -3.000000 24.000000 -0.000001
v -11.000000 24.000000 -0.000001
v 0.000000 23.000000 -0.000002
v -16.000000 25.000000 -0.000000
v -7.000000 16.000000 -0.000001
v -15.000000 32.000000 -0.000001
v -16.000000 17.000000 -0.000000
v -15.000000 16.000000 -0.000000
v -8.000000 25.000000 -0.000001
v -8.000000 17.000000 -0.000001
v -7.000000 24.000000 -0.000001
v -15.000000 24.000000 -0.000000
v -12.000000 21.000000 -0.000001
v -12.000000 17.000000 -0.000000
v -11.000000 20.000000 -0.000001
v -15.000000 20.000000 -0.000000
v -4.000000 21.000000 -0.000001
v -4.000000 17.000000 -0.000001
v -3.000000 20.000000 -0.000001
v -7.000000 20.000000 -0.000001
v -12.000000 29.000000 -0.000001
v -12.000000 25.000000 -0.000001
v -11.000000 28.000000 -0.000001
v -15.000000 28.000000 -0.000001
v -14.000000 27.000000 -0.000001
v -14.000000 25.000000 -0.000001
v -13.000000 26.000000 -0.000001
v -15.000000 26.000000 -0.000001
v -10.000000 27.000000 -0.000001
v -10.000000 25.000000 -0.000001
v -9.000000 26.000000 -0.000001
v -11.000000 26.000000 -0.000001
v -10.000000 31.000000 -0.000001
v -10.000000 29.000000 -0.000001
v -9.000000 30.000000 -0.000001
v -11.000000 30.000000 -0.000001
v -6.000000 19.000000 -0.000001
v -6.000000 17.000000 -0.000001
v -5.000000 18.000000 -0.000001
v -7.000000 18.000000 -0.000001
v -2.000000 19.000000 -0.000001
v -2.000000 17.000000 -0.000001
v -1.000000 18.000000 -0.000001
v -3.000000 18.000000 -0.000001
v -2.000000 23.000000 -0.000002
v -2.000000 21.000000 -0.000001
v -1.000000 22.000000 -0.000002
v -3.000000 22.000000 -0.000001
v -14.000000 19.000000 -0.000000
v -14.000000 17.000000 -0.000000
v -13.000000 18.000000 -0.000000
v -15.000000 18.000000 -0.000000
v -10.000000 19.000000 -0.000001
v -10.000000 17.000000 -0.000001
v -9.000000 18.000000 -0.000001
v -11.000000 18.000000 -0.000001
v -10.000000 23.000000 -0.000001
v -10.000000 21.000000 -0.000001
v -9.000000 22.000000 -0.000001
v -11.000000 22.000000 -0.000001
v -14.000000 23.000000 -0.000000
v -14.000000 21.000000 -0.000000
v -13.000000 22.000000 -0.000001
v -15.000000 22.000000 -0.000000
v -6.000000 23.000000 -0.000001
v -6.000000 21.000000 -0.000001
v -5.000000 22.000000 -0.000001
v -7.000000 22.000000 -0.000001
v -14.000000 31.000000 -0.000001
v -14.000000 29.000000 -0.000001
v -13.000000 30.000000 -0.000001
v -15.000000 30.000000 -0.000001
v -15.000000 29.000000 -0.000001
v -13.000000 29.000000 -0.000001
v -13.000000 31.000000 -0.000001
v -7.000000 21.000000 -0.000001
v -5.000000 21.000000 -0.000001
v -5.000000 23.000000 -0.000001
v -15.000000 21.000000 -0.000000
v -13.000000 21.000000 -0.000000
v -13.000000 23.000000 -0.000001
v -11.000000 21.000000 -0.000001
v -9.000000 21.000000 -0.000001
v -9.000000 23.000000 -0.000001
v -11.000000 17.000000 -0.000000
v -9.000000 17.000000 -0.000001
v -9.000000 19.000000 -0.000001
v -15.000000 17.000000 -0.000000
v -13.000000 17.000000 -0.000000
v -13.000000 19.000000 -0.000000
v -3.000000 21.000000 -0.000001
v -1.000000 21.000000 -0.000002
v -1.000000 23.000000 -0.000002
v -3.000000 17.000000 -0.000001
v -1.000000 17.000000 -0.000001
v -1.000000 19.000000 -0.000001
v -7.000000 17.000000 -0.000001
v -5.000000 17.000000 -0.000001
v -5.000000 19.000000 -0.000001
v -11.000000 29.000000 -0.000001
v -9.000000 29.000000 -0.000001
v -9.000000 31.000000 -0.000001
v -11.000000 25.000000 -0.000001
v -9.000000 25.000000 -0.000001
v -9.000000 27.000000 -0.000001
v -15.000000 25.000000 -0.000000
v -13.000000 25.000000 -0.000001
v -13.000000 27.000000 -0.000001
v -15.000000 27.000000 -0.000001
v -11.000000 27.000000 -0.000001
v -11.000000 31.000000 -0.000001
v -7.000000 19.000000 -0.000001
v -3.000000 19.000000 -0.000001
v -3.000000 23.000000 -0.000001
v -15.000000 19.000000 -0.000000
v -11.000000 19.000000 -0.000001
v -11.000000 23.000000 -0.000001
v -15.000000 23.000000 -0.000000
v -7.000000 23.000000 -0.000001
v -15.000000 31.000000 -0.000001
vn -0.0000 -0.0000 -1.0000
s off
f 225//1 67//1 2//1 111//1
f 224//1 73//1 8//1 116//1
f 223//1 70//1 6//1 117//1
f 222//1 86//1 18//1 107//1
f 221//1 87//1 19//1 120//1
f 220//1 80//1 13//1 121//1
f 219//1 90//1 17//1 106//1
f 218//1 91//1 20//1 124//1
f 217//1 83//1 16//1 125//1
f 216//1 94//1 12//1 101//1
f 215//1 95//1 21//1 128//1
f 214//1 77//1 10//1 129//1
f 213//1 130//1 53//1 97//1
f 212//1 131//1 54//1 132//1
f 211//1 109//1 33//1 133//1
f 210//1 134//1 52//1 96//1
f 209//1 135//1 55//1 136//1
f 208//1 127//1 51//1 137//1
f 207//1 138//1 25//1 69//1
f 206//1 139//1 56//1 140//1
f 205//1 126//1 50//1 141//1
f 204//1 142//1 49//1 93//1
f 203//1 143//1 57//1 144//1
f 202//1 115//1 39//1 145//1
f 201//1 146//1 48//1 92//1
f 200//1 147//1 58//1 148//1
f 199//1 123//1 47//1 149//1
f 198//1 150//1 30//1 74//1
f 197//1 151//1 59//1 152//1
f 196//1 122//1 46//1 153//1
f 195//1 154//1 45//1 89//1
f 194//1 155//1 60//1 156//1
f 193//1 112//1 36//1 157//1
f 192//1 158//1 44//1 88//1
f 191//1 159//1 61//1 160//1
f 190//1 119//1 43//1 161//1
f 189//1 162//1 31//1 75//1
f 188//1 163//1 62//1 164//1
f 187//1 118//1 42//1 165//1
f 186//1 166//1 41//1 85//1
f 185//1 167//1 63//1 168//1
f 184//1 102//1 26//1 169//1
f 183//1 170//1 40//1 84//1
f 182//1 171//1 64//1 172//1
f 181//1 105//1 29//1 173//1
f 180//1 174//1 35//1 79//1
f 179//1 175//1 65//1 176//1
f 178//1 99//1 23//1 177//1
f 175//1 178//1 177//1 65//1
f 53//1 129//1 178//1 175//1
f 129//1 10//1 99//1 178//1
f 126//1 179//1 176//1 50//1
f 21//1 97//1 179//1 126//1
f 97//1 53//1 175//1 179//1
f 94//1 180//1 79//1 12//1
f 50//1 176//1 180//1 94//1
f 176//1 65//1 174//1 180//1
f 171//1 181//1 173//1 64//1
f 49//1 125//1 181//1 171//1
f 125//1 16//1 105//1 181//1
f 122//1 182//1 172//1 46//1
f 20//1 93//1 182//1 122//1
f 93//1 49//1 171//1 182//1
f 90//1 183//1 84//1 17//1
f 46//1 172//1 183//1 90//1
f 172//1 64//1 170//1 183//1
f 167//1 184//1 169//1 63//1
f 45//1 121//1 184//1 167//1
f 121//1 13//1 102//1 184//1
f 118//1 185//1 168//1 42//1
f 19//1 89//1 185//1 118//1
f 89//1 45//1 167//1 185//1
f 86//1 186//1 85//1 18//1
f 42//1 168//1 186//1 86//1
f 168//1 63//1 166//1 186//1
f 163//1 187//1 165//1 62//1
f 44//1 120//1 187//1 163//1
f 120//1 19//1 118//1 187//1
f 105//1 188//1 164//1 29//1
f 16//1 88//1 188//1 105//1
f 88//1 44//1 163//1 188//1
f 73//1 189//1 75//1 8//1
f 29//1 164//1 189//1 73//1
f 164//1 62//1 162//1 189//1
f 159//1 190//1 161//1 61//1
f 27//1 103//1 190//1 159//1
f 103//1 14//1 119//1 190//1
f 115//1 191//1 160//1 39//1
f 7//1 71//1 191//1 115//1
f 71//1 27//1 159//1 191//1
f 83//1 192//1 88//1 16//1
f 39//1 160//1 192//1 83//1
f 160//1 61//1 158//1 192//1
f 155//1 193//1 157//1 60//1
f 37//1 113//1 193//1 155//1
f 113//1 3//1 112//1 193//1
f 119//1 194//1 156//1 43//1
f 14//1 81//1 194//1 119//1
f 81//1 37//1 155//1 194//1
f 87//1 195//1 89//1 19//1
f 43//1 156//1 195//1 87//1
f 156//1 60//1 154//1 195//1
f 151//1 196//1 153//1 59//1
f 48//1 124//1 196//1 151//1
f 124//1 20//1 122//1 196//1
f 76//1 197//1 152//1 32//1
f 9//1 92//1 197//1 76//1
f 92//1 48//1 151//1 197//1
f 108//1 198//1 74//1 5//1
f 32//1 152//1 198//1 108//1
f 152//1 59//1 150//1 198//1
f 147//1 199//1 149//1 58//1
f 24//1 100//1 199//1 147//1
f 100//1 11//1 123//1 199//1
f 66//1 200//1 148//1 22//1
f 1//1 68//1 200//1 66//1
f 68//1 24//1 147//1 200//1
f 98//1 201//1 92//1 9//1
f 22//1 148//1 201//1 98//1
f 148//1 58//1 146//1 201//1
f 143//1 202//1 145//1 57//1
f 34//1 110//1 202//1 143//1
f 110//1 7//1 115//1 202//1
f 123//1 203//1 144//1 47//1
f 11//1 78//1 203//1 123//1
f 78//1 34//1 143//1 203//1
f 91//1 204//1 93//1 20//1
f 47//1 144//1 204//1 91//1
f 144//1 57//1 142//1 204//1
f 139//1 205//1 141//1 56//1
f 52//1 128//1 205//1 139//1
f 128//1 21//1 126//1 205//1
f 104//1 206//1 140//1 28//1
f 15//1 96//1 206//1 104//1
f 96//1 52//1 139//1 206//1
f 72//1 207//1 69//1 4//1
f 28//1 140//1 207//1 72//1
f 140//1 56//1 138//1 207//1
f 135//1 208//1 137//1 55//1
f 31//1 107//1 208//1 135//1
f 107//1 18//1 127//1 208//1
f 114//1 209//1 136//1 38//1
f 8//1 75//1 209//1 114//1
f 75//1 31//1 135//1 209//1
f 82//1 210//1 96//1 15//1
f 38//1 136//1 210//1 82//1
f 136//1 55//1 134//1 210//1
f 131//1 211//1 133//1 54//1
f 41//1 117//1 211//1 131//1
f 117//1 6//1 109//1 211//1
f 127//1 212//1 132//1 51//1
f 18//1 85//1 212//1 127//1
f 85//1 41//1 131//1 212//1
f 95//1 213//1 97//1 21//1
f 51//1 132//1 213//1 95//1
f 132//1 54//1 130//1 213//1
f 130//1 214//1 129//1 53//1
f 54//1 133//1 214//1 130//1
f 133//1 33//1 77//1 214//1
f 134//1 215//1 128//1 52//1
f 55//1 137//1 215//1 134//1
f 137//1 51//1 95//1 215//1
f 138//1 216//1 101//1 25//1
f 56//1 141//1 216//1 138//1
f 141//1 50//1 94//1 216//1
f 142//1 217//1 125//1 49//1
f 57//1 145//1 217//1 142//1
f 145//1 39//1 83//1 217//1
f 146//1 218//1 124//1 48//1
f 58//1 149//1 218//1 146//1
f 149//1 47//1 91//1 218//1
f 150//1 219//1 106//1 30//1
f 59//1 153//1 219//1 150//1
f 153//1 46//1 90//1 219//1
f 154//1 220//1 121//1 45//1
f 60//1 157//1 220//1 154//1
f 157//1 36//1 80//1 220//1
f 158//1 221//1 120//1 44//1
f 61//1 161//1 221//1 158//1
f 161//1 43//1 87//1 221//1
f 162//1 222//1 107//1 31//1
f 62//1 165//1 222//1 162//1
f 165//1 42//1 86//1 222//1
f 166//1 223//1 117//1 41//1
f 63//1 169//1 223//1 166//1
f 169//1 26//1 70//1 223//1
f 170//1 224//1 116//1 40//1
f 64//1 173//1 224//1 170//1
f 173//1 29//1 73//1 224//1
f 174//1 225//1 111//1 35//1
f 65//1 177//1 225//1 174//1
f 177//1 23//1 67//1 225//1
