# Blender v2.79 (sub 0) OBJ File: 'Test_of_Teamwork.blend'
# www.blender.org
o O_Chunk_0_0_02_Chunk_0_0.001
g O_Chunk_0_0_02_Chunk_0_0.001
v 0.000000 32.000000 -0.000002
v 0.000000 16.000000 -0.000001
v -32.000000 16.000000 0.000001
v -16.000000 16.000000 0.000000
v -32.000000 24.000000 0.000001
v -8.000000 32.000000 -0.000001
v 0.000000 24.000000 -0.000002
v -16.000000 24.000000 -0.000000
v -8.000000 16.000000 -0.000001
v -24.000000 16.000000 0.000001
v -8.000000 24.000000 -0.000001
v -24.000000 24.000000 0.000000
v -4.000000 32.000000 -0.000002
v 0.000000 20.000000 -0.000002
v -4.000000 16.000000 -0.000001
v -20.000000 16.000000 0.000000
v -32.000000 20.000000 0.000001
v -16.000000 20.000000 -0.000000
v -12.000000 16.000000 -0.000000
v -28.000000 16.000000 0.000001
v -8.000000 20.000000 -0.000001
v -4.000000 24.000000 -0.000001
v -12.000000 24.000000 -0.000001
v -24.000000 20.000000 0.000001
v -20.000000 24.000000 0.000000
v -28.000000 24.000000 0.000001
v -28.000000 20.000000 0.000001
v -20.000000 20.000000 0.000000
v -12.000000 20.000000 -0.000001
v -4.000000 20.000000 -0.000001
v -2.000000 32.000000 -0.000002
v 0.000000 18.000000 -0.000001
v -2.000000 16.000000 -0.000001
v -18.000000 16.000000 0.000000
v -32.000000 22.000000 0.000001
v -16.000000 22.000000 -0.000000
v -10.000000 16.000000 -0.000001
v -26.000000 16.000000 0.000001
v -8.000000 30.000000 -0.000001
v -8.000000 22.000000 -0.000001
v -2.000000 24.000000 -0.000002
v -10.000000 24.000000 -0.000001
v -24.000000 22.000000 0.000000
v -18.000000 24.000000 -0.000000
v -26.000000 24.000000 0.000001
v -6.000000 32.000000 -0.000002
v 0.000000 22.000000 -0.000002
v -6.000000 16.000000 -0.000001
v -22.000000 16.000000 0.000001
v -32.000000 18.000000 0.000001
v 0.000000 30.000000 -0.000002
v -16.000000 18.000000 -0.000000
v -14.000000 16.000000 -0.000000
v -30.000000 16.000000 0.000001
v -8.000000 18.000000 -0.000001
v -6.000000 24.000000 -0.000001
v -14.000000 24.000000 -0.000001
v -24.000000 18.000000 0.000001
v -22.000000 24.000000 0.000000
v -30.000000 24.000000 0.000001
v -28.000000 22.000000 0.000001
v -28.000000 18.000000 0.000001
v -26.000000 20.000000 0.000001
v -30.000000 20.000000 0.000001
v -20.000000 22.000000 0.000000
v -20.000000 18.000000 0.000000
v -18.000000 20.000000 0.000000
v -22.000000 20.000000 0.000000
v -12.000000 22.000000 -0.000001
v -12.000000 18.000000 -0.000000
v -10.000000 20.000000 -0.000001
v -14.000000 20.000000 -0.000000
v -4.000000 22.000000 -0.000001
v -4.000000 18.000000 -0.000001
v -2.000000 20.000000 -0.000001
v -6.000000 20.000000 -0.000001
v -4.000000 30.000000 -0.000002
v -2.000000 30.000000 -0.000002
v -6.000000 18.000000 -0.000001
v -2.000000 18.000000 -0.000001
v -2.000000 22.000000 -0.000001
v -14.000000 18.000000 -0.000000
v -10.000000 18.000000 -0.000001
v -10.000000 22.000000 -0.000001
v -22.000000 18.000000 0.000000
v -18.000000 18.000000 0.000000
v -18.000000 22.000000 -0.000000
v -30.000000 18.000000 0.000001
v -26.000000 18.000000 0.000001
v -26.000000 22.000000 0.000001
v -30.000000 22.000000 0.000001
v -22.000000 22.000000 0.000000
v -14.000000 22.000000 -0.000000
v -6.000000 22.000000 -0.000001
v -6.000000 30.000000 -0.000001
v -1.000000 32.000000 -0.000002
v 0.000000 17.000000 -0.000001
v -1.000000 16.000000 -0.000001
v -17.000000 16.000000 0.000000
v -32.000000 23.000000 0.000001
v -16.000000 23.000000 -0.000000
v -9.000000 16.000000 -0.000001
v -25.000000 16.000000 0.000001
v -8.000000 31.000000 -0.000001
v -8.000000 23.000000 -0.000001
v -1.000000 24.000000 -0.000002
v -9.000000 24.000000 -0.000001
v -24.000000 23.000000 0.000000
v -17.000000 24.000000 -0.000000
v -25.000000 24.000000 0.000000
v -5.000000 32.000000 -0.000002
v 0.000000 21.000000 -0.000002
v -5.000000 16.000000 -0.000001
v -21.000000 16.000000 0.000000
v -32.000000 19.000000 0.000001
v 0.000000 29.000000 -0.000002
v -16.000000 19.000000 -0.000000
v -13.000000 16.000000 -0.000000
v -29.000000 16.000000 0.000001
v -8.000000 19.000000 -0.000001
v -5.000000 24.000000 -0.000001
v -13.000000 24.000000 -0.000001
v -24.000000 19.000000 0.000001
v -21.000000 24.000000 0.000000
v -29.000000 24.000000 0.000001
v -28.000000 23.000000 0.000001
v -28.000000 19.000000 0.000001
v -25.000000 20.000000 0.000001
v -29.000000 20.000000 0.000001
v -20.000000 23.000000 0.000000
v -20.000000 19.000000 0.000000
v -17.000000 20.000000 -0.000000
v -21.000000 20.000000 0.000000
v -12.000000 23.000000 -0.000001
v -12.000000 19.000000 -0.000000
v -9.000000 20.000000 -0.000001
v -13.000000 20.000000 -0.000000
v -4.000000 23.000000 -0.000001
v -4.000000 19.000000 -0.000001
v -1.000000 20.000000 -0.000001
v -5.000000 20.000000 -0.000001
v -4.000000 31.000000 -0.000002
v -3.000000 32.000000 -0.000002
v 0.000000 19.000000 -0.000002
v -3.000000 16.000000 -0.000001
v -19.000000 16.000000 0.000000
v -32.000000 21.000000 0.000001
v -16.000000 21.000000 -0.000000
v -11.000000 16.000000 -0.000000
v -27.000000 16.000000 0.000001
v -8.000000 29.000000 -0.000001
v -8.000000 21.000000 -0.000001
v -3.000000 24.000000 -0.000001
v -11.000000 24.000000 -0.000001
v -24.000000 21.000000 0.000000
v -19.000000 24.000000 -0.000000
v -27.000000 24.000000 0.000001
v -7.000000 32.000000 -0.000001
v 0.000000 23.000000 -0.000002
v -7.000000 16.000000 -0.000001
v -23.000000 16.000000 0.000001
v -32.000000 17.000000 0.000001
v 0.000000 31.000000 -0.000002
v -16.000000 17.000000 -0.000000
v -15.000000 16.000000 -0.000000
v -31.000000 16.000000 0.000001
v -8.000000 17.000000 -0.000001
v -7.000000 24.000000 -0.000001
v -15.000000 24.000000 -0.000000
v -24.000000 17.000000 0.000001
v -23.000000 24.000000 0.000000
v -31.000000 24.000000 0.000001
v -28.000000 21.000000 0.000001
v -28.000000 17.000000 0.000001
v -27.000000 20.000000 0.000001
v -31.000000 20.000000 0.000001
v -20.000000 21.000000 0.000000
v -20.000000 17.000000 0.000000
v -19.000000 20.000000 0.000000
v -23.000000 20.000000 0.000000
v -12.000000 21.000000 -0.000001
v -12.000000 17.000000 -0.000000
v -11.000000 20.000000 -0.000001
v -15.000000 20.000000 -0.000000
v -4.000000 21.000000 -0.000001
v -4.000000 17.000000 -0.000001
v -3.000000 20.000000 -0.000001
v -7.000000 20.000000 -0.000001
v -4.000000 29.000000 -0.000002
v -2.000000 31.000000 -0.000002
v -2.000000 29.000000 -0.000002
v -1.000000 30.000000 -0.000002
v -3.000000 30.000000 -0.000002
v -6.000000 19.000000 -0.000001
v -6.000000 17.000000 -0.000001
v -5.000000 18.000000 -0.000001
v -7.000000 18.000000 -0.000001
v -2.000000 19.000000 -0.000001
v -2.000000 17.000000 -0.000001
v -1.000000 18.000000 -0.000001
v -3.000000 18.000000 -0.000001
v -2.000000 23.000000 -0.000002
v -2.000000 21.000000 -0.000001
v -1.000000 22.000000 -0.000002
v -3.000000 22.000000 -0.000001
v -14.000000 19.000000 -0.000000
v -14.000000 17.000000 -0.000000
v -13.000000 18.000000 -0.000000
v -15.000000 18.000000 -0.000000
v -10.000000 19.000000 -0.000001
v -10.000000 17.000000 -0.000001
v -9.000000 18.000000 -0.000001
v -11.000000 18.000000 -0.000001
v -10.000000 23.000000 -0.000001
v -10.000000 21.000000 -0.000001
v -9.000000 22.000000 -0.000001
v -11.000000 22.000000 -0.000001
v -22.000000 19.000000 0.000000
v -22.000000 17.000000 0.000000
v -21.000000 18.000000 0.000000
v -23.000000 18.000000 0.000001
v -18.000000 19.000000 0.000000
v -18.000000 17.000000 0.000000
v -17.000000 18.000000 0.000000
v -19.000000 18.000000 0.000000
v -18.000000 23.000000 -0.000000
v -18.000000 21.000000 -0.000000
v -17.000000 22.000000 -0.000000
v -19.000000 22.000000 0.000000
v -30.000000 19.000000 0.000001
v -30.000000 17.000000 0.000001
v -29.000000 18.000000 0.000001
v -31.000000 18.000000 0.000001
v -26.000000 19.000000 0.000001
v -26.000000 17.000000 0.000001
v -25.000000 18.000000 0.000001
v -27.000000 18.000000 0.000001
v -26.000000 23.000000 0.000001
v -26.000000 21.000000 0.000001
v -25.000000 22.000000 0.000001
v -27.000000 22.000000 0.000001
v -30.000000 23.000000 0.000001
v -30.000000 21.000000 0.000001
v -29.000000 22.000000 0.000001
v -31.000000 22.000000 0.000001
v -22.000000 23.000000 0.000000
v -22.000000 21.000000 0.000000
v -21.000000 22.000000 0.000000
v -23.000000 22.000000 0.000000
v -14.000000 23.000000 -0.000000
v -14.000000 21.000000 -0.000000
v -13.000000 22.000000 -0.000001
v -15.000000 22.000000 -0.000000
v -6.000000 23.000000 -0.000001
v -6.000000 21.000000 -0.000001
v -5.000000 22.000000 -0.000001
v -7.000000 22.000000 -0.000001
v -6.000000 31.000000 -0.000002
v -6.000000 29.000000 -0.000001
v -5.000000 30.000000 -0.000002
v -7.000000 30.000000 -0.000001
v -7.000000 29.000000 -0.000001
v -5.000000 29.000000 -0.000002
v -5.000000 31.000000 -0.000002
v -7.000000 21.000000 -0.000001
v -5.000000 21.000000 -0.000001
v -5.000000 23.000000 -0.000001
v -15.000000 21.000000 -0.000000
v -13.000000 21.000000 -0.000000
v -13.000000 23.000000 -0.000001
v -23.000000 21.000000 0.000000
v -21.000000 21.000000 0.000000
v -21.000000 23.000000 0.000000
v -31.000000 21.000000 0.000001
v -29.000000 21.000000 0.000001
v -29.000000 23.000000 0.000001
v -27.000000 21.000000 0.000001
v -25.000000 21.000000 0.000001
v -25.000000 23.000000 0.000000
v -27.000000 17.000000 0.000001
v -25.000000 17.000000 0.000001
v -25.000000 19.000000 0.000001
v -31.000000 17.000000 0.000001
v -29.000000 17.000000 0.000001
v -29.000000 19.000000 0.000001
v -19.000000 21.000000 0.000000
v -17.000000 21.000000 -0.000000
v -17.000000 23.000000 -0.000000
v -19.000000 17.000000 0.000000
v -17.000000 17.000000 0.000000
v -17.000000 19.000000 -0.000000
v -23.000000 17.000000 0.000001
v -21.000000 17.000000 0.000000
v -21.000000 19.000000 0.000000
v -11.000000 21.000000 -0.000001
v -9.000000 21.000000 -0.000001
v -9.000000 23.000000 -0.000001
v -11.000000 17.000000 -0.000000
v -9.000000 17.000000 -0.000001
v -9.000000 19.000000 -0.000001
v -15.000000 17.000000 -0.000000
v -13.000000 17.000000 -0.000000
v -13.000000 19.000000 -0.000000
v -3.000000 21.000000 -0.000001
v -1.000000 21.000000 -0.000002
v -1.000000 23.000000 -0.000002
v -3.000000 17.000000 -0.000001
v -1.000000 17.000000 -0.000001
v -1.000000 19.000000 -0.000001
v -7.000000 17.000000 -0.000001
v -5.000000 17.000000 -0.000001
v -5.000000 19.000000 -0.000001
v -3.000000 29.000000 -0.000002
v -1.000000 29.000000 -0.000002
v -1.000000 31.000000 -0.000002
v -3.000000 31.000000 -0.000002
v -7.000000 19.000000 -0.000001
v -3.000000 19.000000 -0.000001
v -3.000000 23.000000 -0.000001
v -15.000000 19.000000 -0.000000
v -11.000000 19.000000 -0.000001
v -11.000000 23.000000 -0.000001
v -23.000000 19.000000 0.000000
v -19.000000 19.000000 0.000000
v -19.000000 23.000000 -0.000000
v -31.000000 19.000000 0.000001
v -27.000000 19.000000 0.000001
v -27.000000 23.000000 0.000001
v -31.000000 23.000000 0.000001
v -23.000000 23.000000 0.000000
v -15.000000 23.000000 -0.000000
v -7.000000 23.000000 -0.000001
v -7.000000 31.000000 -0.000001
vn -0.0000 -0.0000 -1.0000
s off
f 333//1 104//1 6//1 158//1
f 332//1 105//1 11//1 168//1
f 331//1 101//1 8//1 169//1
f 330//1 108//1 12//1 171//1
f 329//1 100//1 5//1 172//1
f 328//1 126//1 26//1 157//1
f 327//1 127//1 27//1 175//1
f 326//1 115//1 17//1 176//1
f 325//1 130//1 25//1 156//1
f 324//1 131//1 28//1 179//1
f 323//1 123//1 24//1 180//1
f 322//1 134//1 23//1 154//1
f 321//1 135//1 29//1 183//1
f 320//1 117//1 18//1 184//1
f 319//1 138//1 22//1 153//1
f 318//1 139//1 30//1 187//1
f 317//1 120//1 21//1 188//1
f 316//1 142//1 13//1 143//1
f 315//1 190//1 31//1 96//1
f 314//1 191//1 78//1 192//1
f 313//1 189//1 77//1 193//1
f 312//1 194//1 76//1 141//1
f 311//1 195//1 79//1 196//1
f 310//1 167//1 55//1 197//1
f 309//1 198//1 75//1 140//1
f 308//1 199//1 80//1 200//1
f 307//1 186//1 74//1 201//1
f 306//1 202//1 41//1 106//1
f 305//1 203//1 81//1 204//1
f 304//1 185//1 73//1 205//1
f 303//1 206//1 72//1 137//1
f 302//1 207//1 82//1 208//1
f 301//1 164//1 52//1 209//1
f 300//1 210//1 71//1 136//1
f 299//1 211//1 83//1 212//1
f 298//1 182//1 70//1 213//1
f 297//1 214//1 42//1 107//1
f 296//1 215//1 84//1 216//1
f 295//1 181//1 69//1 217//1
f 294//1 218//1 68//1 133//1
f 293//1 219//1 85//1 220//1
f 292//1 170//1 58//1 221//1
f 291//1 222//1 67//1 132//1
f 290//1 223//1 86//1 224//1
f 289//1 178//1 66//1 225//1
f 288//1 226//1 44//1 109//1
f 287//1 227//1 87//1 228//1
f 286//1 177//1 65//1 229//1
f 285//1 230//1 64//1 129//1
f 284//1 231//1 88//1 232//1
f 283//1 162//1 50//1 233//1
f 282//1 234//1 63//1 128//1
f 281//1 235//1 89//1 236//1
f 280//1 174//1 62//1 237//1
f 279//1 238//1 45//1 110//1
f 278//1 239//1 90//1 240//1
f 277//1 173//1 61//1 241//1
f 276//1 242//1 60//1 125//1
f 275//1 243//1 91//1 244//1
f 274//1 147//1 35//1 245//1
f 273//1 246//1 59//1 124//1
f 272//1 247//1 92//1 248//1
f 271//1 155//1 43//1 249//1
f 270//1 250//1 57//1 122//1
f 269//1 251//1 93//1 252//1
f 268//1 148//1 36//1 253//1
f 267//1 254//1 56//1 121//1
f 266//1 255//1 94//1 256//1
f 265//1 152//1 40//1 257//1
f 264//1 258//1 46//1 111//1
f 263//1 259//1 95//1 260//1
f 262//1 151//1 39//1 261//1
f 259//1 262//1 261//1 95//1
f 189//1 263//1 260//1 77//1
f 142//1 264//1 111//1 13//1
f 77//1 260//1 264//1 142//1
f 260//1 95//1 258//1 264//1
f 255//1 265//1 257//1 94//1
f 76//1 188//1 265//1 255//1
f 188//1 21//1 152//1 265//1
f 185//1 266//1 256//1 73//1
f 30//1 141//1 266//1 185//1
f 141//1 76//1 255//1 266//1
f 138//1 267//1 121//1 22//1
f 73//1 256//1 267//1 138//1
f 256//1 94//1 254//1 267//1
f 251//1 268//1 253//1 93//1
f 72//1 184//1 268//1 251//1
f 184//1 18//1 148//1 268//1
f 181//1 269//1 252//1 69//1
f 29//1 137//1 269//1 181//1
f 137//1 72//1 251//1 269//1
f 134//1 270//1 122//1 23//1
f 69//1 252//1 270//1 134//1
f 252//1 93//1 250//1 270//1
f 247//1 271//1 249//1 92//1
f 68//1 180//1 271//1 247//1
f 180//1 24//1 155//1 271//1
f 177//1 272//1 248//1 65//1
f 28//1 133//1 272//1 177//1
f 133//1 68//1 247//1 272//1
f 130//1 273//1 124//1 25//1
f 65//1 248//1 273//1 130//1
f 248//1 92//1 246//1 273//1
f 243//1 274//1 245//1 91//1
f 64//1 176//1 274//1 243//1
f 176//1 17//1 147//1 274//1
f 173//1 275//1 244//1 61//1
f 27//1 129//1 275//1 173//1
f 129//1 64//1 243//1 275//1
f 126//1 276//1 125//1 26//1
f 61//1 244//1 276//1 126//1
f 244//1 91//1 242//1 276//1
f 239//1 277//1 241//1 90//1
f 63//1 175//1 277//1 239//1
f 175//1 27//1 173//1 277//1
f 155//1 278//1 240//1 43//1
f 24//1 128//1 278//1 155//1
f 128//1 63//1 239//1 278//1
f 108//1 279//1 110//1 12//1
f 43//1 240//1 279//1 108//1
f 240//1 90//1 238//1 279//1
f 235//1 280//1 237//1 89//1
f 38//1 150//1 280//1 235//1
f 150//1 20//1 174//1 280//1
f 170//1 281//1 236//1 58//1
f 10//1 103//1 281//1 170//1
f 103//1 38//1 235//1 281//1
f 123//1 282//1 128//1 24//1
f 58//1 236//1 282//1 123//1
f 236//1 89//1 234//1 282//1
f 231//1 283//1 233//1 88//1
f 54//1 166//1 283//1 231//1
f 166//1 3//1 162//1 283//1
f 174//1 284//1 232//1 62//1
f 20//1 119//1 284//1 174//1
f 119//1 54//1 231//1 284//1
f 127//1 285//1 129//1 27//1
f 62//1 232//1 285//1 127//1
f 232//1 88//1 230//1 285//1
f 227//1 286//1 229//1 87//1
f 67//1 179//1 286//1 227//1
f 179//1 28//1 177//1 286//1
f 148//1 287//1 228//1 36//1
f 18//1 132//1 287//1 148//1
f 132//1 67//1 227//1 287//1
f 101//1 288//1 109//1 8//1
f 36//1 228//1 288//1 101//1
f 228//1 87//1 226//1 288//1
f 223//1 289//1 225//1 86//1
f 34//1 146//1 289//1 223//1
f 146//1 16//1 178//1 289//1
f 164//1 290//1 224//1 52//1
f 4//1 99//1 290//1 164//1
f 99//1 34//1 223//1 290//1
f 117//1 291//1 132//1 18//1
f 52//1 224//1 291//1 117//1
f 224//1 86//1 222//1 291//1
f 219//1 292//1 221//1 85//1
f 49//1 161//1 292//1 219//1
f 161//1 10//1 170//1 292//1
f 178//1 293//1 220//1 66//1
f 16//1 114//1 293//1 178//1
f 114//1 49//1 219//1 293//1
f 131//1 294//1 133//1 28//1
f 66//1 220//1 294//1 131//1
f 220//1 85//1 218//1 294//1
f 215//1 295//1 217//1 84//1
f 71//1 183//1 295//1 215//1
f 183//1 29//1 181//1 295//1
f 152//1 296//1 216//1 40//1
f 21//1 136//1 296//1 152//1
f 136//1 71//1 215//1 296//1
f 105//1 297//1 107//1 11//1
f 40//1 216//1 297//1 105//1
f 216//1 84//1 214//1 297//1
f 211//1 298//1 213//1 83//1
f 37//1 149//1 298//1 211//1
f 149//1 19//1 182//1 298//1
f 167//1 299//1 212//1 55//1
f 9//1 102//1 299//1 167//1
f 102//1 37//1 211//1 299//1
f 120//1 300//1 136//1 21//1
f 55//1 212//1 300//1 120//1
f 212//1 83//1 210//1 300//1
f 207//1 301//1 209//1 82//1
f 53//1 165//1 301//1 207//1
f 165//1 4//1 164//1 301//1
f 182//1 302//1 208//1 70//1
f 19//1 118//1 302//1 182//1
f 118//1 53//1 207//1 302//1
f 135//1 303//1 137//1 29//1
f 70//1 208//1 303//1 135//1
f 208//1 82//1 206//1 303//1
f 203//1 304//1 205//1 81//1
f 75//1 187//1 304//1 203//1
f 187//1 30//1 185//1 304//1
f 112//1 305//1 204//1 47//1
f 14//1 140//1 305//1 112//1
f 140//1 75//1 203//1 305//1
f 159//1 306//1 106//1 7//1
f 47//1 204//1 306//1 159//1
f 204//1 81//1 202//1 306//1
f 199//1 307//1 201//1 80//1
f 33//1 145//1 307//1 199//1
f 145//1 15//1 186//1 307//1
f 97//1 308//1 200//1 32//1
f 2//1 98//1 308//1 97//1
f 98//1 33//1 199//1 308//1
f 144//1 309//1 140//1 14//1
f 32//1 200//1 309//1 144//1
f 200//1 80//1 198//1 309//1
f 195//1 310//1 197//1 79//1
f 48//1 160//1 310//1 195//1
f 160//1 9//1 167//1 310//1
f 186//1 311//1 196//1 74//1
f 15//1 113//1 311//1 186//1
f 113//1 48//1 195//1 311//1
f 139//1 312//1 141//1 30//1
f 74//1 196//1 312//1 139//1
f 196//1 79//1 194//1 312//1
f 191//1 313//1 193//1 78//1
f 116//1 314//1 192//1 51//1
f 163//1 315//1 96//1 1//1
f 51//1 192//1 315//1 163//1
f 192//1 78//1 190//1 315//1
f 190//1 316//1 143//1 31//1
f 78//1 193//1 316//1 190//1
f 193//1 77//1 142//1 316//1
f 194//1 317//1 188//1 76//1
f 79//1 197//1 317//1 194//1
f 197//1 55//1 120//1 317//1
f 198//1 318//1 187//1 75//1
f 80//1 201//1 318//1 198//1
f 201//1 74//1 139//1 318//1
f 202//1 319//1 153//1 41//1
f 81//1 205//1 319//1 202//1
f 205//1 73//1 138//1 319//1
f 206//1 320//1 184//1 72//1
f 82//1 209//1 320//1 206//1
f 209//1 52//1 117//1 320//1
f 210//1 321//1 183//1 71//1
f 83//1 213//1 321//1 210//1
f 213//1 70//1 135//1 321//1
f 214//1 322//1 154//1 42//1
f 84//1 217//1 322//1 214//1
f 217//1 69//1 134//1 322//1
f 218//1 323//1 180//1 68//1
f 85//1 221//1 323//1 218//1
f 221//1 58//1 123//1 323//1
f 222//1 324//1 179//1 67//1
f 86//1 225//1 324//1 222//1
f 225//1 66//1 131//1 324//1
f 226//1 325//1 156//1 44//1
f 87//1 229//1 325//1 226//1
f 229//1 65//1 130//1 325//1
f 230//1 326//1 176//1 64//1
f 88//1 233//1 326//1 230//1
f 233//1 50//1 115//1 326//1
f 234//1 327//1 175//1 63//1
f 89//1 237//1 327//1 234//1
f 237//1 62//1 127//1 327//1
f 238//1 328//1 157//1 45//1
f 90//1 241//1 328//1 238//1
f 241//1 61//1 126//1 328//1
f 242//1 329//1 172//1 60//1
f 91//1 245//1 329//1 242//1
f 245//1 35//1 100//1 329//1
f 246//1 330//1 171//1 59//1
f 92//1 249//1 330//1 246//1
f 249//1 43//1 108//1 330//1
f 250//1 331//1 169//1 57//1
f 93//1 253//1 331//1 250//1
f 253//1 36//1 101//1 331//1
f 254//1 332//1 168//1 56//1
f 94//1 257//1 332//1 254//1
f 257//1 40//1 105//1 332//1
f 258//1 333//1 158//1 46//1
f 95//1 261//1 333//1 258//1
f 261//1 39//1 104//1 333//1
