# Blender v2.79 (sub 0) OBJ File: 'Test_of_Teamwork.blend'
# www.blender.org
o O_Chunk_1_1_02_Chunk_1_1.001
g O_Chunk_1_1_02_Chunk_1_1.001
v 0.000000 32.000000 -0.000002
v -16.000000 0.000000 0.000001
v -16.000000 32.000000 -0.000001
v -8.000000 32.000000 -0.000001
v 0.000000 24.000000 -0.000002
v -8.000000 0.000000 0.000000
v -16.000000 24.000000 -0.000000
v -16.000000 8.000000 0.000000
v -8.000000 16.000000 -0.000001
v -8.000000 8.000000 -0.000000
v -8.000000 24.000000 -0.000001
v -4.000000 32.000000 -0.000002
v -12.000000 0.000000 0.000000
v -16.000000 28.000000 -0.000001
v -16.000000 12.000000 0.000000
v -12.000000 32.000000 -0.000001
v 0.000000 28.000000 -0.000002
v -16.000000 20.000000 -0.000000
v -16.000000 4.000000 0.000001
v -8.000000 12.000000 -0.000001
v -8.000000 4.000000 -0.000000
v -12.000000 8.000000 0.000000
v -8.000000 28.000000 -0.000001
v -8.000000 20.000000 -0.000001
v -4.000000 24.000000 -0.000001
v -12.000000 24.000000 -0.000001
v -12.000000 20.000000 -0.000001
v -4.000000 28.000000 -0.000002
v -12.000000 4.000000 0.000000
v -12.000000 12.000000 -0.000000
v -12.000000 28.000000 -0.000001
v -2.000000 32.000000 -0.000002
v -14.000000 0.000000 0.000001
v -16.000000 30.000000 -0.000001
v -10.000000 32.000000 -0.000001
v 0.000000 26.000000 -0.000002
v -16.000000 22.000000 -0.000000
v -16.000000 6.000000 0.000000
v -8.000000 6.000000 -0.000000
v -10.000000 8.000000 -0.000000
v -8.000000 30.000000 -0.000001
v -8.000000 22.000000 -0.000001
v -2.000000 24.000000 -0.000002
v -10.000000 24.000000 -0.000001
v -6.000000 32.000000 -0.000002
v -10.000000 0.000000 0.000000
v -16.000000 26.000000 -0.000000
v -16.000000 10.000000 0.000000
v -14.000000 32.000000 -0.000001
v 0.000000 30.000000 -0.000002
v -16.000000 2.000000 0.000001
v -8.000000 10.000000 -0.000000
v -8.000000 2.000000 -0.000000
v -14.000000 8.000000 0.000000
v -8.000000 26.000000 -0.000001
v -8.000000 18.000000 -0.000001
v -6.000000 24.000000 -0.000001
v -14.000000 24.000000 -0.000001
v -12.000000 22.000000 -0.000001
v -10.000000 20.000000 -0.000001
v -14.000000 20.000000 -0.000000
v -4.000000 30.000000 -0.000002
v -4.000000 26.000000 -0.000001
v -2.000000 28.000000 -0.000002
v -6.000000 28.000000 -0.000001
v -12.000000 6.000000 0.000000
v -12.000000 2.000000 0.000000
v -10.000000 4.000000 0.000000
v -14.000000 4.000000 0.000000
v -12.000000 10.000000 -0.000000
v -10.000000 12.000000 -0.000000
v -14.000000 12.000000 0.000000
v -12.000000 30.000000 -0.000001
v -12.000000 26.000000 -0.000001
v -10.000000 28.000000 -0.000001
v -14.000000 28.000000 -0.000001
v -14.000000 26.000000 -0.000001
v -10.000000 26.000000 -0.000001
v -10.000000 30.000000 -0.000001
v -14.000000 10.000000 0.000000
v -10.000000 10.000000 -0.000000
v -14.000000 2.000000 0.000000
v -10.000000 2.000000 0.000000
v -10.000000 6.000000 -0.000000
v -6.000000 26.000000 -0.000001
v -2.000000 26.000000 -0.000002
v -2.000000 30.000000 -0.000002
v -10.000000 18.000000 -0.000001
v -10.000000 22.000000 -0.000001
v -14.000000 22.000000 -0.000000
v -6.000000 22.000000 -0.000001
v -6.000000 30.000000 -0.000001
v -14.000000 6.000000 0.000000
v -14.000000 30.000000 -0.000001
v -1.000000 32.000000 -0.000002
v -15.000000 0.000000 0.000001
v -16.000000 18.000000 0.000000
v -16.000000 31.000000 -0.000001
v -12.000000 18.000000 -0.000000
v -9.000000 32.000000 -0.000001
v 0.000000 25.000000 -0.000002
v -16.000000 23.000000 -0.000000
v -16.000000 7.000000 0.000000
v -9.000000 16.000000 -0.000001
v -8.000000 7.000000 -0.000000
v -9.000000 8.000000 -0.000000
v -8.000000 31.000000 -0.000001
v -8.000000 23.000000 -0.000001
v -1.000000 24.000000 -0.000002
v -9.000000 24.000000 -0.000001
v -14.000000 18.000000 0.000000
v -5.000000 32.000000 -0.000002
v -11.000000 0.000000 0.000000
v -16.000000 27.000000 -0.000000
v -16.000000 11.000000 0.000000
v -13.000000 32.000000 -0.000001
v 0.000000 29.000000 -0.000002
v -16.000000 19.000000 -0.000000
v -16.000000 3.000000 0.000001
v -8.000000 11.000000 -0.000000
v -8.000000 3.000000 -0.000000
v -13.000000 8.000000 0.000000
v -8.000000 27.000000 -0.000001
v -8.000000 19.000000 -0.000001
v -5.000000 24.000000 -0.000001
v -13.000000 24.000000 -0.000001
v -13.000000 18.000000 -0.000000
v -11.000000 18.000000 -0.000000
v -15.000000 18.000000 0.000000
v -15.000000 17.000000 0.000000
v -11.000000 17.000000 -0.000000
v -13.000000 17.000000 -0.000000
v -12.000000 23.000000 -0.000001
v -12.000000 19.000000 -0.000000
v -9.000000 20.000000 -0.000001
v -13.000000 20.000000 -0.000000
v -4.000000 31.000000 -0.000002
v -4.000000 27.000000 -0.000002
v -1.000000 28.000000 -0.000002
v -5.000000 28.000000 -0.000001
v -12.000000 7.000000 0.000000
v -12.000000 3.000000 0.000000
v -9.000000 4.000000 -0.000000
v -13.000000 4.000000 0.000000
v -12.000000 11.000000 -0.000000
v -9.000000 12.000000 -0.000000
v -13.000000 12.000000 -0.000000
v -12.000000 31.000000 -0.000001
v -12.000000 27.000000 -0.000001
v -9.000000 28.000000 -0.000001
v -13.000000 28.000000 -0.000001
v -3.000000 32.000000 -0.000002
v -13.000000 0.000000 0.000000
v -14.000000 17.000000 0.000000
v -16.000000 29.000000 -0.000001
v -11.000000 32.000000 -0.000001
v 0.000000 27.000000 -0.000002
v -16.000000 21.000000 -0.000000
v -16.000000 5.000000 0.000000
v -8.000000 5.000000 -0.000000
v -11.000000 8.000000 -0.000000
v -8.000000 29.000000 -0.000001
v -8.000000 21.000000 -0.000001
v -3.000000 24.000000 -0.000001
v -11.000000 24.000000 -0.000001
v -10.000000 17.000000 -0.000000
v -7.000000 32.000000 -0.000001
v 0.000000 23.000000 -0.000002
v -9.000000 0.000000 0.000000
v -16.000000 25.000000 -0.000000
v -16.000000 9.000000 0.000000
v -15.000000 32.000000 -0.000001
v 0.000000 31.000000 -0.000002
v -16.000000 1.000000 0.000001
v -8.000000 9.000000 -0.000000
v -8.000000 1.000000 -0.000000
v -15.000000 8.000000 0.000000
v -8.000000 25.000000 -0.000001
v -8.000000 17.000000 -0.000001
v -7.000000 24.000000 -0.000001
v -15.000000 24.000000 -0.000000
v -12.000000 17.000000 -0.000000
v -16.000000 17.000000 0.000000
v -16.000000 16.000000 0.000000
v -12.000000 16.000000 -0.000000
v -10.000000 16.000000 -0.000000
v -12.000000 21.000000 -0.000001
v -11.000000 20.000000 -0.000001
v -15.000000 20.000000 -0.000000
v -4.000000 29.000000 -0.000002
v -4.000000 25.000000 -0.000001
v -3.000000 28.000000 -0.000002
v -7.000000 28.000000 -0.000001
v -12.000000 5.000000 0.000000
v -12.000000 1.000000 0.000000
v -11.000000 4.000000 0.000000
v -15.000000 4.000000 0.000000
v -12.000000 9.000000 -0.000000
v -11.000000 12.000000 -0.000000
v -15.000000 12.000000 0.000000
v -12.000000 29.000000 -0.000001
v -12.000000 25.000000 -0.000001
v -11.000000 28.000000 -0.000001
v -15.000000 28.000000 -0.000001
v -14.000000 27.000000 -0.000001
v -14.000000 25.000000 -0.000001
v -13.000000 26.000000 -0.000001
v -15.000000 26.000000 -0.000001
v -10.000000 27.000000 -0.000001
v -10.000000 25.000000 -0.000001
v -9.000000 26.000000 -0.000001
v -11.000000 26.000000 -0.000001
v -10.000000 31.000000 -0.000001
v -10.000000 29.000000 -0.000001
v -9.000000 30.000000 -0.000001
v -11.000000 30.000000 -0.000001
v -14.000000 11.000000 0.000000
v -14.000000 9.000000 0.000000
v -13.000000 10.000000 0.000000
v -15.000000 10.000000 0.000000
v -10.000000 11.000000 -0.000000
v -10.000000 9.000000 -0.000000
v -9.000000 10.000000 -0.000000
v -11.000000 10.000000 -0.000000
v -14.000000 3.000000 0.000000
v -14.000000 1.000000 0.000000
v -13.000000 2.000000 0.000000
v -15.000000 2.000000 0.000001
v -10.000000 3.000000 0.000000
v -10.000000 1.000000 0.000000
v -9.000000 2.000000 0.000000
v -11.000000 2.000000 0.000000
v -10.000000 7.000000 -0.000000
v -10.000000 5.000000 -0.000000
v -9.000000 6.000000 -0.000000
v -11.000000 6.000000 0.000000
v -6.000000 27.000000 -0.000001
v -6.000000 25.000000 -0.000001
v -5.000000 26.000000 -0.000001
v -7.000000 26.000000 -0.000001
v -2.000000 27.000000 -0.000002
v -2.000000 25.000000 -0.000002
v -1.000000 26.000000 -0.000002
v -3.000000 26.000000 -0.000002
v -2.000000 31.000000 -0.000002
v -2.000000 29.000000 -0.000002
v -1.000000 30.000000 -0.000002
v -3.000000 30.000000 -0.000002
v -14.000000 19.000000 -0.000000
v -10.000000 19.000000 -0.000001
v -9.000000 18.000000 -0.000001
v -10.000000 23.000000 -0.000001
v -10.000000 21.000000 -0.000001
v -9.000000 22.000000 -0.000001
v -11.000000 22.000000 -0.000001
v -14.000000 16.000000 0.000000
v -13.000000 16.000000 -0.000000
v -11.000000 16.000000 -0.000000
v -15.000000 16.000000 0.000000
v -15.000000 15.000000 0.000000
v -11.000000 15.000000 -0.000000
v -13.000000 15.000000 -0.000000
v -9.000000 15.000000 -0.000000
v -14.000000 15.000000 0.000000
v -10.000000 15.000000 -0.000000
v -12.000000 15.000000 -0.000000
v -8.000000 15.000000 -0.000001
v -16.000000 15.000000 0.000000
v -16.000000 14.000000 0.000000
v -8.000000 14.000000 -0.000001
v -12.000000 14.000000 -0.000000
v -14.000000 23.000000 -0.000000
v -14.000000 21.000000 -0.000000
v -13.000000 22.000000 -0.000001
v -15.000000 22.000000 -0.000000
v -6.000000 23.000000 -0.000001
v -7.000000 22.000000 -0.000001
v -6.000000 31.000000 -0.000002
v -6.000000 29.000000 -0.000001
v -5.000000 30.000000 -0.000002
v -7.000000 30.000000 -0.000001
v -14.000000 7.000000 0.000000
v -14.000000 5.000000 0.000000
v -13.000000 6.000000 0.000000
v -15.000000 6.000000 0.000000
v -14.000000 31.000000 -0.000001
v -14.000000 29.000000 -0.000001
v -13.000000 30.000000 -0.000001
v -15.000000 30.000000 -0.000001
v -15.000000 29.000000 -0.000001
v -13.000000 29.000000 -0.000001
v -13.000000 31.000000 -0.000001
v -15.000000 5.000000 0.000000
v -13.000000 5.000000 0.000000
v -13.000000 7.000000 0.000000
v -7.000000 29.000000 -0.000001
v -5.000000 29.000000 -0.000002
v -5.000000 31.000000 -0.000002
v -7.000000 21.000000 -0.000001
v -5.000000 23.000000 -0.000001
v -15.000000 21.000000 -0.000000
v -13.000000 21.000000 -0.000000
v -13.000000 23.000000 -0.000001
v -10.000000 14.000000 -0.000000
v -14.000000 14.000000 0.000000
v -9.000000 14.000000 -0.000000
v -13.000000 14.000000 -0.000000
v -11.000000 14.000000 -0.000000
v -15.000000 14.000000 0.000000
v -15.000000 13.000000 0.000000
v -11.000000 13.000000 -0.000000
v -13.000000 13.000000 -0.000000
v -9.000000 13.000000 -0.000000
v -14.000000 13.000000 -0.000000
v -11.000000 21.000000 -0.000001
v -9.000000 21.000000 -0.000001
v -9.000000 23.000000 -0.000001
v -9.000000 17.000000 -0.000001
v -9.000000 19.000000 -0.000001
v -13.000000 19.000000 -0.000000
v -1.000000 23.000000 -0.000002
v -3.000000 29.000000 -0.000002
v -1.000000 29.000000 -0.000002
v -1.000000 31.000000 -0.000002
v -3.000000 25.000000 -0.000002
v -1.000000 25.000000 -0.000002
v -1.000000 27.000000 -0.000002
v -7.000000 25.000000 -0.000001
v -5.000000 25.000000 -0.000001
v -5.000000 27.000000 -0.000001
v -11.000000 5.000000 0.000000
v -9.000000 5.000000 -0.000000
v -9.000000 7.000000 -0.000000
v -11.000000 1.000000 0.000000
v -9.000000 1.000000 0.000000
v -9.000000 3.000000 -0.000000
v -15.000000 1.000000 0.000001
v -13.000000 1.000000 0.000000
v -13.000000 3.000000 0.000000
v -11.000000 9.000000 -0.000000
v -9.000000 9.000000 -0.000000
v -9.000000 11.000000 -0.000000
v -15.000000 9.000000 0.000000
v -13.000000 9.000000 0.000000
v -13.000000 11.000000 -0.000000
v -11.000000 29.000000 -0.000001
v -9.000000 29.000000 -0.000001
v -9.000000 31.000000 -0.000001
v -11.000000 25.000000 -0.000001
v -9.000000 25.000000 -0.000001
v -9.000000 27.000000 -0.000001
v -15.000000 25.000000 -0.000000
v -13.000000 25.000000 -0.000001
v -13.000000 27.000000 -0.000001
v -15.000000 27.000000 -0.000001
v -11.000000 27.000000 -0.000001
v -11.000000 31.000000 -0.000001
v -15.000000 11.000000 0.000000
v -11.000000 11.000000 -0.000000
v -15.000000 3.000000 0.000000
v -11.000000 3.000000 0.000000
v -11.000000 7.000000 -0.000000
v -7.000000 27.000000 -0.000001
v -3.000000 27.000000 -0.000002
v -3.000000 31.000000 -0.000002
v -15.000000 19.000000 -0.000000
v -11.000000 19.000000 -0.000001
v -11.000000 23.000000 -0.000001
v -10.000000 13.000000 -0.000000
v -12.000000 13.000000 -0.000000
v -8.000000 13.000000 -0.000001
v -16.000000 13.000000 0.000000
v -15.000000 23.000000 -0.000000
v -7.000000 23.000000 -0.000001
v -7.000000 31.000000 -0.000001
v -15.000000 7.000000 0.000000
v -15.000000 31.000000 -0.000001
vn -0.0000 -0.0000 -1.0000
s off
f 377//1 98//1 3//1 172//1
f 376//1 103//1 8//1 177//1
f 375//1 107//1 4//1 167//1
f 374//1 108//1 11//1 180//1
f 373//1 102//1 7//1 181//1
f 368//1 133//1 26//1 165//1
f 367//1 134//1 27//1 188//1
f 366//1 118//1 18//1 189//1
f 365//1 137//1 12//1 152//1
f 364//1 138//1 28//1 192//1
f 363//1 123//1 23//1 193//1
f 362//1 141//1 22//1 161//1
f 361//1 142//1 29//1 196//1
f 360//1 119//1 19//1 197//1
f 359//1 145//1 30//1 199//1
f 358//1 115//1 15//1 200//1
f 357//1 148//1 16//1 156//1
f 356//1 149//1 31//1 203//1
f 355//1 114//1 14//1 204//1
f 354//1 205//1 76//1 151//1
f 353//1 206//1 77//1 207//1
f 352//1 170//1 47//1 208//1
f 351//1 209//1 75//1 150//1
f 350//1 210//1 78//1 211//1
f 349//1 202//1 74//1 212//1
f 348//1 213//1 35//1 100//1
f 347//1 214//1 79//1 215//1
f 346//1 201//1 73//1 216//1
f 345//1 217//1 72//1 147//1
f 344//1 218//1 80//1 219//1
f 343//1 171//1 48//1 220//1
f 342//1 221//1 71//1 146//1
f 341//1 222//1 81//1 223//1
f 340//1 198//1 70//1 224//1
f 339//1 225//1 69//1 144//1
f 338//1 226//1 82//1 227//1
f 337//1 174//1 51//1 228//1
f 336//1 229//1 68//1 143//1
f 335//1 230//1 83//1 231//1
f 334//1 195//1 67//1 232//1
f 333//1 233//1 40//1 106//1
f 332//1 234//1 84//1 235//1
f 331//1 194//1 66//1 236//1
f 330//1 237//1 65//1 140//1
f 329//1 238//1 85//1 239//1
f 328//1 178//1 55//1 240//1
f 327//1 241//1 64//1 139//1
f 326//1 242//1 86//1 243//1
f 325//1 191//1 63//1 244//1
f 324//1 245//1 32//1 95//1
f 323//1 246//1 87//1 247//1
f 322//1 190//1 62//1 248//1
f 320//1 249//1 61//1 136//1
f 319//1 250//1 60//1 135//1
f 317//1 252//1 44//1 110//1
f 316//1 253//1 89//1 254//1
f 315//1 187//1 59//1 255//1
f 132//1 257//1 256//1 154//1
f 185//1 257//1 132//1 182//1
f 185//1 182//1 131//1 258//1
f 131//1 166//1 186//1 258//1
f 111//1 127//1 132//1 154//1
f 132//1 127//1 99//1 182//1
f 131//1 182//1 99//1 128//1
f 88//1 166//1 131//1 128//1
f 320//1 127//1 111//1 249//1
f 134//1 99//1 127//1 320//1
f 303//1 272//1 58//1 126//1
f 302//1 273//1 90//1 274//1
f 301//1 158//1 37//1 275//1
f 300//1 276//1 57//1 125//1
f 299//1 163//1 42//1 277//1
f 298//1 278//1 45//1 112//1
f 297//1 279//1 92//1 280//1
f 296//1 162//1 41//1 281//1
f 295//1 282//1 54//1 122//1
f 294//1 283//1 93//1 284//1
f 293//1 159//1 38//1 285//1
f 292//1 286//1 49//1 116//1
f 291//1 287//1 94//1 288//1
f 290//1 155//1 34//1 289//1
f 287//1 290//1 289//1 94//1
f 76//1 204//1 290//1 287//1
f 204//1 14//1 155//1 290//1
f 201//1 291//1 288//1 73//1
f 31//1 151//1 291//1 201//1
f 151//1 76//1 287//1 291//1
f 148//1 292//1 116//1 16//1
f 73//1 288//1 292//1 148//1
f 288//1 94//1 286//1 292//1
f 283//1 293//1 285//1 93//1
f 69//1 197//1 293//1 283//1
f 197//1 19//1 159//1 293//1
f 194//1 294//1 284//1 66//1
f 29//1 144//1 294//1 194//1
f 144//1 69//1 283//1 294//1
f 141//1 295//1 122//1 22//1
f 66//1 284//1 295//1 141//1
f 284//1 93//1 282//1 295//1
f 279//1 296//1 281//1 92//1
f 65//1 193//1 296//1 279//1
f 193//1 23//1 162//1 296//1
f 190//1 297//1 280//1 62//1
f 28//1 140//1 297//1 190//1
f 140//1 65//1 279//1 297//1
f 137//1 298//1 112//1 12//1
f 62//1 280//1 298//1 137//1
f 280//1 92//1 278//1 298//1
f 273//1 301//1 275//1 90//1
f 61//1 189//1 301//1 273//1
f 189//1 18//1 158//1 301//1
f 187//1 302//1 274//1 59//1
f 27//1 136//1 302//1 187//1
f 136//1 61//1 273//1 302//1
f 133//1 303//1 126//1 26//1
f 59//1 274//1 303//1 133//1
f 274//1 90//1 272//1 303//1
f 134//1 367//1 128//1 99//1
f 367//1 250//1 88//1 128//1
f 88//1 251//1 318//1 166//1
f 166//1 318//1 104//1 186//1
f 186//1 104//1 263//1 265//1
f 186//1 265//1 261//1 258//1
f 185//1 258//1 261//1 266//1
f 185//1 266//1 262//1 257//1
f 256//1 257//1 262//1 264//1
f 256//1 264//1 260//1 259//1
f 259//1 130//1 154//1 256//1
f 130//1 129//1 111//1 154//1
f 249//1 111//1 129//1 366//1
f 366//1 129//1 97//1 118//1
f 97//1 129//1 130//1 183//1
f 130//1 259//1 184//1 183//1
f 184//1 259//1 260//1 268//1
f 260//1 309//1 269//1 268//1
f 260//1 264//1 305//1 309//1
f 262//1 307//1 305//1 264//1
f 262//1 266//1 271//1 307//1
f 261//1 308//1 271//1 266//1
f 261//1 265//1 304//1 308//1
f 263//1 306//1 304//1 265//1
f 9//1 267//1 263//1 104//1
f 263//1 267//1 270//1 306//1
f 270//1 371//1 313//1 306//1
f 304//1 306//1 313//1 369//1
f 304//1 369//1 311//1 308//1
f 271//1 308//1 311//1 370//1
f 271//1 370//1 312//1 307//1
f 253//1 315//1 255//1 89//1
f 60//1 188//1 315//1 253//1
f 188//1 27//1 187//1 315//1
f 163//1 316//1 254//1 42//1
f 24//1 135//1 316//1 163//1
f 135//1 60//1 253//1 316//1
f 108//1 317//1 110//1 11//1
f 42//1 254//1 317//1 108//1
f 254//1 89//1 252//1 317//1
f 179//1 318//1 251//1 56//1
f 9//1 104//1 318//1 179//1
f 124//1 319//1 135//1 24//1
f 56//1 251//1 319//1 124//1
f 251//1 88//1 250//1 319//1
f 134//1 320//1 136//1 27//1
f 168//1 321//1 109//1 5//1
f 246//1 322//1 248//1 87//1
f 64//1 192//1 322//1 246//1
f 192//1 28//1 190//1 322//1
f 117//1 323//1 247//1 50//1
f 17//1 139//1 323//1 117//1
f 139//1 64//1 246//1 323//1
f 173//1 324//1 95//1 1//1
f 50//1 247//1 324//1 173//1
f 247//1 87//1 245//1 324//1
f 242//1 325//1 244//1 86//1
f 43//1 164//1 325//1 242//1
f 164//1 25//1 191//1 325//1
f 101//1 326//1 243//1 36//1
f 5//1 109//1 326//1 101//1
f 109//1 43//1 242//1 326//1
f 157//1 327//1 139//1 17//1
f 36//1 243//1 327//1 157//1
f 243//1 86//1 241//1 327//1
f 238//1 328//1 240//1 85//1
f 57//1 180//1 328//1 238//1
f 180//1 11//1 178//1 328//1
f 191//1 329//1 239//1 63//1
f 25//1 125//1 329//1 191//1
f 125//1 57//1 238//1 329//1
f 138//1 330//1 140//1 28//1
f 63//1 239//1 330//1 138//1
f 239//1 85//1 237//1 330//1
f 234//1 331//1 236//1 84//1
f 68//1 196//1 331//1 234//1
f 196//1 29//1 194//1 331//1
f 160//1 332//1 235//1 39//1
f 21//1 143//1 332//1 160//1
f 143//1 68//1 234//1 332//1
f 105//1 333//1 106//1 10//1
f 39//1 235//1 333//1 105//1
f 235//1 84//1 233//1 333//1
f 230//1 334//1 232//1 83//1
f 46//1 113//1 334//1 230//1
f 113//1 13//1 195//1 334//1
f 176//1 335//1 231//1 53//1
f 6//1 169//1 335//1 176//1
f 169//1 46//1 230//1 335//1
f 121//1 336//1 143//1 21//1
f 53//1 231//1 336//1 121//1
f 231//1 83//1 229//1 336//1
f 226//1 337//1 228//1 82//1
f 33//1 96//1 337//1 226//1
f 96//1 2//1 174//1 337//1
f 195//1 338//1 227//1 67//1
f 13//1 153//1 338//1 195//1
f 153//1 33//1 226//1 338//1
f 142//1 339//1 144//1 29//1
f 67//1 227//1 339//1 142//1
f 227//1 82//1 225//1 339//1
f 222//1 340//1 224//1 81//1
f 40//1 161//1 340//1 222//1
f 161//1 22//1 198//1 340//1
f 175//1 341//1 223//1 52//1
f 10//1 106//1 341//1 175//1
f 106//1 40//1 222//1 341//1
f 120//1 342//1 146//1 20//1
f 52//1 223//1 342//1 120//1
f 223//1 81//1 221//1 342//1
f 218//1 343//1 220//1 80//1
f 54//1 177//1 343//1 218//1
f 177//1 8//1 171//1 343//1
f 198//1 344//1 219//1 70//1
f 22//1 122//1 344//1 198//1
f 122//1 54//1 218//1 344//1
f 145//1 345//1 147//1 30//1
f 70//1 219//1 345//1 145//1
f 219//1 80//1 217//1 345//1
f 214//1 346//1 216//1 79//1
f 75//1 203//1 346//1 214//1
f 203//1 31//1 201//1 346//1
f 162//1 347//1 215//1 41//1
f 23//1 150//1 347//1 162//1
f 150//1 75//1 214//1 347//1
f 107//1 348//1 100//1 4//1
f 41//1 215//1 348//1 107//1
f 215//1 79//1 213//1 348//1
f 210//1 349//1 212//1 78//1
f 44//1 165//1 349//1 210//1
f 165//1 26//1 202//1 349//1
f 178//1 350//1 211//1 55//1
f 11//1 110//1 350//1 178//1
f 110//1 44//1 210//1 350//1
f 123//1 351//1 150//1 23//1
f 55//1 211//1 351//1 123//1
f 211//1 78//1 209//1 351//1
f 206//1 352//1 208//1 77//1
f 58//1 181//1 352//1 206//1
f 181//1 7//1 170//1 352//1
f 202//1 353//1 207//1 74//1
f 26//1 126//1 353//1 202//1
f 126//1 58//1 206//1 353//1
f 149//1 354//1 151//1 31//1
f 74//1 207//1 354//1 149//1
f 207//1 77//1 205//1 354//1
f 205//1 355//1 204//1 76//1
f 77//1 208//1 355//1 205//1
f 208//1 47//1 114//1 355//1
f 209//1 356//1 203//1 75//1
f 78//1 212//1 356//1 209//1
f 212//1 74//1 149//1 356//1
f 213//1 357//1 156//1 35//1
f 79//1 216//1 357//1 213//1
f 216//1 73//1 148//1 357//1
f 217//1 358//1 200//1 72//1
f 80//1 220//1 358//1 217//1
f 220//1 48//1 115//1 358//1
f 221//1 359//1 199//1 71//1
f 81//1 224//1 359//1 221//1
f 224//1 70//1 145//1 359//1
f 225//1 360//1 197//1 69//1
f 82//1 228//1 360//1 225//1
f 228//1 51//1 119//1 360//1
f 229//1 361//1 196//1 68//1
f 83//1 232//1 361//1 229//1
f 232//1 67//1 142//1 361//1
f 233//1 362//1 161//1 40//1
f 84//1 236//1 362//1 233//1
f 236//1 66//1 141//1 362//1
f 237//1 363//1 193//1 65//1
f 85//1 240//1 363//1 237//1
f 240//1 55//1 123//1 363//1
f 241//1 364//1 192//1 64//1
f 86//1 244//1 364//1 241//1
f 244//1 63//1 138//1 364//1
f 245//1 365//1 152//1 32//1
f 87//1 248//1 365//1 245//1
f 248//1 62//1 137//1 365//1
f 249//1 366//1 189//1 61//1
f 250//1 367//1 188//1 60//1
f 252//1 368//1 165//1 44//1
f 89//1 255//1 368//1 252//1
f 255//1 59//1 133//1 368//1
f 305//1 307//1 312//1 314//1
f 305//1 314//1 310//1 309//1
f 269//1 309//1 310//1 372//1
f 15//1 372//1 310//1 200//1
f 72//1 200//1 310//1 314//1
f 72//1 314//1 312//1 147//1
f 30//1 147//1 312//1 370//1
f 30//1 370//1 311//1 199//1
f 71//1 199//1 311//1 369//1
f 71//1 369//1 313//1 146//1
f 20//1 146//1 313//1 371//1
f 272//1 373//1 181//1 58//1
f 90//1 275//1 373//1 272//1
f 275//1 37//1 102//1 373//1
f 276//1 374//1 180//1 57//1
f 91//1 277//1 374//1 276//1
f 277//1 42//1 108//1 374//1
f 278//1 375//1 167//1 45//1
f 92//1 281//1 375//1 278//1
f 281//1 41//1 107//1 375//1
f 282//1 376//1 177//1 54//1
f 93//1 285//1 376//1 282//1
f 285//1 38//1 103//1 376//1
f 286//1 377//1 172//1 49//1
f 94//1 289//1 377//1 286//1
f 289//1 34//1 98//1 377//1
