# Blender v2.79 (sub 0) OBJ File: 'Test_of_Teamwork.blend'
# www.blender.org
o Z_0_02
g Z_0_02
v -0.000000 -0.000000 -0.000001
v -0.000000 16.000000 -0.000001
v -16.000000 -0.000000 0.000001
v -16.000000 16.000000 0.000000
v -24.000000 -0.000000 0.000001
v -8.000000 -0.000000 0.000000
v -16.000000 8.000000 0.000000
v -8.000000 16.000000 -0.000001
v -24.000000 16.000000 0.000001
v -24.000000 8.000000 0.000001
v -8.000000 8.000000 -0.000000
v -28.000000 -0.000000 0.000002
v -12.000000 -0.000000 0.000000
v -16.000000 12.000000 0.000000
v -4.000000 16.000000 -0.000001
v -20.000000 16.000000 0.000000
v -0.000000 12.000000 -0.000001
v -20.000000 -0.000000 0.000001
v -4.000000 -0.000000 -0.000000
v -12.000000 16.000000 -0.000000
v -28.000000 16.000000 0.000001
v -24.000000 4.000000 0.000001
v -20.000000 8.000000 0.000001
v -28.000000 8.000000 0.000001
v -8.000000 4.000000 -0.000000
v -4.000000 8.000000 -0.000001
v -12.000000 8.000000 -0.000000
v -4.000000 4.000000 -0.000001
v -20.000000 4.000000 0.000001
v -28.000000 12.000000 0.000001
v -12.000000 12.000000 -0.000000
v -0.000000 2.000000 -0.000001
v -30.000000 -0.000000 0.000002
v -14.000000 -0.000000 0.000001
v -16.000000 14.000000 0.000000
v -2.000000 16.000000 -0.000001
v -18.000000 16.000000 0.000000
v -22.000000 -0.000000 0.000001
v -6.000000 -0.000000 -0.000000
v -16.000000 6.000000 0.000000
v -10.000000 16.000000 -0.000001
v -26.000000 16.000000 0.000001
v -24.000000 6.000000 0.000001
v -8.000000 6.000000 -0.000000
v -0.000000 6.000000 -0.000001
v -26.000000 -0.000000 0.000002
v -10.000000 -0.000000 0.000000
v -16.000000 10.000000 0.000000
v -6.000000 16.000000 -0.000001
v -22.000000 16.000000 0.000001
v -0.000000 14.000000 -0.000001
v -18.000000 -0.000000 0.000001
v -2.000000 -0.000000 -0.000001
v -16.000000 2.000000 0.000001
v -14.000000 16.000000 -0.000000
v -30.000000 16.000000 0.000001
v -24.000000 10.000000 0.000001
v -24.000000 2.000000 0.000001
v -22.000000 8.000000 0.000001
v -30.000000 8.000000 0.000002
v -8.000000 10.000000 -0.000000
v -8.000000 2.000000 -0.000000
v -6.000000 8.000000 -0.000001
v -14.000000 8.000000 0.000000
v -12.000000 6.000000 0.000000
v -12.000000 2.000000 0.000000
v -4.000000 6.000000 -0.000001
v -4.000000 2.000000 -0.000000
v -6.000000 4.000000 -0.000000
v -4.000000 10.000000 -0.000001
v -28.000000 6.000000 0.000001
v -28.000000 2.000000 0.000002
v -20.000000 6.000000 0.000001
v -20.000000 2.000000 0.000001
v -22.000000 4.000000 0.000001
v -20.000000 10.000000 0.000001
v -28.000000 14.000000 0.000001
v -28.000000 10.000000 0.000001
v -30.000000 12.000000 0.000001
v -12.000000 14.000000 -0.000000
v -12.000000 10.000000 -0.000000
v -14.000000 12.000000 0.000000
v -14.000000 10.000000 0.000000
v -30.000000 10.000000 0.000001
v -22.000000 10.000000 0.000001
v -22.000000 2.000000 0.000001
v -18.000000 2.000000 0.000001
v -30.000000 2.000000 0.000002
v -26.000000 2.000000 0.000001
v -6.000000 10.000000 -0.000001
v -6.000000 2.000000 -0.000000
v -2.000000 2.000000 -0.000001
v -14.000000 2.000000 0.000000
v -10.000000 2.000000 0.000000
v -14.000000 6.000000 0.000000
v -6.000000 6.000000 -0.000000
v -30.000000 6.000000 0.000002
v -22.000000 6.000000 0.000001
v -30.000000 14.000000 0.000001
v -14.000000 14.000000 -0.000000
v -0.000000 1.000000 -0.000001
v -0.000000 17.000000 -0.000001
v -15.000000 -0.000000 0.000001
v -16.000000 15.000000 0.000000
v -1.000000 16.000000 -0.000001
v -17.000000 16.000000 0.000000
v -23.000000 -0.000000 0.000001
v -7.000000 -0.000000 -0.000000
v -16.000000 7.000000 0.000000
v -9.000000 16.000000 -0.000001
v -25.000000 16.000000 0.000001
v -24.000000 15.000000 0.000001
v -24.000000 7.000000 0.000001
v -17.000000 8.000000 0.000000
v -25.000000 8.000000 0.000001
v -8.000000 15.000000 -0.000001
v -8.000000 7.000000 -0.000000
v -9.000000 8.000000 -0.000000
v -27.000000 -0.000000 0.000002
v -11.000000 -0.000000 0.000000
v -16.000000 11.000000 0.000000
v -5.000000 16.000000 -0.000001
v -21.000000 16.000000 0.000000
v -0.000000 13.000000 -0.000001
v -19.000000 -0.000000 0.000001
v -3.000000 -0.000000 -0.000000
v -13.000000 16.000000 -0.000000
v -29.000000 16.000000 0.000001
v -24.000000 11.000000 0.000001
v -24.000000 3.000000 0.000001
v -21.000000 8.000000 0.000001
v -29.000000 8.000000 0.000001
v -8.000000 11.000000 -0.000000
v -8.000000 3.000000 -0.000000
v -5.000000 8.000000 -0.000001
v -13.000000 8.000000 0.000000
v -12.000000 7.000000 0.000000
v -9.000000 4.000000 -0.000000
v -4.000000 7.000000 -0.000001
v -4.000000 3.000000 -0.000000
v -5.000000 4.000000 -0.000000
v -4.000000 15.000000 -0.000001
v -4.000000 11.000000 -0.000001
v -1.000000 12.000000 -0.000001
v -28.000000 7.000000 0.000001
v -25.000000 4.000000 0.000001
v -20.000000 7.000000 0.000001
v -20.000000 3.000000 0.000001
v -21.000000 4.000000 0.000001
v -20.000000 15.000000 0.000000
v -20.000000 11.000000 0.000001
v -17.000000 12.000000 0.000000
v -28.000000 15.000000 0.000001
v -28.000000 11.000000 0.000001
v -29.000000 12.000000 0.000001
v -12.000000 15.000000 -0.000000
v -12.000000 11.000000 -0.000000
v -13.000000 12.000000 -0.000000
v -29.000000 -0.000000 0.000002
v -13.000000 -0.000000 0.000000
v -16.000000 13.000000 0.000000
v -3.000000 16.000000 -0.000001
v -19.000000 16.000000 0.000000
v -0.000000 11.000000 -0.000001
v -21.000000 -0.000000 0.000001
v -5.000000 -0.000000 -0.000000
v -11.000000 16.000000 -0.000000
v -27.000000 16.000000 0.000001
v -24.000000 5.000000 0.000001
v -8.000000 5.000000 -0.000000
v -25.000000 -0.000000 0.000001
v -9.000000 -0.000000 0.000000
v -16.000000 9.000000 0.000000
v -7.000000 16.000000 -0.000001
v -23.000000 16.000000 0.000001
v -0.000000 15.000000 -0.000001
v -17.000000 -0.000000 0.000001
v -1.000000 -0.000000 -0.000001
v -16.000000 17.000000 -0.000000
v -16.000000 1.000000 0.000001
v -15.000000 16.000000 -0.000000
v -24.000000 9.000000 0.000001
v -24.000000 1.000000 0.000001
v -23.000000 8.000000 0.000001
v -8.000000 9.000000 -0.000000
v -8.000000 1.000000 -0.000000
v -7.000000 8.000000 -0.000000
v -15.000000 8.000000 0.000000
v -8.000000 17.000000 -0.000001
v -24.000000 17.000000 0.000001
v -28.000000 17.000000 0.000001
v -20.000000 17.000000 0.000000
v -12.000000 17.000000 -0.000000
v -4.000000 17.000000 -0.000001
v -12.000000 1.000000 0.000000
v -4.000000 5.000000 -0.000001
v -4.000000 1.000000 -0.000000
v -7.000000 4.000000 -0.000000
v -4.000000 9.000000 -0.000001
v -28.000000 1.000000 0.000002
v -20.000000 5.000000 0.000001
v -20.000000 1.000000 0.000001
v -23.000000 4.000000 0.000001
v -20.000000 9.000000 0.000001
v -28.000000 13.000000 0.000001
v -28.000000 9.000000 0.000001
v -12.000000 13.000000 -0.000000
v -12.000000 9.000000 -0.000000
v -15.000000 12.000000 0.000000
v -14.000000 11.000000 0.000000
v -14.000000 9.000000 0.000000
v -13.000000 10.000000 -0.000000
v -15.000000 10.000000 0.000000
v -9.000000 10.000000 -0.000000
v -10.000000 15.000000 -0.000000
v -30.000000 11.000000 0.000001
v -30.000000 9.000000 0.000002
v -29.000000 10.000000 0.000001
v -25.000000 10.000000 0.000001
v -26.000000 15.000000 0.000001
v -22.000000 11.000000 0.000001
v -22.000000 9.000000 0.000001
v -21.000000 10.000000 0.000001
v -23.000000 10.000000 0.000001
v -17.000000 10.000000 0.000000
v -18.000000 15.000000 0.000000
v -17.000000 14.000000 0.000000
v -22.000000 3.000000 0.000001
v -22.000000 1.000000 0.000001
v -21.000000 2.000000 0.000001
v -23.000000 2.000000 0.000001
v -18.000000 1.000000 0.000001
v -17.000000 2.000000 0.000001
v -19.000000 2.000000 0.000001
v -17.000000 6.000000 0.000001
v -30.000000 1.000000 0.000002
v -29.000000 2.000000 0.000002
v -26.000000 1.000000 0.000002
v -25.000000 2.000000 0.000001
v -27.000000 2.000000 0.000002
v -25.000000 6.000000 0.000001
v -6.000000 11.000000 -0.000001
v -6.000000 9.000000 -0.000001
v -5.000000 10.000000 -0.000001
v -7.000000 10.000000 -0.000001
v -2.000000 15.000000 -0.000001
v -1.000000 14.000000 -0.000001
v -6.000000 3.000000 -0.000000
v -6.000000 1.000000 -0.000000
v -5.000000 2.000000 -0.000000
v -7.000000 2.000000 -0.000000
v -2.000000 1.000000 -0.000001
v -1.000000 2.000000 -0.000001
v -3.000000 2.000000 -0.000001
v -1.000000 6.000000 -0.000001
v -14.000000 1.000000 0.000000
v -13.000000 2.000000 0.000000
v -15.000000 2.000000 0.000001
v -10.000000 1.000000 0.000000
v -9.000000 2.000000 0.000000
v -11.000000 2.000000 0.000000
v -9.000000 6.000000 -0.000000
v -6.000000 17.000000 -0.000001
v -2.000000 17.000000 -0.000001
v -14.000000 17.000000 -0.000000
v -10.000000 17.000000 -0.000001
v -22.000000 17.000000 0.000000
v -18.000000 17.000000 0.000000
v -30.000000 17.000000 0.000001
v -26.000000 17.000000 0.000001
v -14.000000 7.000000 0.000000
v -13.000000 6.000000 0.000000
v -15.000000 6.000000 0.000000
v -6.000000 7.000000 -0.000000
v -6.000000 5.000000 -0.000000
v -5.000000 6.000000 -0.000001
v -7.000000 6.000000 -0.000000
v -6.000000 15.000000 -0.000001
v -30.000000 7.000000 0.000002
v -29.000000 6.000000 0.000002
v -22.000000 7.000000 0.000001
v -22.000000 5.000000 0.000001
v -21.000000 6.000000 0.000001
v -23.000000 6.000000 0.000001
v -22.000000 15.000000 0.000001
v -30.000000 15.000000 0.000001
v -30.000000 13.000000 0.000001
v -29.000000 14.000000 0.000001
v -14.000000 15.000000 -0.000000
v -14.000000 13.000000 -0.000000
v -13.000000 14.000000 -0.000000
v -15.000000 14.000000 0.000000
v -15.000000 13.000000 0.000000
v -13.000000 13.000000 -0.000000
v -13.000000 15.000000 -0.000000
v -29.000000 13.000000 0.000001
v -29.000000 15.000000 0.000001
v -21.000000 15.000000 0.000000
v -23.000000 5.000000 0.000001
v -21.000000 5.000000 0.000001
v -21.000000 7.000000 0.000001
v -29.000000 7.000000 0.000002
v -5.000000 15.000000 -0.000001
v -7.000000 5.000000 -0.000000
v -5.000000 5.000000 -0.000000
v -5.000000 7.000000 -0.000001
v -13.000000 7.000000 0.000000
v -27.000000 17.000000 0.000001
v -25.000000 17.000000 0.000001
v -29.000000 17.000000 0.000001
v -19.000000 17.000000 0.000000
v -17.000000 17.000000 0.000000
v -23.000000 17.000000 0.000001
v -21.000000 17.000000 0.000000
v -11.000000 17.000000 -0.000000
v -9.000000 17.000000 -0.000001
v -15.000000 17.000000 -0.000000
v -13.000000 17.000000 -0.000000
v -3.000000 17.000000 -0.000001
v -1.000000 17.000000 -0.000001
v -7.000000 17.000000 -0.000001
v -5.000000 17.000000 -0.000001
v -9.000000 5.000000 -0.000000
v -9.000000 7.000000 -0.000000
v -11.000000 1.000000 0.000000
v -9.000000 1.000000 0.000000
v -9.000000 3.000000 -0.000000
v -15.000000 1.000000 0.000001
v -13.000000 1.000000 0.000000
v -3.000000 1.000000 -0.000000
v -1.000000 1.000000 -0.000001
v -7.000000 1.000000 -0.000000
v -5.000000 1.000000 -0.000000
v -5.000000 3.000000 -0.000000
v -1.000000 13.000000 -0.000001
v -1.000000 15.000000 -0.000001
v -1.000000 11.000000 -0.000001
v -7.000000 9.000000 -0.000000
v -5.000000 9.000000 -0.000001
v -5.000000 11.000000 -0.000001
v -25.000000 5.000000 0.000001
v -25.000000 7.000000 0.000001
v -27.000000 1.000000 0.000002
v -25.000000 1.000000 0.000001
v -25.000000 3.000000 0.000001
v -29.000000 1.000000 0.000002
v -17.000000 7.000000 0.000000
v -19.000000 1.000000 0.000001
v -17.000000 1.000000 0.000001
v -23.000000 1.000000 0.000001
v -21.000000 1.000000 0.000001
v -21.000000 3.000000 0.000001
v -17.000000 13.000000 0.000000
v -17.000000 15.000000 0.000000
v -17.000000 9.000000 0.000000
v -17.000000 11.000000 0.000000
v -23.000000 9.000000 0.000001
v -21.000000 9.000000 0.000001
v -21.000000 11.000000 0.000001
v -25.000000 15.000000 0.000001
v -25.000000 9.000000 0.000001
v -25.000000 11.000000 0.000001
v -29.000000 9.000000 0.000001
v -29.000000 11.000000 0.000001
v -9.000000 15.000000 -0.000001
v -9.000000 9.000000 -0.000000
v -9.000000 11.000000 -0.000000
v -15.000000 9.000000 0.000000
v -13.000000 9.000000 0.000000
v -13.000000 11.000000 -0.000000
v -15.000000 11.000000 0.000000
v -11.000000 15.000000 -0.000000
v -27.000000 15.000000 0.000001
v -23.000000 11.000000 0.000001
v -19.000000 15.000000 0.000000
v -23.000000 3.000000 0.000001
v -7.000000 11.000000 -0.000001
v -3.000000 15.000000 -0.000001
v -7.000000 3.000000 -0.000000
v -15.000000 7.000000 0.000000
v -7.000000 7.000000 -0.000000
v -7.000000 15.000000 -0.000001
v -23.000000 7.000000 0.000001
v -23.000000 15.000000 0.000001
v -15.000000 15.000000 -0.000000
v -1.000000 8.000000 -0.000001
v -1.000000 10.000000 -0.000001
v -1.000000 7.000000 -0.000001
v -1.000000 9.000000 -0.000001
v -0.000000 8.000000 -0.000001
v -0.000000 10.000000 -0.000001
v -0.000000 7.000000 -0.000001
v -0.000000 9.000000 -0.000001
vn -0.0000 -0.0000 -1.0000
s off
f 385//1 104//1 4//1 181//1
f 384//1 112//1 9//1 175//1
f 383//1 113//1 10//1 184//1
f 382//1 116//1 8//1 174//1
f 381//1 117//1 11//1 187//1
f 380//1 109//1 7//1 188//1
f 379//1 134//1 25//1 198//1
f 378//1 142//1 15//1 162//1
f 376//1 130//1 22//1 203//1
f 375//1 150//1 16//1 163//1
f 373//1 153//1 21//1 168//1
f 372//1 156//1 20//1 167//1
f 371//1 121//1 14//1 209//1
f 370//1 210//1 82//1 158//1
f 369//1 211//1 83//1 212//1
f 368//1 173//1 48//1 213//1
f 365//1 215//1 41//1 110//1
f 364//1 216//1 79//1 155//1
f 363//1 217//1 84//1 218//1
f 360//1 220//1 42//1 111//1
f 358//1 222//1 85//1 223//1
f 357//1 182//1 57//1 224//1
f 354//1 226//1 37//1 106//1
f 352//1 228//1 75//1 149//1
f 351//1 229//1 86//1 230//1
f 350//1 183//1 58//1 231//1
f 349//1 232//1 87//1 233//1
f 348//1 202//1 74//1 234//1
f 346//1 236//1 88//1 237//1
f 344//1 238//1 89//1 239//1
f 343//1 200//1 72//1 240//1
f 339//1 243//1 90//1 244//1
f 338//1 185//1 61//1 245//1
f 336//1 246//1 36//1 105//1
f 334//1 248//1 69//1 141//1
f 333//1 249//1 91//1 250//1
f 332//1 186//1 62//1 251//1
f 331//1 252//1 92//1 253//1
f 330//1 197//1 68//1 254//1
f 329//1 256//1 93//1 257//1
f 328//1 180//1 54//1 258//1
f 326//1 259//1 94//1 260//1
f 325//1 195//1 66//1 261//1
f 307//1 271//1 64//1 136//1
f 306//1 274//1 63//1 135//1
f 305//1 275//1 96//1 276//1
f 304//1 170//1 44//1 277//1
f 303//1 278//1 49//1 122//1
f 302//1 279//1 60//1 132//1
f 301//1 281//1 59//1 131//1
f 300//1 282//1 98//1 283//1
f 299//1 169//1 43//1 284//1
f 298//1 285//1 50//1 123//1
f 297//1 286//1 56//1 128//1
f 296//1 287//1 99//1 288//1
f 295//1 289//1 55//1 127//1
f 294//1 290//1 100//1 291//1
f 293//1 161//1 35//1 292//1
f 290//1 293//1 292//1 100//1
f 82//1 209//1 293//1 290//1
f 209//1 14//1 161//1 293//1
f 207//1 294//1 291//1 80//1
f 31//1 158//1 294//1 207//1
f 158//1 82//1 290//1 294//1
f 156//1 295//1 127//1 20//1
f 80//1 291//1 295//1 156//1
f 291//1 100//1 289//1 295//1
f 205//1 296//1 288//1 77//1
f 30//1 155//1 296//1 205//1
f 155//1 79//1 287//1 296//1
f 153//1 297//1 128//1 21//1
f 77//1 288//1 297//1 153//1
f 288//1 99//1 286//1 297//1
f 150//1 298//1 123//1 16//1
f 282//1 299//1 284//1 98//1
f 75//1 203//1 299//1 282//1
f 203//1 22//1 169//1 299//1
f 201//1 300//1 283//1 73//1
f 29//1 149//1 300//1 201//1
f 149//1 75//1 282//1 300//1
f 147//1 301//1 131//1 23//1
f 73//1 283//1 301//1 147//1
f 283//1 98//1 281//1 301//1
f 145//1 302//1 132//1 24//1
f 71//1 280//1 302//1 145//1
f 280//1 97//1 279//1 302//1
f 142//1 303//1 122//1 15//1
f 275//1 304//1 277//1 96//1
f 69//1 198//1 304//1 275//1
f 198//1 25//1 170//1 304//1
f 196//1 305//1 276//1 67//1
f 28//1 141//1 305//1 196//1
f 141//1 69//1 275//1 305//1
f 139//1 306//1 135//1 26//1
f 67//1 276//1 306//1 139//1
f 276//1 96//1 274//1 306//1
f 137//1 307//1 136//1 27//1
f 65//1 272//1 307//1 137//1
f 272//1 95//1 271//1 307//1
f 42//1 168//1 308//1 270//1
f 168//1 21//1 191//1 308//1
f 9//1 111//1 309//1 190//1
f 111//1 42//1 270//1 309//1
f 21//1 128//1 310//1 191//1
f 128//1 56//1 269//1 310//1
f 37//1 163//1 311//1 268//1
f 163//1 16//1 192//1 311//1
f 4//1 106//1 312//1 179//1
f 106//1 37//1 268//1 312//1
f 50//1 175//1 313//1 267//1
f 175//1 9//1 190//1 313//1
f 16//1 123//1 314//1 192//1
f 123//1 50//1 267//1 314//1
f 41//1 167//1 315//1 266//1
f 167//1 20//1 193//1 315//1
f 8//1 110//1 316//1 189//1
f 110//1 41//1 266//1 316//1
f 55//1 181//1 317//1 265//1
f 181//1 4//1 179//1 317//1
f 20//1 127//1 318//1 193//1
f 127//1 55//1 265//1 318//1
f 36//1 162//1 319//1 264//1
f 162//1 15//1 194//1 319//1
f 2//1 105//1 320//1 102//1
f 105//1 36//1 264//1 320//1
f 49//1 174//1 321//1 263//1
f 174//1 8//1 189//1 321//1
f 15//1 122//1 322//1 194//1
f 122//1 49//1 263//1 322//1
f 170//1 323//1 262//1 44//1
f 25//1 138//1 323//1 170//1
f 117//1 324//1 118//1 11//1
f 44//1 262//1 324//1 117//1
f 259//1 325//1 261//1 94//1
f 47//1 120//1 325//1 259//1
f 120//1 13//1 195//1 325//1
f 186//1 326//1 260//1 62//1
f 6//1 172//1 326//1 186//1
f 172//1 47//1 259//1 326//1
f 134//1 327//1 138//1 25//1
f 62//1 260//1 327//1 134//1
f 256//1 328//1 258//1 93//1
f 34//1 103//1 328//1 256//1
f 103//1 3//1 180//1 328//1
f 195//1 329//1 257//1 66//1
f 13//1 160//1 329//1 195//1
f 160//1 34//1 256//1 329//1
f 252//1 330//1 254//1 92//1
f 53//1 126//1 330//1 252//1
f 126//1 19//1 197//1 330//1
f 101//1 331//1 253//1 32//1
f 1//1 178//1 331//1 101//1
f 178//1 53//1 252//1 331//1
f 249//1 332//1 251//1 91//1
f 39//1 108//1 332//1 249//1
f 108//1 6//1 186//1 332//1
f 197//1 333//1 250//1 68//1
f 19//1 166//1 333//1 197//1
f 166//1 39//1 249//1 333//1
f 140//1 334//1 141//1 28//1
f 68//1 250//1 334//1 140//1
f 250//1 91//1 248//1 334//1
f 124//1 335//1 247//1 51//1
f 17//1 144//1 335//1 124//1
f 176//1 336//1 105//1 2//1
f 51//1 247//1 336//1 176//1
f 164//1 337//1 144//1 17//1
f 243//1 338//1 245//1 90//1
f 63//1 187//1 338//1 243//1
f 187//1 11//1 185//1 338//1
f 199//1 339//1 244//1 70//1
f 26//1 135//1 339//1 199//1
f 135//1 63//1 243//1 339//1
f 70//1 244//1 340//1 143//1
f 244//1 90//1 242//1 340//1
f 169//1 341//1 241//1 43//1
f 22//1 146//1 341//1 169//1
f 113//1 342//1 115//1 10//1
f 43//1 241//1 342//1 113//1
f 238//1 343//1 240//1 89//1
f 46//1 119//1 343//1 238//1
f 119//1 12//1 200//1 343//1
f 183//1 344//1 239//1 58//1
f 5//1 171//1 344//1 183//1
f 171//1 46//1 238//1 344//1
f 130//1 345//1 146//1 22//1
f 58//1 239//1 345//1 130//1
f 200//1 346//1 237//1 72//1
f 12//1 159//1 346//1 200//1
f 159//1 33//1 236//1 346//1
f 109//1 347//1 114//1 7//1
f 40//1 235//1 347//1 109//1
f 232//1 348//1 234//1 87//1
f 52//1 125//1 348//1 232//1
f 125//1 18//1 202//1 348//1
f 180//1 349//1 233//1 54//1
f 3//1 177//1 349//1 180//1
f 177//1 52//1 232//1 349//1
f 229//1 350//1 231//1 86//1
f 38//1 107//1 350//1 229//1
f 107//1 5//1 183//1 350//1
f 202//1 351//1 230//1 74//1
f 18//1 165//1 351//1 202//1
f 165//1 38//1 229//1 351//1
f 148//1 352//1 149//1 29//1
f 74//1 230//1 352//1 148//1
f 230//1 86//1 228//1 352//1
f 161//1 353//1 227//1 35//1
f 14//1 152//1 353//1 161//1
f 104//1 354//1 106//1 4//1
f 35//1 227//1 354//1 104//1
f 173//1 355//1 225//1 48//1
f 7//1 114//1 355//1 173//1
f 121//1 356//1 152//1 14//1
f 48//1 225//1 356//1 121//1
f 222//1 357//1 224//1 85//1
f 59//1 184//1 357//1 222//1
f 184//1 10//1 182//1 357//1
f 204//1 358//1 223//1 76//1
f 23//1 131//1 358//1 204//1
f 131//1 59//1 222//1 358//1
f 76//1 223//1 359//1 151//1
f 223//1 85//1 221//1 359//1
f 112//1 360//1 111//1 9//1
f 182//1 361//1 219//1 57//1
f 10//1 115//1 361//1 182//1
f 57//1 219//1 362//1 129//1
f 206//1 363//1 218//1 78//1
f 24//1 132//1 363//1 206//1
f 132//1 60//1 217//1 363//1
f 154//1 364//1 155//1 30//1
f 78//1 218//1 364//1 154//1
f 218//1 84//1 216//1 364//1
f 116//1 365//1 110//1 8//1
f 185//1 366//1 214//1 61//1
f 11//1 118//1 366//1 185//1
f 61//1 214//1 367//1 133//1
f 211//1 368//1 213//1 83//1
f 64//1 188//1 368//1 211//1
f 188//1 7//1 173//1 368//1
f 208//1 369//1 212//1 81//1
f 27//1 136//1 369//1 208//1
f 136//1 64//1 211//1 369//1
f 157//1 370//1 158//1 31//1
f 81//1 212//1 370//1 157//1
f 212//1 83//1 210//1 370//1
f 210//1 371//1 209//1 82//1
f 83//1 213//1 371//1 210//1
f 213//1 48//1 121//1 371//1
f 215//1 372//1 167//1 41//1
f 220//1 373//1 168//1 42//1
f 85//1 224//1 374//1 221//1
f 224//1 57//1 129//1 374//1
f 226//1 375//1 163//1 37//1
f 228//1 376//1 203//1 75//1
f 86//1 231//1 376//1 228//1
f 231//1 58//1 130//1 376//1
f 90//1 245//1 377//1 242//1
f 245//1 61//1 133//1 377//1
f 246//1 378//1 162//1 36//1
f 248//1 379//1 198//1 69//1
f 91//1 251//1 379//1 248//1
f 251//1 62//1 134//1 379//1
f 271//1 380//1 188//1 64//1
f 95//1 273//1 380//1 271//1
f 273//1 40//1 109//1 380//1
f 274//1 381//1 187//1 63//1
f 96//1 277//1 381//1 274//1
f 277//1 44//1 117//1 381//1
f 278//1 382//1 174//1 49//1
f 281//1 383//1 184//1 59//1
f 98//1 284//1 383//1 281//1
f 284//1 43//1 113//1 383//1
f 285//1 384//1 175//1 50//1
f 289//1 385//1 181//1 55//1
f 100//1 292//1 385//1 289//1
f 292//1 35//1 104//1 385//1
f 164//1 391//1 387//1 337//1
f 391//1 393//1 389//1 387//1
f 390//1 386//1 389//1 393//1
f 390//1 392//1 388//1 386//1
f 45//1 255//1 388//1 392//1
