# Blender v2.79 (sub 0) OBJ File: 'Test_of_Teamwork.blend'
# www.blender.org
o Z_0_00
g Z_0_00
v -0.000000 -0.000000 -0.000001
v -0.000000 16.000000 -0.000001
v -16.000000 -0.000000 0.000001
v -16.000000 16.000000 0.000000
v -24.000000 -0.000000 0.000001
v -8.000000 -0.000000 0.000000
v -8.000000 16.000000 -0.000001
v -24.000000 16.000000 0.000001
v -0.000000 4.000000 -0.000001
v -28.000000 -0.000000 0.000002
v -12.000000 -0.000000 0.000000
v -4.000000 16.000000 -0.000001
v -20.000000 16.000000 0.000000
v -0.000000 12.000000 -0.000001
v -20.000000 -0.000000 0.000001
v -4.000000 -0.000000 -0.000000
v -12.000000 16.000000 -0.000000
v -28.000000 16.000000 0.000001
v -4.000000 4.000000 -0.000001
v -4.000000 12.000000 -0.000001
v -0.000000 2.000000 -0.000001
v -30.000000 -0.000000 0.000002
v -14.000000 -0.000000 0.000001
v -2.000000 16.000000 -0.000001
v -18.000000 16.000000 0.000000
v -22.000000 -0.000000 0.000001
v -6.000000 -0.000000 -0.000000
v -10.000000 16.000000 -0.000001
v -26.000000 16.000000 0.000001
v -0.000000 6.000000 -0.000001
v -26.000000 -0.000000 0.000002
v -10.000000 -0.000000 0.000000
v -6.000000 16.000000 -0.000001
v -22.000000 16.000000 0.000001
v -0.000000 14.000000 -0.000001
v -18.000000 -0.000000 0.000001
v -2.000000 -0.000000 -0.000001
v -16.000000 2.000000 0.000001
v -14.000000 16.000000 -0.000000
v -30.000000 16.000000 0.000001
v -24.000000 2.000000 0.000001
v -8.000000 2.000000 -0.000000
v -12.000000 2.000000 0.000000
v -4.000000 6.000000 -0.000001
v -4.000000 2.000000 -0.000000
v -2.000000 4.000000 -0.000001
v -4.000000 14.000000 -0.000001
v -2.000000 12.000000 -0.000001
v -28.000000 2.000000 0.000002
v -20.000000 2.000000 0.000001
v -22.000000 2.000000 0.000001
v -18.000000 2.000000 0.000001
v -30.000000 2.000000 0.000002
v -26.000000 2.000000 0.000001
v -2.000000 14.000000 -0.000001
v -6.000000 2.000000 -0.000000
v -2.000000 2.000000 -0.000001
v -2.000000 6.000000 -0.000001
v -14.000000 2.000000 0.000000
v -10.000000 2.000000 0.000000
v -0.000000 1.000000 -0.000001
v -0.000000 17.000000 -0.000001
v -15.000000 -0.000000 0.000001
v -16.000000 15.000000 0.000000
v -1.000000 16.000000 -0.000001
v -17.000000 16.000000 0.000000
v -23.000000 -0.000000 0.000001
v -7.000000 -0.000000 -0.000000
v -9.000000 16.000000 -0.000001
v -25.000000 16.000000 0.000001
v -24.000000 15.000000 0.000001
v -8.000000 15.000000 -0.000001
v -0.000000 5.000000 -0.000001
v -27.000000 -0.000000 0.000002
v -11.000000 -0.000000 0.000000
v -5.000000 16.000000 -0.000001
v -21.000000 16.000000 0.000000
v -0.000000 13.000000 -0.000001
v -19.000000 -0.000000 0.000001
v -3.000000 -0.000000 -0.000000
v -13.000000 16.000000 -0.000000
v -29.000000 16.000000 0.000001
v -4.000000 3.000000 -0.000000
v -1.000000 4.000000 -0.000001
v -4.000000 15.000000 -0.000001
v -4.000000 11.000000 -0.000001
v -1.000000 12.000000 -0.000001
v -20.000000 15.000000 0.000000
v -28.000000 15.000000 0.000001
v -12.000000 15.000000 -0.000000
v -0.000000 3.000000 -0.000001
v -29.000000 -0.000000 0.000002
v -13.000000 -0.000000 0.000000
v -3.000000 16.000000 -0.000001
v -19.000000 16.000000 0.000000
v -0.000000 11.000000 -0.000001
v -21.000000 -0.000000 0.000001
v -5.000000 -0.000000 -0.000000
v -11.000000 16.000000 -0.000000
v -27.000000 16.000000 0.000001
v -25.000000 -0.000000 0.000001
v -9.000000 -0.000000 0.000000
v -7.000000 16.000000 -0.000001
v -23.000000 16.000000 0.000001
v -0.000000 15.000000 -0.000001
v -17.000000 -0.000000 0.000001
v -1.000000 -0.000000 -0.000001
v -16.000000 17.000000 -0.000000
v -16.000000 1.000000 0.000001
v -15.000000 16.000000 -0.000000
v -24.000000 1.000000 0.000001
v -8.000000 1.000000 -0.000000
v -8.000000 17.000000 -0.000001
v -24.000000 17.000000 0.000001
v -28.000000 17.000000 0.000001
v -20.000000 17.000000 0.000000
v -12.000000 17.000000 -0.000000
v -4.000000 17.000000 -0.000001
v -12.000000 1.000000 0.000000
v -4.000000 5.000000 -0.000001
v -4.000000 1.000000 -0.000000
v -3.000000 4.000000 -0.000001
v -4.000000 13.000000 -0.000001
v -3.000000 12.000000 -0.000001
v -28.000000 1.000000 0.000002
v -20.000000 1.000000 0.000001
v -10.000000 15.000000 -0.000000
v -26.000000 15.000000 0.000001
v -18.000000 15.000000 0.000000
v -22.000000 1.000000 0.000001
v -21.000000 2.000000 0.000001
v -23.000000 2.000000 0.000001
v -18.000000 1.000000 0.000001
v -17.000000 2.000000 0.000001
v -19.000000 2.000000 0.000001
v -30.000000 1.000000 0.000002
v -29.000000 2.000000 0.000002
v -26.000000 1.000000 0.000002
v -25.000000 2.000000 0.000001
v -27.000000 2.000000 0.000002
v -2.000000 11.000000 -0.000001
v -2.000000 15.000000 -0.000001
v -2.000000 13.000000 -0.000001
v -1.000000 14.000000 -0.000001
v -3.000000 14.000000 -0.000001
v -6.000000 1.000000 -0.000000
v -5.000000 2.000000 -0.000000
v -7.000000 2.000000 -0.000000
v -2.000000 3.000000 -0.000001
v -2.000000 1.000000 -0.000001
v -1.000000 2.000000 -0.000001
v -3.000000 2.000000 -0.000001
v -2.000000 5.000000 -0.000001
v -1.000000 6.000000 -0.000001
v -3.000000 6.000000 -0.000001
v -14.000000 1.000000 0.000000
v -13.000000 2.000000 0.000000
v -15.000000 2.000000 0.000001
v -10.000000 1.000000 0.000000
v -9.000000 2.000000 0.000000
v -11.000000 2.000000 0.000000
v -6.000000 17.000000 -0.000001
v -2.000000 17.000000 -0.000001
v -14.000000 17.000000 -0.000000
v -10.000000 17.000000 -0.000001
v -22.000000 17.000000 0.000000
v -18.000000 17.000000 0.000000
v -30.000000 17.000000 0.000001
v -26.000000 17.000000 0.000001
v -6.000000 15.000000 -0.000001
v -22.000000 15.000000 0.000001
v -30.000000 15.000000 0.000001
v -14.000000 15.000000 -0.000000
v -13.000000 15.000000 -0.000000
v -29.000000 15.000000 0.000001
v -21.000000 15.000000 0.000000
v -5.000000 15.000000 -0.000001
v -27.000000 17.000000 0.000001
v -25.000000 17.000000 0.000001
v -29.000000 17.000000 0.000001
v -19.000000 17.000000 0.000000
v -17.000000 17.000000 0.000000
v -23.000000 17.000000 0.000001
v -21.000000 17.000000 0.000000
v -11.000000 17.000000 -0.000000
v -9.000000 17.000000 -0.000001
v -15.000000 17.000000 -0.000000
v -13.000000 17.000000 -0.000000
v -3.000000 17.000000 -0.000001
v -1.000000 17.000000 -0.000001
v -7.000000 17.000000 -0.000001
v -5.000000 17.000000 -0.000001
v -11.000000 1.000000 0.000000
v -9.000000 1.000000 0.000000
v -15.000000 1.000000 0.000001
v -13.000000 1.000000 0.000000
v -3.000000 5.000000 -0.000001
v -1.000000 5.000000 -0.000001
v -3.000000 1.000000 -0.000000
v -1.000000 1.000000 -0.000001
v -1.000000 3.000000 -0.000001
v -7.000000 1.000000 -0.000000
v -5.000000 1.000000 -0.000000
v -3.000000 13.000000 -0.000001
v -1.000000 13.000000 -0.000001
v -1.000000 15.000000 -0.000001
v -1.000000 11.000000 -0.000001
v -27.000000 1.000000 0.000002
v -25.000000 1.000000 0.000001
v -29.000000 1.000000 0.000002
v -19.000000 1.000000 0.000001
v -17.000000 1.000000 0.000001
v -23.000000 1.000000 0.000001
v -21.000000 1.000000 0.000001
v -17.000000 15.000000 0.000000
v -25.000000 15.000000 0.000001
v -9.000000 15.000000 -0.000001
v -11.000000 15.000000 -0.000000
v -27.000000 15.000000 0.000001
v -19.000000 15.000000 0.000000
v -3.000000 11.000000 -0.000001
v -3.000000 15.000000 -0.000001
v -3.000000 3.000000 -0.000001
v -7.000000 15.000000 -0.000001
v -23.000000 15.000000 0.000001
v -15.000000 15.000000 -0.000000
vn -0.0000 -0.0000 -1.0000
s off
f 226//1 64//1 4//1 110//1
f 225//1 71//1 8//1 104//1
f 224//1 72//1 7//1 103//1
f 223//1 83//1 19//1 122//1
f 222//1 85//1 12//1 94//1
f 221//1 86//1 20//1 124//1
f 220//1 88//1 13//1 95//1
f 219//1 89//1 18//1 100//1
f 218//1 90//1 17//1 99//1
f 217//1 127//1 28//1 69//1
f 216//1 128//1 29//1 70//1
f 215//1 129//1 25//1 66//1
f 214//1 130//1 51//1 131//1
f 213//1 111//1 41//1 132//1
f 212//1 133//1 52//1 134//1
f 211//1 126//1 50//1 135//1
f 210//1 136//1 53//1 137//1
f 209//1 138//1 54//1 139//1
f 208//1 125//1 49//1 140//1
f 207//1 141//1 48//1 87//1
f 206//1 142//1 24//1 65//1
f 205//1 143//1 55//1 144//1
f 204//1 123//1 47//1 145//1
f 203//1 146//1 56//1 147//1
f 202//1 112//1 42//1 148//1
f 201//1 149//1 46//1 84//1
f 200//1 150//1 57//1 151//1
f 199//1 121//1 45//1 152//1
f 198//1 153//1 58//1 154//1
f 197//1 120//1 44//1 155//1
f 196//1 156//1 59//1 157//1
f 195//1 109//1 38//1 158//1
f 194//1 159//1 60//1 160//1
f 193//1 119//1 43//1 161//1
f 177//1 170//1 33//1 76//1
f 176//1 171//1 34//1 77//1
f 175//1 172//1 40//1 82//1
f 174//1 173//1 39//1 81//1
f 90//1 174//1 81//1 17//1
f 89//1 175//1 82//1 18//1
f 88//1 176//1 77//1 13//1
f 85//1 177//1 76//1 12//1
f 29//1 100//1 178//1 169//1
f 100//1 18//1 115//1 178//1
f 8//1 70//1 179//1 114//1
f 70//1 29//1 169//1 179//1
f 18//1 82//1 180//1 115//1
f 82//1 40//1 168//1 180//1
f 25//1 95//1 181//1 167//1
f 95//1 13//1 116//1 181//1
f 4//1 66//1 182//1 108//1
f 66//1 25//1 167//1 182//1
f 34//1 104//1 183//1 166//1
f 104//1 8//1 114//1 183//1
f 13//1 77//1 184//1 116//1
f 77//1 34//1 166//1 184//1
f 28//1 99//1 185//1 165//1
f 99//1 17//1 117//1 185//1
f 7//1 69//1 186//1 113//1
f 69//1 28//1 165//1 186//1
f 39//1 110//1 187//1 164//1
f 110//1 4//1 108//1 187//1
f 17//1 81//1 188//1 117//1
f 81//1 39//1 164//1 188//1
f 24//1 94//1 189//1 163//1
f 94//1 12//1 118//1 189//1
f 2//1 65//1 190//1 62//1
f 65//1 24//1 163//1 190//1
f 33//1 103//1 191//1 162//1
f 103//1 7//1 113//1 191//1
f 12//1 76//1 192//1 118//1
f 76//1 33//1 162//1 192//1
f 159//1 193//1 161//1 60//1
f 32//1 75//1 193//1 159//1
f 75//1 11//1 119//1 193//1
f 112//1 194//1 160//1 42//1
f 6//1 102//1 194//1 112//1
f 102//1 32//1 159//1 194//1
f 156//1 195//1 158//1 59//1
f 23//1 63//1 195//1 156//1
f 63//1 3//1 109//1 195//1
f 119//1 196//1 157//1 43//1
f 11//1 93//1 196//1 119//1
f 93//1 23//1 156//1 196//1
f 153//1 197//1 155//1 58//1
f 46//1 122//1 197//1 153//1
f 122//1 19//1 120//1 197//1
f 73//1 198//1 154//1 30//1
f 9//1 84//1 198//1 73//1
f 84//1 46//1 153//1 198//1
f 150//1 199//1 152//1 57//1
f 37//1 80//1 199//1 150//1
f 80//1 16//1 121//1 199//1
f 61//1 200//1 151//1 21//1
f 1//1 107//1 200//1 61//1
f 107//1 37//1 150//1 200//1
f 91//1 201//1 84//1 9//1
f 21//1 151//1 201//1 91//1
f 151//1 57//1 149//1 201//1
f 146//1 202//1 148//1 56//1
f 27//1 68//1 202//1 146//1
f 68//1 6//1 112//1 202//1
f 121//1 203//1 147//1 45//1
f 16//1 98//1 203//1 121//1
f 98//1 27//1 146//1 203//1
f 143//1 204//1 145//1 55//1
f 48//1 124//1 204//1 143//1
f 124//1 20//1 123//1 204//1
f 78//1 205//1 144//1 35//1
f 14//1 87//1 205//1 78//1
f 87//1 48//1 143//1 205//1
f 105//1 206//1 65//1 2//1
f 35//1 144//1 206//1 105//1
f 144//1 55//1 142//1 206//1
f 96//1 207//1 87//1 14//1
f 138//1 208//1 140//1 54//1
f 31//1 74//1 208//1 138//1
f 74//1 10//1 125//1 208//1
f 111//1 209//1 139//1 41//1
f 5//1 101//1 209//1 111//1
f 101//1 31//1 138//1 209//1
f 125//1 210//1 137//1 49//1
f 10//1 92//1 210//1 125//1
f 92//1 22//1 136//1 210//1
f 133//1 211//1 135//1 52//1
f 36//1 79//1 211//1 133//1
f 79//1 15//1 126//1 211//1
f 109//1 212//1 134//1 38//1
f 3//1 106//1 212//1 109//1
f 106//1 36//1 133//1 212//1
f 130//1 213//1 132//1 51//1
f 26//1 67//1 213//1 130//1
f 67//1 5//1 111//1 213//1
f 126//1 214//1 131//1 50//1
f 15//1 97//1 214//1 126//1
f 97//1 26//1 130//1 214//1
f 64//1 215//1 66//1 4//1
f 71//1 216//1 70//1 8//1
f 72//1 217//1 69//1 7//1
f 127//1 218//1 99//1 28//1
f 128//1 219//1 100//1 29//1
f 129//1 220//1 95//1 25//1
f 141//1 221//1 124//1 48//1
f 142//1 222//1 94//1 24//1
f 55//1 145//1 222//1 142//1
f 145//1 47//1 85//1 222//1
f 149//1 223//1 122//1 46//1
f 57//1 152//1 223//1 149//1
f 152//1 45//1 83//1 223//1
f 170//1 224//1 103//1 33//1
f 171//1 225//1 104//1 34//1
f 173//1 226//1 110//1 39//1
