# Blender v2.79 (sub 0) OBJ File: 'Test_of_Teamwork.blend'
# www.blender.org
o Z_0_03
g Z_0_03
v -0.000000 -0.000000 -0.000001
v -0.000000 16.000000 -0.000001
v -16.000000 -0.000000 0.000001
v -16.000000 16.000000 0.000000
v -24.000000 -0.000000 0.000001
v -8.000000 -0.000000 0.000000
v -8.000000 16.000000 -0.000001
v -24.000000 16.000000 0.000001
v -8.000000 8.000000 -0.000000
v -28.000000 -0.000000 0.000002
v -12.000000 -0.000000 0.000000
v -4.000000 16.000000 -0.000001
v -20.000000 16.000000 0.000000
v -0.000000 12.000000 -0.000001
v -20.000000 -0.000000 0.000001
v -4.000000 -0.000000 -0.000000
v -12.000000 16.000000 -0.000000
v -28.000000 16.000000 0.000001
v -8.000000 12.000000 -0.000001
v -4.000000 8.000000 -0.000001
v -4.000000 12.000000 -0.000001
v -0.000000 2.000000 -0.000001
v -30.000000 -0.000000 0.000002
v -14.000000 -0.000000 0.000001
v -2.000000 16.000000 -0.000001
v -18.000000 16.000000 0.000000
v -22.000000 -0.000000 0.000001
v -6.000000 -0.000000 -0.000000
v -10.000000 16.000000 -0.000001
v -26.000000 16.000000 0.000001
v -8.000000 14.000000 -0.000001
v -8.000000 6.000000 -0.000000
v -0.000000 6.000000 -0.000001
v -26.000000 -0.000000 0.000002
v -10.000000 -0.000000 0.000000
v -6.000000 16.000000 -0.000001
v -22.000000 16.000000 0.000001
v -0.000000 14.000000 -0.000001
v -18.000000 -0.000000 0.000001
v -2.000000 -0.000000 -0.000001
v -16.000000 2.000000 0.000001
v -14.000000 16.000000 -0.000000
v -30.000000 16.000000 0.000001
v -24.000000 2.000000 0.000001
v -8.000000 10.000000 -0.000000
v -8.000000 2.000000 -0.000000
v -6.000000 8.000000 -0.000001
v -12.000000 2.000000 0.000000
v -4.000000 6.000000 -0.000001
v -4.000000 2.000000 -0.000000
v -4.000000 14.000000 -0.000001
v -4.000000 10.000000 -0.000001
v -2.000000 12.000000 -0.000001
v -6.000000 12.000000 -0.000001
v -28.000000 2.000000 0.000002
v -20.000000 2.000000 0.000001
v -22.000000 2.000000 0.000001
v -18.000000 2.000000 0.000001
v -30.000000 2.000000 0.000002
v -26.000000 2.000000 0.000001
v -6.000000 10.000000 -0.000001
v -2.000000 14.000000 -0.000001
v -6.000000 2.000000 -0.000000
v -2.000000 2.000000 -0.000001
v -2.000000 6.000000 -0.000001
v -14.000000 2.000000 0.000000
v -10.000000 2.000000 0.000000
v -6.000000 6.000000 -0.000000
v -6.000000 14.000000 -0.000001
v -0.000000 1.000000 -0.000001
v -0.000000 17.000000 -0.000001
v -15.000000 -0.000000 0.000001
v -16.000000 15.000000 0.000000
v -1.000000 16.000000 -0.000001
v -17.000000 16.000000 0.000000
v -23.000000 -0.000000 0.000001
v -7.000000 -0.000000 -0.000000
v -9.000000 16.000000 -0.000001
v -25.000000 16.000000 0.000001
v -24.000000 15.000000 0.000001
v -8.000000 15.000000 -0.000001
v -8.000000 7.000000 -0.000000
v -27.000000 -0.000000 0.000002
v -11.000000 -0.000000 0.000000
v -5.000000 16.000000 -0.000001
v -21.000000 16.000000 0.000000
v -0.000000 13.000000 -0.000001
v -19.000000 -0.000000 0.000001
v -3.000000 -0.000000 -0.000000
v -13.000000 16.000000 -0.000000
v -29.000000 16.000000 0.000001
v -8.000000 11.000000 -0.000000
v -5.000000 8.000000 -0.000001
v -4.000000 7.000000 -0.000001
v -4.000000 15.000000 -0.000001
v -4.000000 11.000000 -0.000001
v -1.000000 12.000000 -0.000001
v -5.000000 12.000000 -0.000001
v -20.000000 15.000000 0.000000
v -28.000000 15.000000 0.000001
v -12.000000 15.000000 -0.000000
v -29.000000 -0.000000 0.000002
v -13.000000 -0.000000 0.000000
v -3.000000 16.000000 -0.000001
v -19.000000 16.000000 0.000000
v -0.000000 11.000000 -0.000001
v -21.000000 -0.000000 0.000001
v -5.000000 -0.000000 -0.000000
v -11.000000 16.000000 -0.000000
v -27.000000 16.000000 0.000001
v -8.000000 13.000000 -0.000001
v -25.000000 -0.000000 0.000001
v -9.000000 -0.000000 0.000000
v -7.000000 16.000000 -0.000001
v -23.000000 16.000000 0.000001
v -0.000000 15.000000 -0.000001
v -17.000000 -0.000000 0.000001
v -1.000000 -0.000000 -0.000001
v -16.000000 17.000000 -0.000000
v -16.000000 1.000000 0.000001
v -15.000000 16.000000 -0.000000
v -24.000000 1.000000 0.000001
v -8.000000 9.000000 -0.000000
v -8.000000 1.000000 -0.000000
v -7.000000 8.000000 -0.000000
v -8.000000 17.000000 -0.000001
v -24.000000 17.000000 0.000001
v -28.000000 17.000000 0.000001
v -20.000000 17.000000 0.000000
v -12.000000 17.000000 -0.000000
v -4.000000 17.000000 -0.000001
v -12.000000 1.000000 0.000000
v -4.000000 1.000000 -0.000000
v -4.000000 13.000000 -0.000001
v -4.000000 9.000000 -0.000001
v -3.000000 12.000000 -0.000001
v -7.000000 12.000000 -0.000001
v -28.000000 1.000000 0.000002
v -20.000000 1.000000 0.000001
v -10.000000 15.000000 -0.000000
v -26.000000 15.000000 0.000001
v -18.000000 15.000000 0.000000
v -22.000000 1.000000 0.000001
v -21.000000 2.000000 0.000001
v -23.000000 2.000000 0.000001
v -18.000000 1.000000 0.000001
v -17.000000 2.000000 0.000001
v -19.000000 2.000000 0.000001
v -30.000000 1.000000 0.000002
v -29.000000 2.000000 0.000002
v -26.000000 1.000000 0.000002
v -25.000000 2.000000 0.000001
v -27.000000 2.000000 0.000002
v -6.000000 11.000000 -0.000001
v -6.000000 9.000000 -0.000001
v -5.000000 10.000000 -0.000001
v -7.000000 10.000000 -0.000001
v -2.000000 11.000000 -0.000001
v -2.000000 15.000000 -0.000001
v -2.000000 13.000000 -0.000001
v -1.000000 14.000000 -0.000001
v -3.000000 14.000000 -0.000001
v -6.000000 1.000000 -0.000000
v -5.000000 2.000000 -0.000000
v -7.000000 2.000000 -0.000000
v -2.000000 1.000000 -0.000001
v -1.000000 2.000000 -0.000001
v -3.000000 2.000000 -0.000001
v -1.000000 6.000000 -0.000001
v -3.000000 6.000000 -0.000001
v -14.000000 1.000000 0.000000
v -13.000000 2.000000 0.000000
v -15.000000 2.000000 0.000001
v -10.000000 1.000000 0.000000
v -9.000000 2.000000 0.000000
v -11.000000 2.000000 0.000000
v -6.000000 17.000000 -0.000001
v -2.000000 17.000000 -0.000001
v -14.000000 17.000000 -0.000000
v -10.000000 17.000000 -0.000001
v -22.000000 17.000000 0.000000
v -18.000000 17.000000 0.000000
v -30.000000 17.000000 0.000001
v -26.000000 17.000000 0.000001
v -6.000000 7.000000 -0.000000
v -5.000000 6.000000 -0.000001
v -7.000000 6.000000 -0.000000
v -6.000000 15.000000 -0.000001
v -6.000000 13.000000 -0.000001
v -5.000000 14.000000 -0.000001
v -7.000000 14.000000 -0.000001
v -22.000000 15.000000 0.000001
v -30.000000 15.000000 0.000001
v -14.000000 15.000000 -0.000000
v -13.000000 15.000000 -0.000000
v -29.000000 15.000000 0.000001
v -21.000000 15.000000 0.000000
v -7.000000 13.000000 -0.000001
v -5.000000 13.000000 -0.000001
v -5.000000 15.000000 -0.000001
v -5.000000 7.000000 -0.000001
v -27.000000 17.000000 0.000001
v -25.000000 17.000000 0.000001
v -29.000000 17.000000 0.000001
v -19.000000 17.000000 0.000000
v -17.000000 17.000000 0.000000
v -23.000000 17.000000 0.000001
v -21.000000 17.000000 0.000000
v -11.000000 17.000000 -0.000000
v -9.000000 17.000000 -0.000001
v -15.000000 17.000000 -0.000000
v -13.000000 17.000000 -0.000000
v -3.000000 17.000000 -0.000001
v -1.000000 17.000000 -0.000001
v -7.000000 17.000000 -0.000001
v -5.000000 17.000000 -0.000001
v -11.000000 1.000000 0.000000
v -9.000000 1.000000 0.000000
v -15.000000 1.000000 0.000001
v -13.000000 1.000000 0.000000
v -3.000000 1.000000 -0.000000
v -1.000000 1.000000 -0.000001
v -7.000000 1.000000 -0.000000
v -5.000000 1.000000 -0.000000
v -3.000000 13.000000 -0.000001
v -1.000000 13.000000 -0.000001
v -1.000000 15.000000 -0.000001
v -1.000000 11.000000 -0.000001
v -7.000000 9.000000 -0.000000
v -5.000000 9.000000 -0.000001
v -5.000000 11.000000 -0.000001
v -27.000000 1.000000 0.000002
v -25.000000 1.000000 0.000001
v -29.000000 1.000000 0.000002
v -19.000000 1.000000 0.000001
v -17.000000 1.000000 0.000001
v -23.000000 1.000000 0.000001
v -21.000000 1.000000 0.000001
v -17.000000 15.000000 0.000000
v -25.000000 15.000000 0.000001
v -9.000000 15.000000 -0.000001
v -11.000000 15.000000 -0.000000
v -27.000000 15.000000 0.000001
v -19.000000 15.000000 0.000000
v -7.000000 11.000000 -0.000001
v -3.000000 11.000000 -0.000001
v -3.000000 15.000000 -0.000001
v -7.000000 7.000000 -0.000000
v -7.000000 15.000000 -0.000001
v -23.000000 15.000000 0.000001
v -15.000000 15.000000 -0.000000
v -3.000000 8.000000 -0.000001
v -3.000000 10.000000 -0.000001
v -3.000000 7.000000 -0.000001
v -3.000000 9.000000 -0.000001
v -2.000000 8.000000 -0.000001
v -2.000000 10.000000 -0.000001
v -2.000000 7.000000 -0.000001
v -2.000000 9.000000 -0.000001
v -1.000000 8.000000 -0.000001
v -1.000000 10.000000 -0.000001
v -1.000000 7.000000 -0.000001
v -1.000000 9.000000 -0.000001
v -0.000000 8.000000 -0.000001
v -0.000000 10.000000 -0.000001
v -0.000000 7.000000 -0.000001
v -0.000000 9.000000 -0.000001
vn -0.0000 -0.0000 -1.0000
s off
f 251//1 73//1 4//1 121//1
f 250//1 80//1 8//1 115//1
f 249//1 81//1 7//1 114//1
f 248//1 82//1 9//1 125//1
f 247//1 95//1 12//1 104//1
f 246//1 96//1 21//1 136//1
f 245//1 92//1 19//1 137//1
f 244//1 99//1 13//1 105//1
f 243//1 100//1 18//1 110//1
f 242//1 101//1 17//1 109//1
f 241//1 140//1 29//1 78//1
f 240//1 141//1 30//1 79//1
f 239//1 142//1 26//1 75//1
f 238//1 143//1 57//1 144//1
f 237//1 122//1 44//1 145//1
f 236//1 146//1 58//1 147//1
f 235//1 139//1 56//1 148//1
f 234//1 149//1 59//1 150//1
f 233//1 151//1 60//1 152//1
f 232//1 138//1 55//1 153//1
f 231//1 154//1 54//1 98//1
f 230//1 155//1 61//1 156//1
f 229//1 123//1 45//1 157//1
f 228//1 158//1 53//1 97//1
f 227//1 159//1 25//1 74//1
f 226//1 160//1 62//1 161//1
f 225//1 134//1 51//1 162//1
f 224//1 163//1 63//1 164//1
f 223//1 124//1 46//1 165//1
f 222//1 166//1 64//1 167//1
f 221//1 133//1 50//1 168//1
f 220//1 171//1 66//1 172//1
f 219//1 120//1 41//1 173//1
f 218//1 174//1 67//1 175//1
f 217//1 132//1 48//1 176//1
f 201//1 185//1 47//1 93//1
f 200//1 188//1 36//1 85//1
f 199//1 189//1 69//1 190//1
f 198//1 111//1 31//1 191//1
f 197//1 192//1 37//1 86//1
f 196//1 193//1 43//1 91//1
f 195//1 194//1 42//1 90//1
f 101//1 195//1 90//1 17//1
f 100//1 196//1 91//1 18//1
f 99//1 197//1 86//1 13//1
f 189//1 198//1 191//1 69//1
f 54//1 137//1 198//1 189//1
f 137//1 19//1 111//1 198//1
f 134//1 199//1 190//1 51//1
f 21//1 98//1 199//1 134//1
f 98//1 54//1 189//1 199//1
f 95//1 200//1 85//1 12//1
f 51//1 190//1 200//1 95//1
f 190//1 69//1 188//1 200//1
f 94//1 201//1 93//1 20//1
f 49//1 186//1 201//1 94//1
f 186//1 68//1 185//1 201//1
f 30//1 110//1 202//1 184//1
f 110//1 18//1 128//1 202//1
f 8//1 79//1 203//1 127//1
f 79//1 30//1 184//1 203//1
f 18//1 91//1 204//1 128//1
f 91//1 43//1 183//1 204//1
f 26//1 105//1 205//1 182//1
f 105//1 13//1 129//1 205//1
f 4//1 75//1 206//1 119//1
f 75//1 26//1 182//1 206//1
f 37//1 115//1 207//1 181//1
f 115//1 8//1 127//1 207//1
f 13//1 86//1 208//1 129//1
f 86//1 37//1 181//1 208//1
f 29//1 109//1 209//1 180//1
f 109//1 17//1 130//1 209//1
f 7//1 78//1 210//1 126//1
f 78//1 29//1 180//1 210//1
f 42//1 121//1 211//1 179//1
f 121//1 4//1 119//1 211//1
f 17//1 90//1 212//1 130//1
f 90//1 42//1 179//1 212//1
f 25//1 104//1 213//1 178//1
f 104//1 12//1 131//1 213//1
f 2//1 74//1 214//1 71//1
f 74//1 25//1 178//1 214//1
f 36//1 114//1 215//1 177//1
f 114//1 7//1 126//1 215//1
f 12//1 85//1 216//1 131//1
f 85//1 36//1 177//1 216//1
f 174//1 217//1 176//1 67//1
f 35//1 84//1 217//1 174//1
f 84//1 11//1 132//1 217//1
f 124//1 218//1 175//1 46//1
f 6//1 113//1 218//1 124//1
f 113//1 35//1 174//1 218//1
f 171//1 219//1 173//1 66//1
f 24//1 72//1 219//1 171//1
f 72//1 3//1 120//1 219//1
f 132//1 220//1 172//1 48//1
f 11//1 103//1 220//1 132//1
f 103//1 24//1 171//1 220//1
f 166//1 221//1 168//1 64//1
f 40//1 89//1 221//1 166//1
f 89//1 16//1 133//1 221//1
f 70//1 222//1 167//1 22//1
f 1//1 118//1 222//1 70//1
f 118//1 40//1 166//1 222//1
f 163//1 223//1 165//1 63//1
f 28//1 77//1 223//1 163//1
f 77//1 6//1 124//1 223//1
f 133//1 224//1 164//1 50//1
f 16//1 108//1 224//1 133//1
f 108//1 28//1 163//1 224//1
f 160//1 225//1 162//1 62//1
f 53//1 136//1 225//1 160//1
f 136//1 21//1 134//1 225//1
f 87//1 226//1 161//1 38//1
f 14//1 97//1 226//1 87//1
f 97//1 53//1 160//1 226//1
f 116//1 227//1 74//1 2//1
f 38//1 161//1 227//1 116//1
f 161//1 62//1 159//1 227//1
f 106//1 228//1 97//1 14//1
f 155//1 229//1 157//1 61//1
f 47//1 125//1 229//1 155//1
f 125//1 9//1 123//1 229//1
f 135//1 230//1 156//1 52//1
f 20//1 93//1 230//1 135//1
f 93//1 47//1 155//1 230//1
f 96//1 231//1 98//1 21//1
f 52//1 156//1 231//1 96//1
f 156//1 61//1 154//1 231//1
f 151//1 232//1 153//1 60//1
f 34//1 83//1 232//1 151//1
f 83//1 10//1 138//1 232//1
f 122//1 233//1 152//1 44//1
f 5//1 112//1 233//1 122//1
f 112//1 34//1 151//1 233//1
f 138//1 234//1 150//1 55//1
f 10//1 102//1 234//1 138//1
f 102//1 23//1 149//1 234//1
f 146//1 235//1 148//1 58//1
f 39//1 88//1 235//1 146//1
f 88//1 15//1 139//1 235//1
f 120//1 236//1 147//1 41//1
f 3//1 117//1 236//1 120//1
f 117//1 39//1 146//1 236//1
f 143//1 237//1 145//1 57//1
f 27//1 76//1 237//1 143//1
f 76//1 5//1 122//1 237//1
f 139//1 238//1 144//1 56//1
f 15//1 107//1 238//1 139//1
f 107//1 27//1 143//1 238//1
f 73//1 239//1 75//1 4//1
f 80//1 240//1 79//1 8//1
f 81//1 241//1 78//1 7//1
f 140//1 242//1 109//1 29//1
f 141//1 243//1 110//1 30//1
f 142//1 244//1 105//1 26//1
f 154//1 245//1 137//1 54//1
f 61//1 157//1 245//1 154//1
f 157//1 45//1 92//1 245//1
f 158//1 246//1 136//1 53//1
f 159//1 247//1 104//1 25//1
f 62//1 162//1 247//1 159//1
f 162//1 51//1 95//1 247//1
f 185//1 248//1 125//1 47//1
f 68//1 187//1 248//1 185//1
f 187//1 32//1 82//1 248//1
f 188//1 249//1 114//1 36//1
f 69//1 191//1 249//1 188//1
f 191//1 31//1 81//1 249//1
f 192//1 250//1 115//1 37//1
f 194//1 251//1 121//1 42//1
f 52//1 96//1 246//1 253//1
f 158//1 257//1 253//1 246//1
f 228//1 261//1 257//1 158//1
f 106//1 265//1 261//1 228//1
f 135//1 52//1 253//1 255//1
f 135//1 255//1 252//1 20//1
f 94//1 20//1 252//1 254//1
f 94//1 254//1 170//1 49//1
f 65//1 170//1 254//1 258//1
f 256//1 258//1 254//1 252//1
f 256//1 252//1 255//1 259//1
f 257//1 259//1 255//1 253//1
f 261//1 263//1 259//1 257//1
f 260//1 256//1 259//1 263//1
f 260//1 262//1 258//1 256//1
f 169//1 65//1 258//1 262//1
f 265//1 267//1 263//1 261//1
f 264//1 260//1 263//1 267//1
f 264//1 266//1 262//1 260//1
f 33//1 169//1 262//1 266//1
