# Blender v2.79 (sub 0) OBJ File: 'Test_of_Teamwork.blend'
# www.blender.org
o Z_0_05
g Z_0_05
v -0.000000 -0.000000 -0.000001
v -0.000000 16.000000 -0.000001
v -16.000000 16.000000 0.000000
v -8.000000 16.000000 -0.000001
v -24.000000 16.000000 0.000001
v -0.000000 4.000000 -0.000001
v -4.000000 16.000000 -0.000001
v -20.000000 16.000000 0.000000
v -0.000000 12.000000 -0.000001
v -12.000000 16.000000 -0.000000
v -28.000000 16.000000 0.000001
v -4.000000 4.000000 -0.000001
v -0.000000 2.000000 -0.000001
v -2.000000 16.000000 -0.000001
v -18.000000 16.000000 0.000000
v -22.000000 -0.000000 0.000001
v -10.000000 16.000000 -0.000001
v -26.000000 16.000000 0.000001
v -8.000000 6.000000 -0.000000
v -0.000000 6.000000 -0.000001
v -6.000000 16.000000 -0.000001
v -22.000000 16.000000 0.000001
v -0.000000 14.000000 -0.000001
v -14.000000 16.000000 -0.000000
v -30.000000 16.000000 0.000001
v -24.000000 2.000000 0.000001
v -4.000000 6.000000 -0.000001
v -2.000000 4.000000 -0.000001
v -6.000000 4.000000 -0.000000
v -2.000000 12.000000 -0.000001
v -20.000000 2.000000 0.000001
v -22.000000 2.000000 0.000001
v -2.000000 14.000000 -0.000001
v -2.000000 2.000000 -0.000001
v -2.000000 6.000000 -0.000001
v -6.000000 6.000000 -0.000000
v -0.000000 1.000000 -0.000001
v -0.000000 17.000000 -0.000001
v -16.000000 15.000000 0.000000
v -1.000000 16.000000 -0.000001
v -17.000000 16.000000 0.000000
v -23.000000 -0.000000 0.000001
v -9.000000 16.000000 -0.000001
v -25.000000 16.000000 0.000001
v -24.000000 15.000000 0.000001
v -8.000000 15.000000 -0.000001
v -0.000000 5.000000 -0.000001
v -5.000000 16.000000 -0.000001
v -21.000000 16.000000 0.000000
v -0.000000 13.000000 -0.000001
v -13.000000 16.000000 -0.000000
v -29.000000 16.000000 0.000001
v -24.000000 3.000000 0.000001
v -1.000000 4.000000 -0.000001
v -5.000000 4.000000 -0.000000
v -4.000000 15.000000 -0.000001
v -1.000000 12.000000 -0.000001
v -20.000000 3.000000 0.000001
v -20.000000 15.000000 0.000000
v -28.000000 15.000000 0.000001
v -12.000000 15.000000 -0.000000
v -0.000000 3.000000 -0.000001
v -3.000000 16.000000 -0.000001
v -19.000000 16.000000 0.000000
v -0.000000 11.000000 -0.000001
v -11.000000 16.000000 -0.000000
v -27.000000 16.000000 0.000001
v -8.000000 5.000000 -0.000000
v -7.000000 16.000000 -0.000001
v -23.000000 16.000000 0.000001
v -0.000000 15.000000 -0.000001
v -1.000000 -0.000000 -0.000001
v -16.000000 17.000000 -0.000000
v -15.000000 16.000000 -0.000000
v -24.000000 1.000000 0.000001
v -8.000000 17.000000 -0.000001
v -24.000000 17.000000 0.000001
v -28.000000 17.000000 0.000001
v -20.000000 17.000000 0.000000
v -12.000000 17.000000 -0.000000
v -4.000000 17.000000 -0.000001
v -4.000000 5.000000 -0.000001
v -3.000000 4.000000 -0.000001
v -7.000000 4.000000 -0.000000
v -10.000000 15.000000 -0.000000
v -26.000000 15.000000 0.000001
v -18.000000 15.000000 0.000000
v -22.000000 3.000000 0.000001
v -22.000000 1.000000 0.000001
v -21.000000 2.000000 0.000001
v -23.000000 2.000000 0.000001
v -25.000000 2.000000 0.000001
v -2.000000 11.000000 -0.000001
v -2.000000 15.000000 -0.000001
v -2.000000 13.000000 -0.000001
v -1.000000 14.000000 -0.000001
v -2.000000 3.000000 -0.000001
v -1.000000 2.000000 -0.000001
v -2.000000 5.000000 -0.000001
v -1.000000 6.000000 -0.000001
v -3.000000 6.000000 -0.000001
v -6.000000 17.000000 -0.000001
v -2.000000 17.000000 -0.000001
v -14.000000 17.000000 -0.000000
v -10.000000 17.000000 -0.000001
v -22.000000 17.000000 0.000000
v -18.000000 17.000000 0.000000
v -30.000000 17.000000 0.000001
v -26.000000 17.000000 0.000001
v -6.000000 5.000000 -0.000000
v -5.000000 6.000000 -0.000001
v -7.000000 6.000000 -0.000000
v -6.000000 15.000000 -0.000001
v -22.000000 15.000000 0.000001
v -30.000000 15.000000 0.000001
v -14.000000 15.000000 -0.000000
v -13.000000 15.000000 -0.000000
v -29.000000 15.000000 0.000001
v -21.000000 15.000000 0.000000
v -5.000000 15.000000 -0.000001
v -7.000000 5.000000 -0.000000
v -5.000000 5.000000 -0.000000
v -27.000000 17.000000 0.000001
v -25.000000 17.000000 0.000001
v -29.000000 17.000000 0.000001
v -19.000000 17.000000 0.000000
v -17.000000 17.000000 0.000000
v -23.000000 17.000000 0.000001
v -21.000000 17.000000 0.000000
v -11.000000 17.000000 -0.000000
v -9.000000 17.000000 -0.000001
v -15.000000 17.000000 -0.000000
v -13.000000 17.000000 -0.000000
v -3.000000 17.000000 -0.000001
v -1.000000 17.000000 -0.000001
v -7.000000 17.000000 -0.000001
v -5.000000 17.000000 -0.000001
v -3.000000 5.000000 -0.000001
v -1.000000 5.000000 -0.000001
v -1.000000 1.000000 -0.000001
v -1.000000 3.000000 -0.000001
v -1.000000 13.000000 -0.000001
v -1.000000 15.000000 -0.000001
v -1.000000 11.000000 -0.000001
v -25.000000 3.000000 0.000001
v -23.000000 1.000000 0.000001
v -21.000000 1.000000 0.000001
v -21.000000 3.000000 0.000001
v -17.000000 15.000000 0.000000
v -25.000000 15.000000 0.000001
v -9.000000 15.000000 -0.000001
v -11.000000 15.000000 -0.000000
v -27.000000 15.000000 0.000001
v -19.000000 15.000000 0.000000
v -23.000000 3.000000 0.000001
v -3.000000 15.000000 -0.000001
v -3.000000 3.000000 -0.000001
v -7.000000 15.000000 -0.000001
v -23.000000 15.000000 0.000001
v -15.000000 15.000000 -0.000000
vn -0.0000 -0.0000 -1.0000
s off
f 160//1 39//1 3//1 74//1
f 159//1 45//1 5//1 70//1
f 158//1 46//1 4//1 69//1
f 156//1 56//1 7//1 63//1
f 154//1 59//1 8//1 64//1
f 153//1 60//1 11//1 67//1
f 152//1 61//1 10//1 66//1
f 151//1 85//1 17//1 43//1
f 150//1 86//1 18//1 44//1
f 149//1 87//1 15//1 41//1
f 147//1 89//1 32//1 90//1
f 146//1 75//1 26//1 91//1
f 144//1 93//1 30//1 57//1
f 143//1 94//1 14//1 40//1
f 142//1 95//1 33//1 96//1
f 141//1 97//1 28//1 54//1
f 139//1 99//1 35//1 100//1
f 138//1 82//1 27//1 101//1
f 122//1 110//1 36//1 111//1
f 121//1 68//1 19//1 112//1
f 120//1 113//1 21//1 48//1
f 119//1 114//1 22//1 49//1
f 118//1 115//1 25//1 52//1
f 117//1 116//1 24//1 51//1
f 61//1 117//1 51//1 10//1
f 60//1 118//1 52//1 11//1
f 59//1 119//1 49//1 8//1
f 56//1 120//1 48//1 7//1
f 110//1 121//1 112//1 36//1
f 29//1 84//1 121//1 110//1
f 82//1 122//1 111//1 27//1
f 12//1 55//1 122//1 82//1
f 55//1 29//1 110//1 122//1
f 18//1 67//1 123//1 109//1
f 67//1 11//1 78//1 123//1
f 5//1 44//1 124//1 77//1
f 44//1 18//1 109//1 124//1
f 11//1 52//1 125//1 78//1
f 52//1 25//1 108//1 125//1
f 15//1 64//1 126//1 107//1
f 64//1 8//1 79//1 126//1
f 3//1 41//1 127//1 73//1
f 41//1 15//1 107//1 127//1
f 22//1 70//1 128//1 106//1
f 70//1 5//1 77//1 128//1
f 8//1 49//1 129//1 79//1
f 49//1 22//1 106//1 129//1
f 17//1 66//1 130//1 105//1
f 66//1 10//1 80//1 130//1
f 4//1 43//1 131//1 76//1
f 43//1 17//1 105//1 131//1
f 24//1 74//1 132//1 104//1
f 74//1 3//1 73//1 132//1
f 10//1 51//1 133//1 80//1
f 51//1 24//1 104//1 133//1
f 14//1 63//1 134//1 103//1
f 63//1 7//1 81//1 134//1
f 2//1 40//1 135//1 38//1
f 40//1 14//1 103//1 135//1
f 21//1 69//1 136//1 102//1
f 69//1 4//1 76//1 136//1
f 7//1 48//1 137//1 81//1
f 48//1 21//1 102//1 137//1
f 99//1 138//1 101//1 35//1
f 28//1 83//1 138//1 99//1
f 83//1 12//1 82//1 138//1
f 47//1 139//1 100//1 20//1
f 6//1 54//1 139//1 47//1
f 54//1 28//1 99//1 139//1
f 37//1 140//1 98//1 13//1
f 1//1 72//1 140//1 37//1
f 62//1 141//1 54//1 6//1
f 13//1 98//1 141//1 62//1
f 98//1 34//1 97//1 141//1
f 50//1 142//1 96//1 23//1
f 9//1 57//1 142//1 50//1
f 57//1 30//1 95//1 142//1
f 71//1 143//1 40//1 2//1
f 23//1 96//1 143//1 71//1
f 96//1 33//1 94//1 143//1
f 65//1 144//1 57//1 9//1
f 26//1 92//1 145//1 53//1
f 89//1 146//1 91//1 32//1
f 16//1 42//1 146//1 89//1
f 31//1 90//1 148//1 58//1
f 90//1 32//1 88//1 148//1
f 39//1 149//1 41//1 3//1
f 45//1 150//1 44//1 5//1
f 46//1 151//1 43//1 4//1
f 85//1 152//1 66//1 17//1
f 86//1 153//1 67//1 18//1
f 87//1 154//1 64//1 15//1
f 32//1 91//1 155//1 88//1
f 91//1 26//1 53//1 155//1
f 94//1 156//1 63//1 14//1
f 97//1 157//1 83//1 28//1
f 113//1 158//1 69//1 21//1
f 114//1 159//1 70//1 22//1
f 116//1 160//1 74//1 24//1
